ComicJensPro-Regular3.000.ttf.ufo
<glyph name="exclam" format="2">
	<unicode hex="0021"/>
	<advance width="389"/>
	<outline>
		<contour>
			<point x="176" y="684" type="qcurve"/>
			<point x="178" y="714"/>
			<point x="214" y="737"/>
			<point x="231" y="737" type="qcurve"/>
			<point x="248" y="737"/>
			<point x="281" y="710"/>
			<point x="280" y="678" type="qcurve"/>
			<point x="278" y="578"/>
			<point x="252" y="380"/>
			<point x="235" y="270" type="qcurve"/>
			<point x="230" y="244"/>
			<point x="203" y="214"/>
			<point x="182" y="214" type="qcurve"/>
			<point x="164" y="214"/>
			<point x="134" y="245"/>
			<point x="138" y="282" type="qcurve"/>
			<point x="149" y="391"/>
			<point x="168" y="584"/>
		</contour>
		<contour>
			<point x="240" y="60" type="qcurve"/>
			<point x="240" y="43"/>
			<point x="224" y="12"/>
			<point x="199" y="-11"/>
			<point x="166" y="-24"/>
			<point x="148" y="-24" type="qcurve"/>
			<point x="118" y="-24"/>
			<point x="75" y="15"/>
			<point x="75" y="39" type="qcurve"/>
			<point x="75" y="56"/>
			<point x="94" y="89"/>
			<point x="123" y="116"/>
			<point x="159" y="132"/>
			<point x="176" y="132" type="qcurve"/>
			<point x="205" y="132"/>
			<point x="240" y="95"/>
		</contour>
	</outline>
</glyph>
<glyph name="quotesingle" format="2">
	<unicode hex="0027"/>
	<advance width="357"/>
	<outline>
		<contour>
			<point x="127" y="637" type="qcurve"/>
			<point x="129" y="666"/>
			<point x="159" y="693"/>
			<point x="179" y="693" type="qcurve"/>
			<point x="202" y="693"/>
			<point x="234" y="663"/>
			<point x="234" y="637" type="qcurve"/>
			<point x="234" y="583"/>
			<point x="226" y="481"/>
			<point x="221" y="426" type="qcurve"/>
			<point x="219" y="400"/>
			<point x="190" y="376"/>
			<point x="174" y="376" type="qcurve"/>
			<point x="156" y="376"/>
			<point x="129" y="405"/>
			<point x="127" y="434" type="qcurve"/>
			<point x="121" y="538"/>
		</contour>
	</outline>
</glyph>
<glyph name="parenright" format="2">
	<unicode hex="0029"/>
	<advance width="439"/>
	<outline>
		<contour>
			<point x="113" y="-77" type="qcurve"/>
			<point x="91" y="-77"/>
			<point x="68" y="-55"/>
			<point x="65" y="-28"/>
			<point x="82" y="-2"/>
			<point x="99" y="3" type="qcurve"/>
			<point x="139" y="15"/>
			<point x="205" y="52"/>
			<point x="252" y="109"/>
			<point x="281" y="191"/>
			<point x="285" y="248" type="qcurve"/>
			<point x="290" y="321"/>
			<point x="260" y="446"/>
			<point x="203" y="545"/>
			<point x="125" y="615"/>
			<point x="82" y="634" type="qcurve"/>
			<point x="62" y="643"/>
			<point x="46" y="671"/>
			<point x="50" y="698"/>
			<point x="72" y="717"/>
			<point x="89" y="717" type="qcurve"/>
			<point x="98" y="717"/>
			<point x="109" y="714" type="qcurve"/>
			<point x="173" y="696"/>
			<point x="284" y="609"/>
			<point x="362" y="482"/>
			<point x="399" y="320"/>
			<point x="391" y="226" type="qcurve"/>
			<point x="385" y="161"/>
			<point x="344" y="62"/>
			<point x="279" y="-10"/>
			<point x="193" y="-58"/>
			<point x="143" y="-72" type="qcurve"/>
			<point x="123" y="-77"/>
		</contour>
	</outline>
</glyph>
<glyph name="comma" format="2">
	<unicode hex="002C"/>
	<advance width="359"/>
	<outline>
		<contour>
			<point x="175" y="19" type="qcurve"/>
			<point x="197" y="68"/>
			<point x="235" y="68" type="qcurve"/>
			<point x="263" y="68"/>
			<point x="289" y="20"/>
			<point x="278" y="-13" type="qcurve"/>
			<point x="270" y="-38"/>
			<point x="241" y="-90"/>
			<point x="206" y="-140"/>
			<point x="166" y="-185"/>
			<point x="147" y="-201" type="qcurve"/>
			<point x="132" y="-214"/>
			<point x="100" y="-235"/>
			<point x="83" y="-235" type="qcurve"/>
			<point x="67" y="-235"/>
			<point x="48" y="-213"/>
			<point x="48" y="-199" type="qcurve"/>
			<point x="48" y="-181"/>
			<point x="69" y="-154"/>
			<point x="83" y="-137" type="qcurve"/>
			<point x="96" y="-121"/>
			<point x="123" y="-81"/>
			<point x="147" y="-39"/>
			<point x="167" y="1"/>
		</contour>
	</outline>
</glyph>
<glyph name="hyphen" format="2">
	<unicode hex="002D"/>
	<advance width="473"/>
	<outline>
		<contour>
			<point x="103" y="224" type="qcurve"/>
			<point x="68" y="224"/>
			<point x="39" y="254"/>
			<point x="39" y="276" type="qcurve"/>
			<point x="39" y="297"/>
			<point x="68" y="325"/>
			<point x="98" y="326" type="qcurve"/>
			<point x="132" y="327"/>
			<point x="209" y="329"/>
			<point x="285" y="330"/>
			<point x="356" y="330"/>
			<point x="385" y="329" type="qcurve"/>
			<point x="417" y="328"/>
			<point x="444" y="301"/>
			<point x="444" y="286" type="qcurve"/>
			<point x="444" y="266"/>
			<point x="418" y="239"/>
			<point x="392" y="237" type="qcurve"/>
			<point x="314" y="231"/>
			<point x="166" y="224"/>
		</contour>
	</outline>
</glyph>
<glyph name="period" format="2">
	<unicode hex="002E"/>
	<advance width="363"/>
	<outline>
		<contour>
			<point x="198" y="138" type="qcurve"/>
			<point x="219" y="138"/>
			<point x="254" y="105"/>
			<point x="252" y="70" type="qcurve"/>
			<point x="251" y="55"/>
			<point x="240" y="23"/>
			<point x="220" y="-4"/>
			<point x="189" y="-21"/>
			<point x="168" y="-21" type="qcurve"/>
			<point x="133" y="-21"/>
			<point x="99" y="22"/>
			<point x="101" y="51" type="qcurve"/>
			<point x="102" y="68"/>
			<point x="118" y="99"/>
			<point x="145" y="123"/>
			<point x="179" y="138"/>
		</contour>
	</outline>
</glyph>
<glyph name="four" format="2">
	<unicode hex="0034"/>
	<advance width="664"/>
	<outline>
		<contour>
			<point x="462" y="268" type="line"/>
			<point x="462" y="204"/>
			<point x="460" y="77"/>
			<point x="458" y="13" type="qcurve"/>
			<point x="458" y="-13"/>
			<point x="428" y="-41"/>
			<point x="408" y="-41" type="qcurve"/>
			<point x="388" y="-41"/>
			<point x="362" y="-12"/>
			<point x="362" y="17" type="qcurve"/>
			<point x="359" y="264" type="line"/>
			<point x="300" y="262"/>
			<point x="189" y="261"/>
			<point x="144" y="261" type="qcurve"/>
			<point x="118" y="258"/>
			<point x="84" y="271"/>
			<point x="64" y="295"/>
			<point x="59" y="329"/>
			<point x="61" y="349" type="qcurve"/>
			<point x="71" y="438"/>
			<point x="98" y="596"/>
			<point x="111" y="664" type="qcurve"/>
			<point x="116" y="691"/>
			<point x="148" y="711"/>
			<point x="163" y="711" type="qcurve"/>
			<point x="172" y="711"/>
			<point x="191" y="704"/>
			<point x="206" y="688"/>
			<point x="213" y="662"/>
			<point x="210" y="644" type="qcurve"/>
			<point x="199" y="584"/>
			<point x="171" y="445"/>
			<point x="159" y="356" type="qcurve"/>
			<point x="200" y="356"/>
			<point x="302" y="358"/>
			<point x="357" y="359" type="qcurve"/>
			<point x="354" y="498" type="line"/>
			<point x="353" y="527"/>
			<point x="384" y="556"/>
			<point x="405" y="556" type="qcurve"/>
			<point x="426" y="556"/>
			<point x="453" y="528"/>
			<point x="455" y="502" type="qcurve"/>
			<point x="457" y="467"/>
			<point x="458" y="432" type="qcurve"/>
			<point x="460" y="362" type="line"/>
			<point x="505" y="364"/>
			<point x="583" y="364"/>
			<point x="614" y="365" type="qcurve"/>
			<point x="643" y="365"/>
			<point x="668" y="336"/>
			<point x="668" y="319" type="qcurve"/>
			<point x="668" y="302"/>
			<point x="641" y="276"/>
			<point x="614" y="274" type="qcurve"/>
		</contour>
	</outline>
</glyph>
<glyph name="six" format="2">
	<unicode hex="0036"/>
	<advance width="599"/>
	<outline>
		<contour>
			<point x="290" y="721" type="qcurve"/>
			<point x="309" y="730"/>
			<point x="350" y="736"/>
			<point x="383" y="730"/>
			<point x="405" y="712"/>
			<point x="405" y="698" type="qcurve"/>
			<point x="405" y="683"/>
			<point x="385" y="664"/>
			<point x="366" y="653" type="qcurve"/>
			<point x="263" y="596"/>
			<point x="167" y="427"/>
			<point x="157" y="314" type="qcurve"/>
			<point x="155" y="291" type="line"/>
			<point x="211" y="333"/>
			<point x="314" y="370"/>
			<point x="365" y="370" type="qcurve"/>
			<point x="417" y="370"/>
			<point x="498" y="342"/>
			<point x="552" y="292"/>
			<point x="577" y="221"/>
			<point x="573" y="179" type="qcurve"/>
			<point x="569" y="130"/>
			<point x="521" y="55"/>
			<point x="451" y="5"/>
			<point x="364" y="-21"/>
			<point x="321" y="-21" type="qcurve"/>
			<point x="264" y="-21"/>
			<point x="162" y="16"/>
			<point x="87" y="96"/>
			<point x="48" y="221"/>
			<point x="53" y="308" type="qcurve"/>
			<point x="57" y="373"/>
			<point x="92" y="499"/>
			<point x="153" y="609"/>
			<point x="237" y="696"/>
		</contour>
		<contour>
			<point x="356" y="272" type="qcurve"/>
			<point x="305" y="272"/>
			<point x="210" y="239"/>
			<point x="162" y="202" type="qcurve"/>
			<point x="176" y="139"/>
			<point x="254" y="75"/>
			<point x="312" y="75" type="qcurve"/>
			<point x="383" y="75"/>
			<point x="458" y="134"/>
			<point x="463" y="178" type="qcurve"/>
			<point x="468" y="224"/>
			<point x="409" y="272"/>
		</contour>
	</outline>
</glyph>
<glyph name="eight" format="2">
	<unicode hex="0038"/>
	<advance width="532"/>
	<outline>
		<contour>
			<point x="241" y="-15" type="qcurve"/>
			<point x="181" y="-15"/>
			<point x="97" y="22"/>
			<point x="49" y="83"/>
			<point x="34" y="163"/>
			<point x="42" y="207" type="qcurve"/>
			<point x="53" y="267"/>
			<point x="135" y="359"/>
			<point x="216" y="392" type="qcurve"/>
			<point x="189" y="414"/>
			<point x="150" y="452"/>
			<point x="123" y="491"/>
			<point x="110" y="535"/>
			<point x="110" y="563" type="qcurve"/>
			<point x="110" y="597"/>
			<point x="133" y="658"/>
			<point x="175" y="704"/>
			<point x="234" y="731"/>
			<point x="271" y="731" type="qcurve"/>
			<point x="324" y="731"/>
			<point x="376" y="695"/>
			<point x="378" y="669" type="qcurve"/>
			<point x="395" y="681"/>
			<point x="425" y="667" type="qcurve"/>
			<point x="440" y="659"/>
			<point x="474" y="631"/>
			<point x="501" y="592"/>
			<point x="518" y="544"/>
			<point x="516" y="517" type="qcurve"/>
			<point x="514" y="499"/>
			<point x="501" y="459"/>
			<point x="472" y="420"/>
			<point x="423" y="383"/>
			<point x="386" y="367" type="qcurve"/>
			<point x="424" y="319"/>
			<point x="467" y="220"/>
			<point x="459" y="160" type="qcurve"/>
			<point x="454" y="124"/>
			<point x="418" y="60"/>
			<point x="360" y="12"/>
			<point x="284" y="-15"/>
		</contour>
		<contour>
			<point x="349" y="182" type="qcurve"/>
			<point x="353" y="224"/>
			<point x="325" y="291"/>
			<point x="290" y="326" type="qcurve"/>
			<point x="253" y="313"/>
			<point x="203" y="285"/>
			<point x="170" y="253"/>
			<point x="152" y="217"/>
			<point x="148" y="196" type="qcurve"/>
			<point x="137" y="146"/>
			<point x="188" y="81"/>
			<point x="242" y="81" type="qcurve"/>
			<point x="261" y="81"/>
			<point x="298" y="95"/>
			<point x="327" y="121"/>
			<point x="347" y="158"/>
		</contour>
		<contour>
			<point x="211" y="569" type="qcurve"/>
			<point x="211" y="548"/>
			<point x="230" y="514"/>
			<point x="261" y="483"/>
			<point x="301" y="453"/>
			<point x="321" y="436" type="qcurve"/>
			<point x="358" y="452"/>
			<point x="410" y="496"/>
			<point x="414" y="527" type="qcurve"/>
			<point x="418" y="555"/>
			<point x="395" y="590"/>
			<point x="381" y="604" type="qcurve"/>
			<point x="369" y="616"/>
			<point x="366" y="631" type="qcurve"/>
			<point x="352" y="617"/>
			<point x="332" y="617" type="qcurve"/>
			<point x="306" y="617"/>
			<point x="280" y="637" type="qcurve"/>
			<point x="248" y="637"/>
			<point x="211" y="604"/>
		</contour>
	</outline>
</glyph>
<glyph name="colon" format="2">
	<unicode hex="003A"/>
	<advance width="362"/>
	<outline>
		<contour>
			<point x="189" y="447" type="qcurve"/>
			<point x="214" y="447"/>
			<point x="257" y="411"/>
			<point x="257" y="376" type="qcurve"/>
			<point x="257" y="360"/>
			<point x="242" y="333"/>
			<point x="218" y="314"/>
			<point x="190" y="303"/>
			<point x="178" y="303" type="qcurve"/>
			<point x="162" y="303"/>
			<point x="136" y="317"/>
			<point x="117" y="339"/>
			<point x="106" y="368"/>
			<point x="106" y="382" type="qcurve"/>
			<point x="106" y="408"/>
			<point x="144" y="447"/>
		</contour>
		<contour>
			<point x="184" y="127" type="qcurve"/>
			<point x="201" y="127"/>
			<point x="229" y="112"/>
			<point x="250" y="89"/>
			<point x="261" y="59"/>
			<point x="261" y="44" type="qcurve"/>
			<point x="261" y="25"/>
			<point x="245" y="-2"/>
			<point x="223" y="-18"/>
			<point x="198" y="-26"/>
			<point x="188" y="-26" type="qcurve"/>
			<point x="173" y="-26"/>
			<point x="145" y="-16"/>
			<point x="123" y="2"/>
			<point x="109" y="29"/>
			<point x="109" y="46" type="qcurve"/>
			<point x="109" y="61"/>
			<point x="119" y="90"/>
			<point x="139" y="113"/>
			<point x="167" y="127"/>
		</contour>
	</outline>
</glyph>
<glyph name="B" format="2">
	<unicode hex="0042"/>
	<advance width="666"/>
	<outline>
		<contour>
			<point x="348" y="-32" type="qcurve"/>
			<point x="297" y="-32"/>
			<point x="205" y="-3"/>
			<point x="178" y="20" type="qcurve"/>
			<point x="172" y="25"/>
			<point x="168" y="30" type="qcurve"/>
			<point x="150" y="29"/>
			<point x="120" y="54"/>
			<point x="122" y="79" type="qcurve"/>
			<point x="127" y="151"/>
			<point x="134" y="284"/>
			<point x="140" y="419"/>
			<point x="143" y="556"/>
			<point x="143" y="620" type="qcurve"/>
			<point x="135" y="618"/>
			<point x="106" y="609"/>
			<point x="100" y="607" type="qcurve"/>
			<point x="78" y="600"/>
			<point x="47" y="607"/>
			<point x="35" y="628"/>
			<point x="43" y="653"/>
			<point x="55" y="664" type="qcurve"/>
			<point x="74" y="681"/>
			<point x="136" y="711"/>
			<point x="216" y="734"/>
			<point x="307" y="747"/>
			<point x="354" y="747" type="qcurve"/>
			<point x="407" y="747"/>
			<point x="502" y="723"/>
			<point x="572" y="674"/>
			<point x="605" y="598"/>
			<point x="600" y="548" type="qcurve"/>
			<point x="594" y="494"/>
			<point x="507" y="422"/>
			<point x="429" y="407" type="qcurve"/>
			<point x="528" y="378"/>
			<point x="629" y="260"/>
			<point x="617" y="172" type="qcurve"/>
			<point x="611" y="128"/>
			<point x="562" y="52"/>
			<point x="486" y="-3"/>
			<point x="395" y="-32"/>
		</contour>
		<contour>
			<point x="337" y="60" type="qcurve"/>
			<point x="367" y="60"/>
			<point x="426" y="78"/>
			<point x="474" y="113"/>
			<point x="503" y="160"/>
			<point x="506" y="188" type="qcurve"/>
			<point x="510" y="222"/>
			<point x="493" y="273"/>
			<point x="449" y="313"/>
			<point x="375" y="344"/>
			<point x="321" y="358" type="qcurve"/>
			<point x="300" y="363"/>
			<point x="277" y="390"/>
			<point x="280" y="422"/>
			<point x="304" y="444"/>
			<point x="322" y="446" type="qcurve"/>
			<point x="402" y="457"/>
			<point x="490" y="514"/>
			<point x="493" y="558" type="qcurve"/>
			<point x="496" y="607"/>
			<point x="416" y="653"/>
			<point x="335" y="653" type="qcurve"/>
			<point x="292" y="653"/>
			<point x="246" y="645" type="qcurve"/>
			<point x="248" y="581"/>
			<point x="245" y="430"/>
			<point x="238" y="277"/>
			<point x="228" y="139"/>
			<point x="222" y="87" type="qcurve"/>
			<point x="230" y="85"/>
			<point x="258" y="74"/>
			<point x="307" y="60"/>
		</contour>
	</outline>
	<anchor name="mark0" x="337" y="725"/>
	<anchor name="mark1" x="341" y="-13"/>
	<anchor name="mark2" x="0" y="0"/>
</glyph>
<glyph name="H" format="2">
	<unicode hex="0048"/>
	<advance width="604"/>
	<outline>
		<contour>
			<point x="181" y="668" type="qcurve"/>
			<point x="180" y="605"/>
			<point x="179" y="480"/>
			<point x="177" y="416" type="qcurve"/>
			<point x="240" y="419"/>
			<point x="364" y="422"/>
			<point x="427" y="423" type="qcurve"/>
			<point x="429" y="489"/>
			<point x="430" y="620"/>
			<point x="431" y="686" type="qcurve"/>
			<point x="432" y="711"/>
			<point x="462" y="737"/>
			<point x="484" y="737" type="qcurve"/>
			<point x="504" y="737"/>
			<point x="535" y="711"/>
			<point x="534" y="687" type="qcurve"/>
			<point x="532" y="519"/>
			<point x="519" y="185"/>
			<point x="510" y="17" type="qcurve"/>
			<point x="508" y="-9"/>
			<point x="480" y="-35"/>
			<point x="459" y="-35" type="qcurve"/>
			<point x="439" y="-35"/>
			<point x="410" y="-6"/>
			<point x="412" y="23" type="qcurve"/>
			<point x="421" y="176"/>
			<point x="424" y="329" type="qcurve"/>
			<point x="300" y="325" type="line"/>
			<point x="238" y="323"/>
			<point x="175" y="320" type="qcurve"/>
			<point x="173" y="246"/>
			<point x="168" y="100"/>
			<point x="165" y="26" type="qcurve"/>
			<point x="164" y="3"/>
			<point x="138" y="-25"/>
			<point x="117" y="-25" type="qcurve"/>
			<point x="96" y="-25"/>
			<point x="66" y="4"/>
			<point x="67" y="27" type="qcurve"/>
			<point x="70" y="190"/>
			<point x="79" y="513"/>
			<point x="79" y="676" type="qcurve"/>
			<point x="79" y="699"/>
			<point x="108" y="728"/>
			<point x="129" y="728" type="qcurve"/>
			<point x="152" y="728"/>
			<point x="181" y="697"/>
		</contour>
	</outline>
	<anchor name="mark0" x="309" y="725"/>
	<anchor name="mark1" x="284" y="0"/>
	<anchor name="mark2" x="0" y="0"/>
</glyph>
<glyph name="M" format="2">
	<unicode hex="004D"/>
	<advance width="727"/>
	<outline>
		<contour>
			<point x="122" y="-2" type="qcurve"/>
			<point x="118" y="-28"/>
			<point x="91" y="-52"/>
			<point x="74" y="-52" type="qcurve"/>
			<point x="65" y="-52"/>
			<point x="46" y="-45"/>
			<point x="31" y="-30"/>
			<point x="24" y="-7"/>
			<point x="26" y="9" type="qcurve"/>
			<point x="38" y="102"/>
			<point x="78" y="275"/>
			<point x="126" y="439"/>
			<point x="152" y="519" type="qcurve"/>
			<point x="204" y="679" type="line"/>
			<point x="210" y="724"/>
			<point x="251" y="724" type="qcurve"/>
			<point x="272" y="724"/>
			<point x="297" y="694"/>
			<point x="299" y="668" type="qcurve"/>
			<point x="305" y="607"/>
			<point x="314" y="505"/>
			<point x="326" y="410"/>
			<point x="343" y="317"/>
			<point x="355" y="266" type="qcurve"/>
			<point x="398" y="373"/>
			<point x="465" y="574"/>
			<point x="489" y="678" type="qcurve"/>
			<point x="494" y="700"/>
			<point x="520" y="726"/>
			<point x="542" y="726" type="qcurve"/>
			<point x="564" y="726"/>
			<point x="592" y="699"/>
			<point x="594" y="668" type="qcurve"/>
			<point x="598" y="572"/>
			<point x="614" y="388"/>
			<point x="632" y="224"/>
			<point x="653" y="84"/>
			<point x="664" y="33" type="qcurve"/>
			<point x="668" y="15"/>
			<point x="662" y="-12"/>
			<point x="648" y="-30"/>
			<point x="628" y="-38"/>
			<point x="618" y="-38" type="qcurve"/>
			<point x="603" y="-38"/>
			<point x="575" y="-17"/>
			<point x="569" y="4" type="qcurve"/>
			<point x="558" y="41"/>
			<point x="541" y="129"/>
			<point x="528" y="239"/>
			<point x="517" y="378"/>
			<point x="514" y="468" type="qcurve"/>
			<point x="491" y="370"/>
			<point x="442" y="230"/>
			<point x="412" y="172" type="qcurve"/>
			<point x="404" y="152"/>
			<point x="388" y="127"/>
			<point x="372" y="113"/>
			<point x="355" y="108"/>
			<point x="345" y="108" type="qcurve"/>
			<point x="321" y="108"/>
			<point x="292" y="141"/>
			<point x="281" y="170" type="qcurve"/>
			<point x="272" y="193"/>
			<point x="256" y="248"/>
			<point x="242" y="317"/>
			<point x="231" y="402"/>
			<point x="227" y="456" type="qcurve"/>
			<point x="210" y="390"/>
			<point x="181" y="276"/>
			<point x="154" y="167"/>
			<point x="131" y="58"/>
		</contour>
	</outline>
	<anchor name="mark0" x="383" y="725"/>
	<anchor name="mark1" x="336" y="0"/>
	<anchor name="mark2" x="0" y="0"/>
</glyph>
<glyph name="N" format="2">
	<unicode hex="004E"/>
	<advance width="678"/>
	<outline>
		<contour>
			<point x="126" y="-26" type="qcurve"/>
			<point x="104" y="-26"/>
			<point x="76" y="5"/>
			<point x="76" y="32" type="qcurve"/>
			<point x="76" y="130"/>
			<point x="83" y="359"/>
			<point x="97" y="660" type="qcurve"/>
			<point x="99" y="696"/>
			<point x="123" y="728"/>
			<point x="147" y="728" type="qcurve"/>
			<point x="167" y="728"/>
			<point x="192" y="707"/>
			<point x="200" y="685" type="qcurve"/>
			<point x="253" y="532"/>
			<point x="397" y="248"/>
			<point x="487" y="118" type="qcurve"/>
			<point x="489" y="185"/>
			<point x="491" y="313"/>
			<point x="490" y="435"/>
			<point x="488" y="564"/>
			<point x="486" y="668" type="qcurve"/>
			<point x="485" y="691"/>
			<point x="515" y="720"/>
			<point x="536" y="720" type="qcurve"/>
			<point x="558" y="720"/>
			<point x="585" y="692"/>
			<point x="586" y="668" type="qcurve"/>
			<point x="590" y="586"/>
			<point x="593" y="405"/>
			<point x="588" y="230"/>
			<point x="577" y="80"/>
			<point x="568" y="25" type="qcurve"/>
			<point x="559" y="-32"/>
			<point x="513" y="-32" type="qcurve"/>
			<point x="480" y="-32"/>
			<point x="454" y="1" type="qcurve"/>
			<point x="375" y="100"/>
			<point x="237" y="342"/>
			<point x="182" y="480" type="qcurve"/>
			<point x="182" y="446"/>
			<point x="181" y="370"/>
			<point x="180" y="187"/>
			<point x="179" y="78"/>
			<point x="178" y="28" type="qcurve"/>
			<point x="177" y="1"/>
			<point x="146" y="-26"/>
		</contour>
	</outline>
	<anchor name="mark0" x="335" y="700"/>
	<anchor name="mark1" x="318" y="0"/>
	<anchor name="mark2" x="0" y="0"/>
</glyph>
<glyph name="R" format="2">
	<unicode hex="0052"/>
	<advance width="645"/>
	<outline>
		<contour>
			<point x="555" y="-27" type="qcurve"/>
			<point x="532" y="-27"/>
			<point x="511" y="-5" type="qcurve"/>
			<point x="449" y="61"/>
			<point x="314" y="216"/>
			<point x="236" y="287" type="qcurve"/>
			<point x="199" y="283" type="line"/>
			<point x="197" y="220"/>
			<point x="191" y="98"/>
			<point x="188" y="36" type="qcurve"/>
			<point x="186" y="8"/>
			<point x="158" y="-19"/>
			<point x="138" y="-19" type="qcurve"/>
			<point x="119" y="-19"/>
			<point x="88" y="8"/>
			<point x="89" y="34" type="qcurve"/>
			<point x="91" y="168"/>
			<point x="101" y="431"/>
			<point x="102" y="565" type="qcurve"/>
			<point x="82" y="557"/>
			<point x="54" y="570"/>
			<point x="43" y="596"/>
			<point x="53" y="629"/>
			<point x="72" y="640" type="qcurve"/>
			<point x="97" y="655"/>
			<point x="169" y="686"/>
			<point x="255" y="711"/>
			<point x="350" y="726"/>
			<point x="399" y="726" type="qcurve"/>
			<point x="450" y="726"/>
			<point x="526" y="696"/>
			<point x="575" y="642"/>
			<point x="594" y="567"/>
			<point x="588" y="523" type="qcurve"/>
			<point x="583" y="487"/>
			<point x="550" y="422"/>
			<point x="490" y="367"/>
			<point x="399" y="323"/>
			<point x="336" y="307" type="qcurve"/>
			<point x="370" y="279"/>
			<point x="441" y="216"/>
			<point x="507" y="151"/>
			<point x="566" y="85"/>
			<point x="589" y="54" type="qcurve"/>
			<point x="599" y="39"/>
			<point x="602" y="10"/>
			<point x="591" y="-13"/>
			<point x="569" y="-27"/>
		</contour>
		<contour>
			<point x="203" y="606" type="qcurve"/>
			<point x="204" y="546"/>
			<point x="203" y="426"/>
			<point x="201" y="366" type="qcurve"/>
			<point x="330" y="382"/>
			<point x="471" y="463"/>
			<point x="480" y="524" type="qcurve"/>
			<point x="488" y="581"/>
			<point x="432" y="636"/>
			<point x="372" y="636" type="qcurve"/>
			<point x="332" y="636"/>
			<point x="248" y="620"/>
		</contour>
	</outline>
	<anchor name="mark0" x="361" y="725"/>
	<anchor name="mark1" x="318" y="0"/>
	<anchor name="mark2" x="0" y="0"/>
</glyph>
<glyph name="S" format="2">
	<unicode hex="0053"/>
	<advance width="541"/>
	<outline>
		<contour>
			<point x="271" y="-27" type="qcurve"/>
			<point x="221" y="-27"/>
			<point x="140" y="-2"/>
			<point x="80" y="40"/>
			<point x="42" y="95"/>
			<point x="35" y="125" type="qcurve"/>
			<point x="29" y="152"/>
			<point x="45" y="187"/>
			<point x="73" y="199"/>
			<point x="106" y="184"/>
			<point x="117" y="162" type="qcurve"/>
			<point x="140" y="113"/>
			<point x="210" y="65"/>
			<point x="270" y="65" type="qcurve"/>
			<point x="321" y="65"/>
			<point x="384" y="114"/>
			<point x="384" y="172" type="qcurve"/>
			<point x="384" y="201"/>
			<point x="359" y="249"/>
			<point x="317" y="293"/>
			<point x="264" y="332"/>
			<point x="236" y="352" type="qcurve"/>
			<point x="206" y="373"/>
			<point x="148" y="419"/>
			<point x="102" y="471"/>
			<point x="74" y="531"/>
			<point x="74" y="568" type="qcurve"/>
			<point x="74" y="646"/>
			<point x="180" y="731"/>
			<point x="275" y="731" type="qcurve"/>
			<point x="344" y="731"/>
			<point x="442" y="684"/>
			<point x="459" y="653" type="qcurve"/>
			<point x="468" y="636"/>
			<point x="465" y="606"/>
			<point x="445" y="589"/>
			<point x="410" y="590"/>
			<point x="388" y="606" type="qcurve"/>
			<point x="365" y="622"/>
			<point x="311" y="640"/>
			<point x="278" y="640" type="qcurve"/>
			<point x="230" y="640"/>
			<point x="178" y="609"/>
			<point x="178" y="571" type="qcurve"/>
			<point x="178" y="549"/>
			<point x="200" y="511"/>
			<point x="236" y="476"/>
			<point x="284" y="442"/>
			<point x="310" y="424" type="qcurve"/>
			<point x="341" y="402"/>
			<point x="405" y="353"/>
			<point x="456" y="292"/>
			<point x="488" y="216"/>
			<point x="488" y="168" type="qcurve"/>
			<point x="488" y="128"/>
			<point x="461" y="57"/>
			<point x="406" y="4"/>
			<point x="325" y="-27"/>
		</contour>
	</outline>
	<anchor name="mark0" x="275" y="710"/>
	<anchor name="mark1" x="253" y="-15"/>
	<anchor name="mark2" x="0" y="0"/>
</glyph>
<glyph name="W" format="2">
	<unicode hex="0057"/>
	<advance width="839"/>
	<outline>
		<contour>
			<point x="40" y="649" type="qcurve"/>
			<point x="36" y="678"/>
			<point x="68" y="714"/>
			<point x="94" y="714" type="qcurve"/>
			<point x="113" y="714"/>
			<point x="137" y="690"/>
			<point x="139" y="670" type="qcurve"/>
			<point x="149" y="579"/>
			<point x="182" y="375"/>
			<point x="219" y="180" type="qcurve"/>
			<point x="240" y="237"/>
			<point x="293" y="359"/>
			<point x="373" y="532" type="qcurve"/>
			<point x="380" y="554"/>
			<point x="408" y="576"/>
			<point x="428" y="576" type="qcurve"/>
			<point x="470" y="576"/>
			<point x="482" y="533" type="qcurve"/>
			<point x="528" y="369"/>
			<point x="574" y="220"/>
			<point x="597" y="155" type="qcurve"/>
			<point x="629" y="289"/>
			<point x="677" y="551"/>
			<point x="693" y="676" type="qcurve"/>
			<point x="696" y="697"/>
			<point x="723" y="719"/>
			<point x="742" y="719" type="qcurve"/>
			<point x="768" y="719"/>
			<point x="797" y="684"/>
			<point x="793" y="656" type="qcurve"/>
			<point x="769" y="483"/>
			<point x="706" y="172"/>
			<point x="665" y="29" type="qcurve"/>
			<point x="650" y="-23"/>
			<point x="607" y="-23" type="qcurve"/>
			<point x="571" y="-23"/>
			<point x="556" y="19" type="qcurve"/>
			<point x="518" y="99"/>
			<point x="447" y="292"/>
			<point x="416" y="401" type="qcurve"/>
			<point x="343" y="236"/>
			<point x="283" y="98"/>
			<point x="256" y="36" type="qcurve"/>
			<point x="251" y="19"/>
			<point x="223" y="0"/>
			<point x="207" y="0" type="qcurve"/>
			<point x="188" y="0"/>
			<point x="162" y="21"/>
			<point x="157" y="41" type="qcurve"/>
			<point x="120" y="191"/>
			<point x="61" y="496"/>
		</contour>
	</outline>
	<anchor name="mark0" x="394" y="640"/>
	<anchor name="mark1" x="342" y="16"/>
	<anchor name="mark2" x="0" y="0"/>
</glyph>
<glyph name="bracketright" format="2">
	<unicode hex="005D"/>
	<advance width="440"/>
	<outline>
		<contour>
			<point x="251" y="651" type="qcurve"/>
			<point x="222" y="649"/>
			<point x="150" y="636"/>
			<point x="118" y="636" type="qcurve"/>
			<point x="96" y="636"/>
			<point x="72" y="663"/>
			<point x="72" y="682" type="qcurve"/>
			<point x="72" y="694"/>
			<point x="85" y="722"/>
			<point x="102" y="730" type="qcurve"/>
			<point x="111" y="734"/>
			<point x="148" y="742"/>
			<point x="195" y="748"/>
			<point x="244" y="751"/>
			<point x="265" y="751" type="qcurve"/>
			<point x="314" y="751"/>
			<point x="352" y="717"/>
			<point x="352" y="690" type="qcurve"/>
			<point x="352" y="649"/>
			<point x="353" y="578"/>
			<point x="353" y="537" type="qcurve"/>
			<point x="353" y="388"/>
			<point x="334" y="88"/>
			<point x="334" y="-69" type="qcurve"/>
			<point x="334" y="-90"/>
			<point x="305" y="-113"/>
			<point x="262" y="-124"/>
			<point x="213" y="-126"/>
			<point x="192" y="-126" type="qcurve"/>
			<point x="163" y="-126"/>
			<point x="111" y="-121"/>
			<point x="85" y="-121" type="qcurve"/>
			<point x="67" y="-121"/>
			<point x="37" y="-92"/>
			<point x="37" y="-71" type="qcurve"/>
			<point x="37" y="-52"/>
			<point x="63" y="-21"/>
			<point x="86" y="-21" type="qcurve"/>
			<point x="106" y="-21"/>
			<point x="155" y="-26"/>
			<point x="183" y="-26" type="qcurve"/>
			<point x="197" y="-26"/>
			<point x="222" y="-24"/>
			<point x="234" y="-22" type="qcurve"/>
			<point x="235" y="111"/>
			<point x="253" y="375"/>
			<point x="253" y="509" type="qcurve"/>
			<point x="253" y="544"/>
			<point x="253" y="615"/>
		</contour>
	</outline>
</glyph>
<glyph name="asciicircum" format="2">
	<unicode hex="005E"/>
	<advance width="486"/>
	<outline>
		<contour>
			<point x="141" y="325" type="qcurve"/>
			<point x="131" y="308"/>
			<point x="105" y="291"/>
			<point x="91" y="291" type="qcurve"/>
			<point x="73" y="291"/>
			<point x="44" y="321"/>
			<point x="44" y="349" type="qcurve"/>
			<point x="50" y="377"/>
			<point x="73" y="430"/>
			<point x="102" y="479"/>
			<point x="132" y="528"/>
			<point x="145" y="554" type="qcurve"/>
			<point x="154" y="572"/>
			<point x="174" y="620"/>
			<point x="198" y="664"/>
			<point x="229" y="694"/>
			<point x="250" y="694" type="qcurve"/>
			<point x="268" y="694"/>
			<point x="293" y="678"/>
			<point x="312" y="652"/>
			<point x="325" y="622"/>
			<point x="331" y="609" type="qcurve"/>
			<point x="343" y="580"/>
			<point x="379" y="511"/>
			<point x="413" y="439"/>
			<point x="437" y="371"/>
			<point x="437" y="343" type="qcurve"/>
			<point x="437" y="318"/>
			<point x="408" y="291"/>
			<point x="390" y="291" type="qcurve"/>
			<point x="375" y="291"/>
			<point x="347" y="311"/>
			<point x="339" y="333" type="qcurve"/>
			<point x="332" y="378"/>
			<point x="288" y="458"/>
			<point x="269" y="498" type="qcurve"/>
			<point x="264" y="509"/>
			<point x="255" y="532"/>
			<point x="250" y="543" type="qcurve"/>
			<point x="246" y="535"/>
			<point x="240" y="521"/>
			<point x="236" y="514" type="qcurve"/>
			<point x="224" y="491"/>
			<point x="196" y="445"/>
			<point x="169" y="399"/>
			<point x="146" y="351"/>
		</contour>
	</outline>
</glyph>
<glyph name="grave" format="2">
	<unicode hex="0060"/>
	<advance width="309"/>
	<outline>
		<contour>
			<point x="70" y="650" type="qcurve"/>
			<point x="65" y="665"/>
			<point x="65" y="674" type="qcurve"/>
			<point x="65" y="697"/>
			<point x="93" y="723"/>
			<point x="111" y="723" type="qcurve"/>
			<point x="123" y="723"/>
			<point x="147" y="710"/>
			<point x="157" y="696" type="qcurve"/>
			<point x="161" y="689"/>
			<point x="168" y="685" type="qcurve"/>
			<point x="174" y="679"/>
			<point x="200" y="660"/>
			<point x="226" y="634"/>
			<point x="245" y="606"/>
			<point x="245" y="591" type="qcurve"/>
			<point x="245" y="567"/>
			<point x="217" y="539"/>
			<point x="198" y="539" type="qcurve"/>
			<point x="186" y="539"/>
			<point x="162" y="550"/>
			<point x="153" y="563" type="qcurve"/>
			<point x="145" y="575"/>
			<point x="121" y="594"/>
			<point x="97" y="614"/>
			<point x="76" y="636"/>
		</contour>
	</outline>
</glyph>
<glyph name="a" format="2">
	<unicode hex="0061"/>
	<advance width="617"/>
	<outline>
		<contour>
			<point x="168" y="-6" type="qcurve"/>
			<point x="94" y="-6"/>
			<point x="19" y="112"/>
			<point x="36" y="232" type="qcurve"/>
			<point x="45" y="295"/>
			<point x="98" y="396"/>
			<point x="174" y="468"/>
			<point x="268" y="507"/>
			<point x="319" y="507" type="qcurve"/>
			<point x="366" y="507"/>
			<point x="430" y="485"/>
			<point x="450" y="470" type="qcurve"/>
			<point x="456" y="465"/>
			<point x="464" y="456"/>
			<point x="467" y="451" type="qcurve"/>
			<point x="479" y="454"/>
			<point x="504" y="448"/>
			<point x="523" y="432"/>
			<point x="533" y="406"/>
			<point x="531" y="388" type="qcurve"/>
			<point x="521" y="310"/>
			<point x="512" y="204"/>
			<point x="512" y="169" type="qcurve"/>
			<point x="512" y="141"/>
			<point x="520" y="105"/>
			<point x="533" y="82"/>
			<point x="549" y="69"/>
			<point x="557" y="65" type="qcurve"/>
			<point x="580" y="51"/>
			<point x="596" y="22"/>
			<point x="589" y="-4"/>
			<point x="564" y="-20"/>
			<point x="546" y="-20" type="qcurve"/>
			<point x="508" y="-20"/>
			<point x="442" y="19"/>
			<point x="428" y="67" type="qcurve"/>
			<point x="420" y="91"/>
			<point x="417" y="152"/>
			<point x="422" y="192" type="qcurve"/>
			<point x="400" y="146"/>
			<point x="377" y="115" type="qcurve"/>
			<point x="360" y="92"/>
			<point x="315" y="48"/>
			<point x="263" y="14"/>
			<point x="202" y="-6"/>
		</contour>
		<contour>
			<point x="328" y="189" type="qcurve"/>
			<point x="356" y="227"/>
			<point x="408" y="330"/>
			<point x="425" y="395" type="qcurve"/>
			<point x="421" y="396"/>
			<point x="414" y="398"/>
			<point x="410" y="400" type="qcurve"/>
			<point x="389" y="409"/>
			<point x="348" y="421"/>
			<point x="327" y="421" type="qcurve"/>
			<point x="298" y="421"/>
			<point x="235" y="395"/>
			<point x="181" y="341"/>
			<point x="143" y="258"/>
			<point x="139" y="201" type="qcurve"/>
			<point x="134" y="142"/>
			<point x="157" y="92"/>
			<point x="189" y="92" type="qcurve"/>
			<point x="213" y="92"/>
			<point x="289" y="135"/>
		</contour>
	</outline>
	<anchor name="mark0" x="330" y="500"/>
	<anchor name="mark1" x="214" y="0"/>
	<anchor name="mark2" x="547" y="30"/>
</glyph>
<glyph name="d" format="2">
	<unicode hex="0064"/>
	<advance width="626"/>
	<outline>
		<contour>
			<point x="261" y="493" type="qcurve"/>
			<point x="306" y="493"/>
			<point x="375" y="467"/>
			<point x="401" y="451" type="qcurve"/>
			<point x="416" y="530" type="line"/>
			<point x="418" y="578"/>
			<point x="431" y="684"/>
			<point x="444" y="731" type="qcurve"/>
			<point x="449" y="750"/>
			<point x="477" y="772"/>
			<point x="494" y="772" type="qcurve"/>
			<point x="515" y="772"/>
			<point x="542" y="746"/>
			<point x="543" y="717" type="qcurve"/>
			<point x="544" y="669"/>
			<point x="528" y="556"/>
			<point x="514" y="505" type="qcurve"/>
			<point x="493" y="342" type="line"/>
			<point x="486" y="268"/>
			<point x="488" y="172"/>
			<point x="502" y="116"/>
			<point x="528" y="94"/>
			<point x="546" y="94" type="qcurve"/>
			<point x="564" y="94"/>
			<point x="596" y="99"/>
			<point x="623" y="106" type="qcurve"/>
			<point x="637" y="109"/>
			<point x="655" y="96"/>
			<point x="661" y="75"/>
			<point x="656" y="50"/>
			<point x="646" y="42" type="qcurve"/>
			<point x="599" y="1"/>
			<point x="534" y="1" type="qcurve"/>
			<point x="515" y="1"/>
			<point x="470" y="10"/>
			<point x="429" y="44"/>
			<point x="399" y="111"/>
			<point x="394" y="168" type="qcurve"/>
			<point x="378" y="125"/>
			<point x="331" y="63"/>
			<point x="275" y="24"/>
			<point x="215" y="5"/>
			<point x="185" y="5" type="qcurve"/>
			<point x="146" y="5"/>
			<point x="81" y="38"/>
			<point x="36" y="101"/>
			<point x="15" y="191"/>
			<point x="21" y="248" type="qcurve"/>
			<point x="28" y="311"/>
			<point x="77" y="404"/>
			<point x="146" y="464"/>
			<point x="225" y="493"/>
		</contour>
		<contour>
			<point x="340" y="240" type="qcurve"/>
			<point x="351" y="268"/>
			<point x="372" y="334"/>
			<point x="382" y="372" type="qcurve"/>
			<point x="358" y="384"/>
			<point x="302" y="399"/>
			<point x="272" y="399" type="qcurve"/>
			<point x="213" y="399"/>
			<point x="134" y="322"/>
			<point x="126" y="241" type="qcurve"/>
			<point x="119" y="176"/>
			<point x="150" y="100"/>
			<point x="193" y="100" type="qcurve"/>
			<point x="243" y="100"/>
			<point x="311" y="171"/>
		</contour>
	</outline>
	<anchor name="mark0" x="495" y="725"/>
	<anchor name="mark1" x="278" y="0"/>
	<anchor name="mark2" x="0" y="0"/>
</glyph>
<glyph name="e" format="2">
	<unicode hex="0065"/>
	<advance width="498"/>
	<outline>
		<contour>
			<point x="427" y="378" type="qcurve"/>
			<point x="424" y="331"/>
			<point x="376" y="262"/>
			<point x="299" y="219"/>
			<point x="199" y="203"/>
			<point x="143" y="209" type="qcurve"/>
			<point x="138" y="120"/>
			<point x="181" y="46"/>
			<point x="232" y="46" type="qcurve"/>
			<point x="275" y="46"/>
			<point x="355" y="84"/>
			<point x="393" y="113" type="qcurve"/>
			<point x="406" y="123"/>
			<point x="437" y="120"/>
			<point x="455" y="99"/>
			<point x="454" y="65"/>
			<point x="436" y="46" type="qcurve"/>
			<point x="397" y="4"/>
			<point x="285" y="-51"/>
			<point x="219" y="-51" type="qcurve"/>
			<point x="179" y="-51"/>
			<point x="108" y="-20"/>
			<point x="57" y="48"/>
			<point x="32" y="157"/>
			<point x="39" y="235" type="qcurve"/>
			<point x="46" y="313"/>
			<point x="93" y="425"/>
			<point x="161" y="497"/>
			<point x="242" y="531"/>
			<point x="283" y="531" type="qcurve"/>
			<point x="314" y="531"/>
			<point x="369" y="512"/>
			<point x="409" y="473"/>
			<point x="430" y="416"/>
		</contour>
		<contour>
			<point x="267" y="436" type="qcurve"/>
			<point x="222" y="436"/>
			<point x="165" y="352"/>
			<point x="152" y="287" type="qcurve"/>
			<point x="192" y="283"/>
			<point x="254" y="296"/>
			<point x="296" y="321"/>
			<point x="318" y="357"/>
			<point x="320" y="377" type="qcurve"/>
			<point x="325" y="436"/>
		</contour>
	</outline>
	<anchor name="mark0" x="275" y="500"/>
	<anchor name="mark1" x="222" y="-22"/>
	<anchor name="mark2" x="0" y="0"/>
</glyph>
<glyph name="g" format="2">
	<unicode hex="0067"/>
	<advance width="613"/>
	<outline>
		<contour>
			<point x="250" y="-27" type="qcurve"/>
			<point x="203" y="-27"/>
			<point x="124" y="15"/>
			<point x="71" y="91"/>
			<point x="50" y="198"/>
			<point x="60" y="263" type="qcurve"/>
			<point x="68" y="313"/>
			<point x="110" y="403"/>
			<point x="175" y="471"/>
			<point x="261" y="511"/>
			<point x="312" y="511" type="qcurve"/>
			<point x="368" y="511"/>
			<point x="465" y="466"/>
			<point x="497" y="434" type="qcurve"/>
			<point x="500" y="431"/>
			<point x="505" y="425"/>
			<point x="507" y="422" type="qcurve"/>
			<point x="512" y="422" type="line"/>
			<point x="530" y="422"/>
			<point x="563" y="397"/>
			<point x="562" y="368" type="qcurve"/>
			<point x="560" y="296"/>
			<point x="555" y="144"/>
			<point x="546" y="0"/>
			<point x="528" y="-126"/>
			<point x="512" y="-172" type="qcurve"/>
			<point x="500" y="-208"/>
			<point x="458" y="-270"/>
			<point x="401" y="-315"/>
			<point x="326" y="-341"/>
			<point x="281" y="-340" type="qcurve"/>
			<point x="257" y="-340"/>
			<point x="206" y="-330"/>
			<point x="159" y="-312"/>
			<point x="119" y="-285"/>
			<point x="106" y="-267" type="qcurve"/>
			<point x="94" y="-251"/>
			<point x="96" y="-222"/>
			<point x="114" y="-203"/>
			<point x="144" y="-199"/>
			<point x="159" y="-209" type="qcurve"/>
			<point x="183" y="-225"/>
			<point x="245" y="-246"/>
			<point x="277" y="-246" type="qcurve"/>
			<point x="375" y="-246"/>
			<point x="414" y="-140" type="qcurve"/>
			<point x="423" y="-116"/>
			<point x="434" y="-69"/>
			<point x="443" y="-15"/>
			<point x="450" y="51"/>
			<point x="453" y="95" type="qcurve"/>
			<point x="433" y="59"/>
			<point x="384" y="11"/>
			<point x="332" y="-16"/>
			<point x="277" y="-27"/>
		</contour>
		<contour>
			<point x="408" y="166" type="qcurve"/>
			<point x="427" y="198"/>
			<point x="452" y="286"/>
			<point x="461" y="354" type="qcurve"/>
			<point x="459" y="356" type="line"/>
			<point x="447" y="366"/>
			<point x="418" y="389"/>
			<point x="382" y="408"/>
			<point x="341" y="420"/>
			<point x="318" y="420" type="qcurve"/>
			<point x="286" y="420"/>
			<point x="234" y="392"/>
			<point x="195" y="344"/>
			<point x="170" y="281"/>
			<point x="166" y="247" type="qcurve"/>
			<point x="160" y="199"/>
			<point x="172" y="132"/>
			<point x="199" y="89"/>
			<point x="239" y="69"/>
			<point x="262" y="69" type="qcurve"/>
			<point x="302" y="69"/>
			<point x="376" y="110"/>
		</contour>
	</outline>
	<anchor name="mark0" x="320" y="500"/>
	<anchor name="mark1" x="280" y="-322"/>
	<anchor name="mark2" x="0" y="0"/>
</glyph>
<glyph name="k" format="2">
	<unicode hex="006B"/>
	<advance width="592"/>
	<outline>
		<contour>
			<point x="102" y="737" type="qcurve"/>
			<point x="104" y="754"/>
			<point x="132" y="783"/>
			<point x="153" y="783" type="qcurve"/>
			<point x="173" y="783"/>
			<point x="203" y="755"/>
			<point x="202" y="726" type="qcurve"/>
			<point x="202" y="709"/>
			<point x="199" y="656"/>
			<point x="195" y="589"/>
			<point x="190" y="511"/>
			<point x="187" y="469" type="qcurve"/>
			<point x="185" y="437"/>
			<point x="179" y="373"/>
			<point x="176" y="342" type="qcurve"/>
			<point x="183" y="359"/>
			<point x="199" y="391"/>
			<point x="208" y="406" type="qcurve"/>
			<point x="243" y="462"/>
			<point x="330" y="522"/>
			<point x="386" y="522" type="qcurve"/>
			<point x="414" y="522"/>
			<point x="460" y="502"/>
			<point x="492" y="462"/>
			<point x="507" y="403"/>
			<point x="504" y="365" type="qcurve"/>
			<point x="499" y="314"/>
			<point x="439" y="232"/>
			<point x="379" y="206" type="qcurve"/>
			<point x="400" y="182"/>
			<point x="441" y="144"/>
			<point x="484" y="114"/>
			<point x="531" y="90"/>
			<point x="559" y="80" type="qcurve"/>
			<point x="598" y="66"/>
			<point x="598" y="31" type="qcurve"/>
			<point x="598" y="14"/>
			<point x="570" y="-14"/>
			<point x="542" y="-14" type="qcurve"/>
			<point x="516" y="-14"/>
			<point x="443" y="16"/>
			<point x="409" y="43" type="qcurve"/>
			<point x="361" y="81"/>
			<point x="290" y="162"/>
			<point x="273" y="202" type="qcurve"/>
			<point x="263" y="223"/>
			<point x="285" y="261"/>
			<point x="310" y="266" type="qcurve"/>
			<point x="353" y="275"/>
			<point x="395" y="321"/>
			<point x="400" y="353" type="qcurve"/>
			<point x="404" y="380"/>
			<point x="390" y="427"/>
			<point x="366" y="427" type="qcurve"/>
			<point x="336" y="427"/>
			<point x="276" y="369"/>
			<point x="249" y="313" type="qcurve"/>
			<point x="227" y="265"/>
			<point x="194" y="137"/>
			<point x="181" y="58" type="qcurve"/>
			<point x="181" y="-19"/>
			<point x="130" y="-19" type="qcurve"/>
			<point x="101" y="-19"/>
			<point x="74" y="24"/>
			<point x="80" y="69" type="qcurve"/>
			<point x="78" y="101"/>
			<point x="75" y="162"/>
			<point x="75" y="194" type="qcurve"/>
			<point x="76" y="269"/>
			<point x="79" y="410"/>
			<point x="84" y="488" type="qcurve"/>
			<point x="86" y="528"/>
			<point x="90" y="593"/>
			<point x="95" y="651"/>
			<point x="99" y="707"/>
		</contour>
	</outline>
	<anchor name="mark0" x="165" y="745"/>
	<anchor name="mark1" x="300" y="0"/>
	<anchor name="mark2" x="0" y="0"/>
</glyph>
<glyph name="l" format="2">
	<unicode hex="006C"/>
	<advance width="293"/>
	<outline>
		<contour>
			<point x="94" y="740" type="qcurve"/>
			<point x="97" y="764"/>
			<point x="128" y="789"/>
			<point x="144" y="789" type="qcurve"/>
			<point x="163" y="789"/>
			<point x="196" y="762"/>
			<point x="194" y="730" type="qcurve"/>
			<point x="191" y="693"/>
			<point x="181" y="637"/>
			<point x="177" y="598" type="qcurve"/>
			<point x="167" y="510"/>
			<point x="159" y="356"/>
			<point x="159" y="299" type="qcurve"/>
			<point x="159" y="272"/>
			<point x="161" y="216"/>
			<point x="167" y="164"/>
			<point x="180" y="118"/>
			<point x="191" y="102" type="qcurve"/>
			<point x="209" y="76"/>
			<point x="238" y="60" type="qcurve"/>
			<point x="252" y="52"/>
			<point x="269" y="32"/>
			<point x="269" y="18" type="qcurve"/>
			<point x="269" y="-1"/>
			<point x="243" y="-20"/>
			<point x="223" y="-20" type="qcurve"/>
			<point x="194" y="-20"/>
			<point x="141" y="13"/>
			<point x="121" y="36" type="qcurve"/>
			<point x="97" y="64"/>
			<point x="71" y="133"/>
			<point x="66" y="168" type="qcurve"/>
			<point x="62" y="197"/>
			<point x="57" y="263"/>
			<point x="57" y="293" type="qcurve"/>
			<point x="57" y="383"/>
			<point x="73" y="557"/>
			<point x="80" y="623" type="qcurve"/>
			<point x="83" y="653"/>
			<point x="90" y="711"/>
		</contour>
	</outline>
	<anchor name="mark0" x="146" y="750"/>
	<anchor name="mark1" x="130" y="0"/>
	<anchor name="mark2" x="0" y="0"/>
</glyph>
<glyph name="m" format="2">
	<unicode hex="006D"/>
	<advance width="837"/>
	<outline>
		<contour>
			<point x="77" y="163" type="line"/>
			<point x="77" y="232"/>
			<point x="88" y="372"/>
			<point x="97" y="444" type="qcurve"/>
			<point x="100" y="471"/>
			<point x="129" y="499"/>
			<point x="149" y="499" type="qcurve"/>
			<point x="167" y="499"/>
			<point x="198" y="474"/>
			<point x="198" y="445" type="qcurve"/>
			<point x="197" y="428"/>
			<point x="194" y="389"/>
			<point x="191" y="368" type="qcurve"/>
			<point x="220" y="429"/>
			<point x="298" y="493"/>
			<point x="343" y="493" type="qcurve"/>
			<point x="365" y="493"/>
			<point x="405" y="475"/>
			<point x="433" y="436"/>
			<point x="448" y="375"/>
			<point x="447" y="332" type="qcurve"/>
			<point x="476" y="406"/>
			<point x="553" y="493"/>
			<point x="610" y="493" type="qcurve"/>
			<point x="670" y="493"/>
			<point x="719" y="394"/>
			<point x="715" y="312" type="qcurve"/>
			<point x="713" y="269"/>
			<point x="707" y="184"/>
			<point x="707" y="149" type="qcurve"/>
			<point x="707" y="140"/>
			<point x="708" y="119"/>
			<point x="713" y="100"/>
			<point x="724" y="85"/>
			<point x="734" y="82" type="qcurve"/>
			<point x="749" y="77"/>
			<point x="775" y="77"/>
			<point x="791" y="74" type="qcurve"/>
			<point x="819" y="69"/>
			<point x="819" y="43" type="qcurve"/>
			<point x="819" y="22"/>
			<point x="782" y="-5"/>
			<point x="744" y="-5" type="qcurve"/>
			<point x="704" y="-5"/>
			<point x="651" y="19"/>
			<point x="619" y="60"/>
			<point x="606" y="117"/>
			<point x="606" y="150" type="qcurve"/>
			<point x="606" y="185"/>
			<point x="612" y="252"/>
			<point x="615" y="299" type="qcurve"/>
			<point x="618" y="345"/>
			<point x="609" y="397"/>
			<point x="593" y="397" type="qcurve"/>
			<point x="577" y="397"/>
			<point x="543" y="353"/>
			<point x="508" y="277"/>
			<point x="474" y="172"/>
			<point x="457" y="111" type="qcurve"/>
			<point x="455" y="45"/>
			<point x="425" y="-15"/>
			<point x="392" y="-15" type="qcurve"/>
			<point x="368" y="-15"/>
			<point x="343" y="17"/>
			<point x="341" y="43" type="qcurve"/>
			<point x="339" y="73"/>
			<point x="348" y="140"/>
			<point x="354" y="173" type="qcurve"/>
			<point x="366" y="293"/>
			<point x="343" y="397"/>
			<point x="316" y="397" type="qcurve"/>
			<point x="294" y="397"/>
			<point x="256" y="349"/>
			<point x="223" y="273"/>
			<point x="195" y="175"/>
			<point x="184" y="126" type="qcurve"/>
			<point x="182" y="63"/>
			<point x="154" y="-4"/>
			<point x="116" y="-4" type="qcurve"/>
			<point x="70" y="-4"/>
			<point x="65" y="47" type="qcurve"/>
			<point x="62" y="76"/>
			<point x="67" y="105" type="qcurve"/>
		</contour>
	</outline>
	<anchor name="mark0" x="450" y="480"/>
	<anchor name="mark1" x="409" y="0"/>
	<anchor name="mark2" x="0" y="0"/>
</glyph>
<glyph name="n" format="2">
	<unicode hex="006E"/>
	<advance width="629"/>
	<outline>
		<contour>
			<point x="154" y="72" type="qcurve"/>
			<point x="155" y="22"/>
			<point x="118" y="-16"/>
			<point x="90" y="-16" type="qcurve"/>
			<point x="70" y="-16"/>
			<point x="38" y="16"/>
			<point x="42" y="54" type="qcurve"/>
			<point x="43" y="109"/>
			<point x="50" y="208"/>
			<point x="58" y="305"/>
			<point x="67" y="405"/>
			<point x="72" y="461" type="qcurve"/>
			<point x="74" y="483"/>
			<point x="100" y="510"/>
			<point x="123" y="510" type="qcurve"/>
			<point x="146" y="510"/>
			<point x="174" y="483"/>
			<point x="172" y="457" type="qcurve"/>
			<point x="169" y="414"/>
			<point x="158" y="338"/>
			<point x="150" y="300" type="qcurve"/>
			<point x="163" y="331"/>
			<point x="180" y="361" type="qcurve"/>
			<point x="219" y="432"/>
			<point x="328" y="506"/>
			<point x="392" y="506" type="qcurve"/>
			<point x="446" y="506"/>
			<point x="508" y="466"/>
			<point x="533" y="390"/>
			<point x="529" y="280"/>
			<point x="518" y="211" type="qcurve"/>
			<point x="512" y="176"/>
			<point x="504" y="120"/>
			<point x="505" y="80"/>
			<point x="517" y="59"/>
			<point x="531" y="59" type="qcurve"/>
			<point x="541" y="59"/>
			<point x="567" y="64"/>
			<point x="590" y="64"/>
			<point x="605" y="55"/>
			<point x="605" y="40" type="qcurve"/>
			<point x="605" y="25"/>
			<point x="589" y="1"/>
			<point x="562" y="-16"/>
			<point x="526" y="-25"/>
			<point x="507" y="-25" type="qcurve"/>
			<point x="464" y="-25"/>
			<point x="407" y="30"/>
			<point x="407" y="93" type="qcurve"/>
			<point x="407" y="122"/>
			<point x="417" y="194"/>
			<point x="422" y="236" type="qcurve"/>
			<point x="427" y="278"/>
			<point x="433" y="344"/>
			<point x="427" y="391"/>
			<point x="405" y="415"/>
			<point x="381" y="415" type="qcurve"/>
			<point x="343" y="415"/>
			<point x="278" y="365"/>
			<point x="246" y="317" type="qcurve"/>
			<point x="215" y="271"/>
			<point x="169" y="145"/>
		</contour>
	</outline>
	<anchor name="mark0" x="330" y="500"/>
	<anchor name="mark1" x="281" y="0"/>
	<anchor name="mark2" x="0" y="0"/>
</glyph>
<glyph name="r" format="2">
	<unicode hex="0072"/>
	<advance width="452"/>
	<outline>
		<contour>
			<point x="67" y="464" type="qcurve"/>
			<point x="64" y="492"/>
			<point x="92" y="523"/>
			<point x="113" y="523" type="qcurve"/>
			<point x="132" y="523"/>
			<point x="160" y="502"/>
			<point x="165" y="479" type="qcurve"/>
			<point x="170" y="456"/>
			<point x="172" y="406"/>
			<point x="170" y="379" type="qcurve"/>
			<point x="197" y="442"/>
			<point x="285" y="518"/>
			<point x="345" y="518" type="qcurve"/>
			<point x="368" y="518"/>
			<point x="411" y="506"/>
			<point x="428" y="496" type="qcurve"/>
			<point x="448" y="485"/>
			<point x="465" y="456"/>
			<point x="465" y="443" type="qcurve"/>
			<point x="465" y="426"/>
			<point x="445" y="396"/>
			<point x="422" y="396" type="qcurve"/>
			<point x="412" y="396"/>
			<point x="393" y="404"/>
			<point x="373" y="413"/>
			<point x="352" y="421"/>
			<point x="340" y="421" type="qcurve"/>
			<point x="286" y="421"/>
			<point x="200" y="298"/>
			<point x="174" y="182" type="qcurve"/>
			<point x="174" y="140"/>
			<point x="173" y="59"/>
			<point x="167" y="22" type="qcurve"/>
			<point x="163" y="-3"/>
			<point x="133" y="-28"/>
			<point x="116" y="-28" type="qcurve"/>
			<point x="93" y="-28"/>
			<point x="63" y="3"/>
			<point x="65" y="45" type="qcurve"/>
			<point x="69" y="105"/>
			<point x="75" y="197"/>
			<point x="77" y="236" type="qcurve"/>
			<point x="79" y="275"/>
			<point x="78" y="339"/>
			<point x="74" y="393"/>
			<point x="69" y="441"/>
		</contour>
	</outline>
	<anchor name="mark0" x="279" y="500"/>
	<anchor name="mark1" x="113" y="0"/>
	<anchor name="mark2" x="0" y="0"/>
</glyph>
<glyph name="s" format="2">
	<unicode hex="0073"/>
	<advance width="395"/>
	<outline>
		<contour>
			<point x="333" y="476" type="qcurve"/>
			<point x="347" y="458"/>
			<point x="345" y="428"/>
			<point x="327" y="409"/>
			<point x="299" y="404"/>
			<point x="286" y="412" type="qcurve"/>
			<point x="260" y="427"/>
			<point x="237" y="427" type="qcurve"/>
			<point x="220" y="427"/>
			<point x="195" y="409"/>
			<point x="193" y="389" type="qcurve"/>
			<point x="191" y="367"/>
			<point x="221" y="341"/>
			<point x="245" y="325" type="qcurve"/>
			<point x="266" y="311"/>
			<point x="301" y="279"/>
			<point x="326" y="239"/>
			<point x="337" y="188"/>
			<point x="333" y="157" type="qcurve"/>
			<point x="327" y="109"/>
			<point x="266" y="41"/>
			<point x="224" y="21" type="qcurve"/>
			<point x="201" y="10"/>
			<point x="151" y="-3"/>
			<point x="103" y="-9"/>
			<point x="61" y="-11"/>
			<point x="46" y="-11" type="qcurve"/>
			<point x="21" y="-11"/>
			<point x="-11" y="10"/>
			<point x="-11" y="31" type="qcurve"/>
			<point x="-11" y="50"/>
			<point x="17" y="76"/>
			<point x="50" y="77" type="qcurve"/>
			<point x="82" y="79"/>
			<point x="149" y="86"/>
			<point x="174" y="97" type="qcurve"/>
			<point x="228" y="122"/>
			<point x="231" y="167" type="qcurve"/>
			<point x="233" y="195"/>
			<point x="197" y="233"/>
			<point x="172" y="251" type="qcurve"/>
			<point x="136" y="277"/>
			<point x="90" y="345"/>
			<point x="96" y="399" type="qcurve"/>
			<point x="99" y="426"/>
			<point x="124" y="471"/>
			<point x="161" y="504"/>
			<point x="209" y="523"/>
			<point x="235" y="523" type="qcurve"/>
			<point x="265" y="523"/>
			<point x="316" y="498"/>
		</contour>
	</outline>
	<anchor name="mark0" x="237" y="500"/>
	<anchor name="mark1" x="156" y="0"/>
	<anchor name="mark2" x="0" y="0"/>
</glyph>
<glyph name="t" format="2">
	<unicode hex="0074"/>
	<advance width="429"/>
	<outline>
		<contour>
			<point x="393" y="519" type="qcurve"/>
			<point x="424" y="519"/>
			<point x="452" y="492"/>
			<point x="452" y="476" type="qcurve"/>
			<point x="452" y="457"/>
			<point x="425" y="428"/>
			<point x="398" y="426" type="qcurve"/>
			<point x="360" y="424"/>
			<point x="294" y="418"/>
			<point x="263" y="415" type="qcurve"/>
			<point x="260" y="361"/>
			<point x="257" y="260"/>
			<point x="257" y="216" type="qcurve"/>
			<point x="257" y="183"/>
			<point x="262" y="135"/>
			<point x="272" y="99"/>
			<point x="287" y="72"/>
			<point x="296" y="60" type="qcurve"/>
			<point x="307" y="46"/>
			<point x="309" y="18"/>
			<point x="298" y="-5"/>
			<point x="276" y="-19"/>
			<point x="262" y="-19" type="qcurve"/>
			<point x="245" y="-19"/>
			<point x="218" y="-3"/>
			<point x="207" y="11" type="qcurve"/>
			<point x="198" y="21"/>
			<point x="180" y="53"/>
			<point x="165" y="102"/>
			<point x="156" y="172"/>
			<point x="156" y="220" type="qcurve"/>
			<point x="156" y="260"/>
			<point x="159" y="354"/>
			<point x="162" y="403" type="qcurve"/>
			<point x="142" y="401"/>
			<point x="103" y="395"/>
			<point x="83" y="392" type="qcurve"/>
			<point x="59" y="388"/>
			<point x="28" y="395"/>
			<point x="12" y="410"/>
			<point x="6" y="429"/>
			<point x="6" y="437" type="qcurve"/>
			<point x="6" y="453"/>
			<point x="28" y="483"/>
			<point x="57" y="488" type="qcurve"/>
			<point x="86" y="493"/>
			<point x="140" y="502"/>
			<point x="168" y="505" type="qcurve"/>
			<point x="174" y="606" type="line"/>
			<point x="176" y="635"/>
			<point x="206" y="664"/>
			<point x="226" y="664" type="qcurve"/>
			<point x="234" y="664"/>
			<point x="252" y="658"/>
			<point x="266" y="646"/>
			<point x="275" y="627"/>
			<point x="274" y="614" type="qcurve"/>
			<point x="268" y="515" type="line"/>
			<point x="297" y="517"/>
			<point x="359" y="518"/>
		</contour>
	</outline>
	<anchor name="mark0" x="229" y="750"/>
	<anchor name="mark1" x="205" y="0"/>
	<anchor name="mark2" x="0" y="0"/>
</glyph>
<glyph name="v" format="2">
	<unicode hex="0076"/>
	<advance width="596"/>
	<outline>
		<contour>
			<point x="68" y="530" type="qcurve"/>
			<point x="96" y="530"/>
			<point x="117" y="492"/>
			<point x="122" y="465" type="qcurve"/>
			<point x="142" y="367"/>
			<point x="190" y="184"/>
			<point x="207" y="115" type="qcurve"/>
			<point x="238" y="169"/>
			<point x="306" y="273"/>
			<point x="374" y="369"/>
			<point x="439" y="453"/>
			<point x="468" y="486" type="qcurve"/>
			<point x="482" y="503"/>
			<point x="514" y="526"/>
			<point x="533" y="526" type="qcurve"/>
			<point x="545" y="526"/>
			<point x="567" y="511"/>
			<point x="578" y="486"/>
			<point x="574" y="454"/>
			<point x="559" y="436" type="qcurve"/>
			<point x="474" y="335"/>
			<point x="322" y="134"/>
			<point x="272" y="47" type="qcurve"/>
			<point x="265" y="35"/>
			<point x="248" y="11"/>
			<point x="228" y="-10"/>
			<point x="203" y="-23"/>
			<point x="189" y="-23" type="qcurve"/>
			<point x="164" y="-23"/>
			<point x="134" y="6"/>
			<point x="127" y="43" type="qcurve"/>
			<point x="103" y="124"/>
			<point x="48" y="324"/>
			<point x="22" y="442" type="qcurve"/>
			<point x="13" y="483"/>
			<point x="39" y="530"/>
		</contour>
	</outline>
	<anchor name="mark0" x="300" y="500"/>
	<anchor name="mark1" x="192" y="0"/>
	<anchor name="mark2" x="0" y="0"/>
</glyph>
<glyph name="y" format="2">
	<unicode hex="0079"/>
	<advance width="597"/>
	<outline>
		<contour>
			<point x="202" y="57" type="qcurve"/>
			<point x="151" y="57"/>
			<point x="87" y="122"/>
			<point x="71" y="173" type="qcurve"/>
			<point x="62" y="204"/>
			<point x="52" y="274"/>
			<point x="48" y="348"/>
			<point x="48" y="420"/>
			<point x="50" y="452" type="qcurve"/>
			<point x="52" y="481"/>
			<point x="81" y="510"/>
			<point x="102" y="510" type="qcurve"/>
			<point x="125" y="510"/>
			<point x="154" y="481"/>
			<point x="153" y="446" type="qcurve"/>
			<point x="152" y="399"/>
			<point x="152" y="326"/>
			<point x="155" y="267"/>
			<point x="162" y="219"/>
			<point x="168" y="198" type="qcurve"/>
			<point x="175" y="173"/>
			<point x="196" y="152"/>
			<point x="211" y="152" type="qcurve"/>
			<point x="230" y="152"/>
			<point x="277" y="181"/>
			<point x="328" y="233"/>
			<point x="381" y="308"/>
			<point x="407" y="354" type="qcurve"/>
			<point x="413" y="378"/>
			<point x="426" y="435"/>
			<point x="445" y="484"/>
			<point x="475" y="516"/>
			<point x="498" y="516" type="qcurve"/>
			<point x="525" y="516"/>
			<point x="554" y="469"/>
			<point x="543" y="422" type="qcurve"/>
			<point x="531" y="367"/>
			<point x="496" y="259"/>
			<point x="456" y="159"/>
			<point x="411" y="69"/>
			<point x="390" y="32" type="qcurve"/>
			<point x="351" y="-36"/>
			<point x="284" y="-144"/>
			<point x="245" y="-185" type="qcurve"/>
			<point x="210" y="-221"/>
			<point x="128" y="-267"/>
			<point x="94" y="-267" type="qcurve"/>
			<point x="68" y="-267"/>
			<point x="42" y="-243"/>
			<point x="42" y="-225" type="qcurve"/>
			<point x="42" y="-196"/>
			<point x="78" y="-179" type="qcurve"/>
			<point x="102" y="-168"/>
			<point x="138" y="-149"/>
			<point x="158" y="-132" type="qcurve"/>
			<point x="169" y="-123"/>
			<point x="188" y="-103"/>
			<point x="207" y="-79"/>
			<point x="229" y="-47"/>
			<point x="243" y="-25" type="qcurve"/>
			<point x="263" y="7"/>
			<point x="312" y="91"/>
			<point x="340" y="142" type="qcurve"/>
			<point x="307" y="103"/>
			<point x="240" y="57"/>
		</contour>
	</outline>
	<anchor name="mark0" x="280" y="500"/>
	<anchor name="mark1" x="246" y="-235"/>
	<anchor name="mark2" x="0" y="0"/>
</glyph>
<glyph name="z" format="2">
	<unicode hex="007A"/>
	<advance width="621"/>
	<outline>
		<contour>
			<point x="231" y="277" type="qcurve"/>
			<point x="272" y="319"/>
			<point x="345" y="391"/>
			<point x="383" y="427" type="qcurve"/>
			<point x="314" y="425"/>
			<point x="182" y="428"/>
			<point x="123" y="431" type="qcurve"/>
			<point x="97" y="433"/>
			<point x="67" y="460"/>
			<point x="67" y="480" type="qcurve"/>
			<point x="67" y="501"/>
			<point x="95" y="528"/>
			<point x="118" y="528" type="qcurve"/>
			<point x="200" y="527"/>
			<point x="381" y="521"/>
			<point x="477" y="516" type="qcurve"/>
			<point x="499" y="515"/>
			<point x="527" y="489"/>
			<point x="527" y="466" type="qcurve"/>
			<point x="527" y="435"/>
			<point x="495" y="411" type="qcurve"/>
			<point x="444" y="354"/>
			<point x="351" y="258"/>
			<point x="308" y="214" type="qcurve"/>
			<point x="236" y="142" type="line"/>
			<point x="202" y="108"/>
			<point x="173" y="78" type="qcurve"/>
			<point x="212" y="80"/>
			<point x="303" y="82"/>
			<point x="351" y="84" type="qcurve"/>
			<point x="524" y="87" type="line"/>
			<point x="551" y="87"/>
			<point x="579" y="63"/>
			<point x="579" y="43" type="qcurve"/>
			<point x="579" y="20"/>
			<point x="543" y="-8"/>
			<point x="504" y="-10" type="qcurve"/>
			<point x="396" y="-15"/>
			<point x="196" y="-13"/>
			<point x="123" y="-10" type="qcurve"/>
			<point x="109" y="-9"/>
			<point x="80" y="-4"/>
			<point x="57" y="8"/>
			<point x="43" y="28"/>
			<point x="43" y="43" type="qcurve"/>
			<point x="43" y="60"/>
			<point x="57" y="84"/>
			<point x="68" y="92" type="qcurve"/>
			<point x="88" y="115"/>
			<point x="167" y="211"/>
		</contour>
	</outline>
	<anchor name="mark0" x="290" y="500"/>
	<anchor name="mark1" x="290" y="0"/>
	<anchor name="mark2" x="0" y="0"/>
</glyph>
<glyph name="braceleft" format="2">
	<unicode hex="007B"/>
	<advance width="450"/>
	<outline>
		<contour>
			<point x="314" y="762" type="qcurve"/>
			<point x="340" y="760"/>
			<point x="368" y="730"/>
			<point x="368" y="713" type="qcurve"/>
			<point x="368" y="699"/>
			<point x="350" y="671"/>
			<point x="330" y="663" type="qcurve"/>
			<point x="320" y="662"/>
			<point x="306" y="661"/>
			<point x="295" y="659"/>
			<point x="284" y="654"/>
			<point x="276" y="648" type="qcurve"/>
			<point x="264" y="639"/>
			<point x="242" y="611"/>
			<point x="225" y="577"/>
			<point x="216" y="540"/>
			<point x="216" y="522" type="qcurve"/>
			<point x="216" y="505"/>
			<point x="231" y="471"/>
			<point x="250" y="437"/>
			<point x="265" y="402"/>
			<point x="265" y="383" type="qcurve"/>
			<point x="265" y="357"/>
			<point x="230" y="314"/>
			<point x="208" y="300" type="qcurve"/>
			<point x="219" y="288"/>
			<point x="236" y="258"/>
			<point x="236" y="241" type="qcurve"/>
			<point x="236" y="223"/>
			<point x="229" y="193"/>
			<point x="225" y="178" type="qcurve"/>
			<point x="215" y="140"/>
			<point x="199" y="84"/>
			<point x="199" y="53" type="qcurve"/>
			<point x="199" y="19"/>
			<point x="215" y="-26" type="qcurve"/>
			<point x="223" y="-49"/>
			<point x="245" y="-67"/>
			<point x="268" y="-72" type="qcurve"/>
			<point x="288" y="-80"/>
			<point x="306" y="-107"/>
			<point x="306" y="-121" type="qcurve"/>
			<point x="306" y="-139"/>
			<point x="278" y="-168"/>
			<point x="252" y="-170" type="qcurve"/>
			<point x="240" y="-168"/>
			<point x="216" y="-165"/>
			<point x="205" y="-160" type="qcurve"/>
			<point x="173" y="-147"/>
			<point x="133" y="-93"/>
			<point x="109" y="-28"/>
			<point x="100" y="40"/>
			<point x="100" y="69" type="qcurve"/>
			<point x="100" y="111"/>
			<point x="121" y="189"/>
			<point x="135" y="230" type="qcurve"/>
			<point x="123" y="236"/>
			<point x="95" y="249"/>
			<point x="72" y="265"/>
			<point x="57" y="288"/>
			<point x="57" y="305" type="qcurve"/>
			<point x="57" y="321"/>
			<point x="75" y="342"/>
			<point x="102" y="358"/>
			<point x="135" y="372"/>
			<point x="149" y="382" type="qcurve"/>
			<point x="159" y="389" type="line"/>
			<point x="150" y="405"/>
			<point x="135" y="434"/>
			<point x="125" y="463"/>
			<point x="119" y="496"/>
			<point x="119" y="516" type="qcurve"/>
			<point x="119" y="562"/>
			<point x="143" y="646"/>
			<point x="191" y="711"/>
			<point x="264" y="755"/>
		</contour>
	</outline>
</glyph>
<glyph name="bar" format="2">
	<unicode hex="007C"/>
	<advance width="329"/>
	<outline>
		<contour>
			<point x="146" y="694" type="qcurve"/>
			<point x="147" y="714"/>
			<point x="176" y="741"/>
			<point x="197" y="741" type="qcurve"/>
			<point x="214" y="741"/>
			<point x="246" y="716"/>
			<point x="246" y="691" type="qcurve"/>
			<point x="246" y="637"/>
			<point x="226" y="533"/>
			<point x="223" y="479" type="qcurve"/>
			<point x="214" y="314"/>
			<point x="211" y="-12"/>
			<point x="211" y="-177" type="qcurve"/>
			<point x="211" y="-202"/>
			<point x="177" y="-227"/>
			<point x="160" y="-227" type="qcurve"/>
			<point x="141" y="-227"/>
			<point x="111" y="-198"/>
			<point x="111" y="-169" type="qcurve"/>
			<point x="111" y="-23" type="line"/>
			<point x="111" y="105"/>
			<point x="115" y="359"/>
			<point x="123" y="487" type="qcurve"/>
			<point x="127" y="547"/>
			<point x="144" y="646"/>
		</contour>
	</outline>
</glyph>
<glyph name="braceright" format="2">
	<unicode hex="007D"/>
	<advance width="422"/>
	<outline>
		<contour>
			<point x="111" y="644" type="qcurve"/>
			<point x="87" y="649"/>
			<point x="65" y="676"/>
			<point x="65" y="695" type="qcurve"/>
			<point x="65" y="715"/>
			<point x="93" y="742"/>
			<point x="119" y="742" type="qcurve"/>
			<point x="161" y="742"/>
			<point x="233" y="708"/>
			<point x="286" y="647"/>
			<point x="317" y="563"/>
			<point x="317" y="514" type="qcurve"/>
			<point x="317" y="488"/>
			<point x="306" y="432"/>
			<point x="293" y="408" type="qcurve"/>
			<point x="288" y="398"/>
			<point x="278" y="380"/>
			<point x="274" y="370" type="qcurve"/>
			<point x="294" y="366" type="line"/>
			<point x="310" y="363"/>
			<point x="339" y="354"/>
			<point x="361" y="340"/>
			<point x="373" y="319"/>
			<point x="373" y="303" type="qcurve"/>
			<point x="373" y="281"/>
			<point x="336" y="251"/>
			<point x="295" y="241" type="qcurve"/>
			<point x="302" y="218"/>
			<point x="320" y="178"/>
			<point x="336" y="139"/>
			<point x="347" y="97"/>
			<point x="347" y="73" type="qcurve"/>
			<point x="347" y="48"/>
			<point x="335" y="-7"/>
			<point x="312" y="-58"/>
			<point x="279" y="-101"/>
			<point x="258" y="-114" type="qcurve"/>
			<point x="247" y="-122"/>
			<point x="214" y="-136"/>
			<point x="202" y="-141" type="qcurve"/>
			<point x="186" y="-147"/>
			<point x="150" y="-158"/>
			<point x="133" y="-158" type="qcurve"/>
			<point x="114" y="-158"/>
			<point x="87" y="-131"/>
			<point x="87" y="-109" type="qcurve"/>
			<point x="87" y="-83"/>
			<point x="124" y="-59"/>
			<point x="150" y="-55" type="qcurve"/>
			<point x="173" y="-52"/>
			<point x="210" y="-26"/>
			<point x="235" y="12"/>
			<point x="249" y="56"/>
			<point x="249" y="77" type="qcurve"/>
			<point x="249" y="98"/>
			<point x="231" y="142"/>
			<point x="210" y="186"/>
			<point x="193" y="231"/>
			<point x="193" y="254" type="qcurve"/>
			<point x="193" y="274"/>
			<point x="202" y="292" type="qcurve"/>
			<point x="186" y="303"/>
			<point x="168" y="340"/>
			<point x="168" y="357" type="qcurve"/>
			<point x="168" y="371"/>
			<point x="178" y="397"/>
			<point x="191" y="421"/>
			<point x="205" y="447"/>
			<point x="208" y="461" type="qcurve"/>
			<point x="212" y="478"/>
			<point x="216" y="507"/>
			<point x="216" y="522" type="qcurve"/>
			<point x="216" y="552"/>
			<point x="193" y="611"/>
			<point x="166" y="629" type="qcurve"/>
			<point x="151" y="639"/>
			<point x="130" y="640"/>
		</contour>
	</outline>
</glyph>
<glyph name="exclamdown" format="2">
	<unicode hex="00A1"/>
	<advance width="389"/>
	<outline>
		<contour>
			<point x="204" y="-245" type="qcurve"/>
			<point x="200" y="-271"/>
			<point x="170" y="-295"/>
			<point x="153" y="-295" type="qcurve"/>
			<point x="134" y="-295"/>
			<point x="104" y="-266"/>
			<point x="104" y="-237" type="qcurve"/>
			<point x="104" y="-117"/>
			<point x="124" y="119"/>
			<point x="126" y="239" type="qcurve"/>
			<point x="134" y="260"/>
			<point x="162" y="281"/>
			<point x="177" y="281" type="qcurve"/>
			<point x="194" y="281"/>
			<point x="222" y="256"/>
			<point x="226" y="231" type="qcurve"/>
			<point x="224" y="111"/>
			<point x="206" y="-125"/>
		</contour>
		<contour>
			<point x="243" y="527" type="qcurve"/>
			<point x="246" y="510"/>
			<point x="252" y="492"/>
			<point x="258" y="481"/>
			<point x="262" y="472"/>
			<point x="262" y="465" type="qcurve"/>
			<point x="262" y="449"/>
			<point x="248" y="421"/>
			<point x="226" y="400"/>
			<point x="196" y="388"/>
			<point x="181" y="388" type="qcurve"/>
			<point x="163" y="388"/>
			<point x="138" y="400"/>
			<point x="121" y="420"/>
			<point x="114" y="443"/>
			<point x="114" y="455" type="qcurve"/>
			<point x="114" y="473"/>
			<point x="127" y="511"/>
			<point x="149" y="543"/>
			<point x="178" y="563"/>
			<point x="195" y="563" type="qcurve"/>
			<point x="199" y="563"/>
			<point x="216" y="558"/>
			<point x="231" y="549"/>
			<point x="243" y="536"/>
		</contour>
	</outline>
</glyph>
<glyph name="sterling" format="2">
	<unicode hex="00A3"/>
	<advance width="680"/>
	<outline>
		<contour>
			<point x="63" y="296" type="line"/>
			<point x="40" y="301"/>
			<point x="19" y="330"/>
			<point x="19" y="346" type="qcurve"/>
			<point x="19" y="362"/>
			<point x="40" y="390"/>
			<point x="63" y="396" type="qcurve"/>
			<point x="85" y="394"/>
			<point x="137" y="393"/>
			<point x="166" y="391" type="qcurve"/>
			<point x="171" y="411"/>
			<point x="180" y="451"/>
			<point x="185" y="471" type="qcurve"/>
			<point x="194" y="511"/>
			<point x="208" y="595"/>
			<point x="230" y="631" type="qcurve"/>
			<point x="252" y="668"/>
			<point x="325" y="701"/>
			<point x="366" y="701" type="qcurve"/>
			<point x="390" y="701"/>
			<point x="443" y="688"/>
			<point x="489" y="664"/>
			<point x="519" y="631"/>
			<point x="519" y="610" type="qcurve"/>
			<point x="519" y="591"/>
			<point x="492" y="564"/>
			<point x="472" y="564" type="qcurve"/>
			<point x="461" y="564"/>
			<point x="437" y="576"/>
			<point x="412" y="591"/>
			<point x="382" y="603"/>
			<point x="365" y="603" type="qcurve"/>
			<point x="350" y="603"/>
			<point x="324" y="592"/>
			<point x="315" y="578" type="qcurve"/>
			<point x="309" y="570"/>
			<point x="296" y="524"/>
			<point x="283" y="466"/>
			<point x="271" y="406"/>
			<point x="267" y="384" type="qcurve"/>
			<point x="301" y="381"/>
			<point x="363" y="371"/>
			<point x="411" y="355"/>
			<point x="439" y="329"/>
			<point x="439" y="309" type="qcurve"/>
			<point x="439" y="291"/>
			<point x="411" y="262"/>
			<point x="388" y="262" type="qcurve"/>
			<point x="379" y="262"/>
			<point x="369" y="265" type="qcurve"/>
			<point x="345" y="273"/>
			<point x="279" y="283"/>
			<point x="242" y="287" type="qcurve"/>
			<point x="228" y="239"/>
			<point x="195" y="146"/>
			<point x="178" y="98" type="qcurve"/>
			<point x="252" y="98" type="line"/>
			<point x="327" y="98"/>
			<point x="476" y="100"/>
			<point x="551" y="105" type="qcurve"/>
			<point x="551" y="139"/>
			<point x="581" y="165"/>
			<point x="600" y="165" type="qcurve"/>
			<point x="619" y="165"/>
			<point x="649" y="140"/>
			<point x="649" y="115" type="qcurve"/>
			<point x="649" y="79"/>
			<point x="638" y="37"/>
			<point x="610" y="14"/>
			<point x="563" y="5"/>
			<point x="526" y="3" type="qcurve"/>
			<point x="482" y="1"/>
			<point x="404" y="0"/>
			<point x="340" y="-2"/>
			<point x="317" y="-2" type="qcurve"/>
			<point x="286" y="-2" type="line"/>
			<point x="248" y="-2"/>
			<point x="169" y="-4"/>
			<point x="123" y="-4" type="qcurve"/>
			<point x="89" y="-4"/>
			<point x="58" y="29"/>
			<point x="58" y="56" type="qcurve"/>
			<point x="77" y="116"/>
			<point x="122" y="233"/>
			<point x="140" y="293" type="qcurve"/>
		</contour>
	</outline>
</glyph>
<glyph name="currency" format="2">
	<unicode hex="00A4"/>
	<advance width="558"/>
	<outline>
		<contour>
			<point x="401" y="519" type="qcurve"/>
			<point x="446" y="557"/>
			<point x="553" y="614"/>
			<point x="613" y="622" type="qcurve"/>
			<point x="639" y="620"/>
			<point x="667" y="590"/>
			<point x="667" y="573" type="qcurve"/>
			<point x="667" y="559"/>
			<point x="649" y="531"/>
			<point x="629" y="523" type="qcurve"/>
			<point x="584" y="517"/>
			<point x="503" y="473"/>
			<point x="467" y="444" type="qcurve"/>
			<point x="484" y="401"/>
			<point x="484" y="348" type="qcurve"/>
			<point x="484" y="314"/>
			<point x="470" y="247"/>
			<point x="456" y="218" type="qcurve"/>
			<point x="477" y="196"/>
			<point x="520" y="129"/>
			<point x="536" y="79" type="qcurve"/>
			<point x="539" y="68"/>
			<point x="539" y="59" type="qcurve"/>
			<point x="539" y="39"/>
			<point x="513" y="13"/>
			<point x="494" y="13" type="qcurve"/>
			<point x="477" y="13"/>
			<point x="453" y="33"/>
			<point x="432" y="64"/>
			<point x="414" y="99"/>
			<point x="405" y="114" type="qcurve"/>
			<point x="384" y="148" type="line"/>
			<point x="365" y="133"/>
			<point x="323" y="116"/>
			<point x="299" y="116" type="qcurve"/>
			<point x="283" y="116"/>
			<point x="231" y="121"/>
			<point x="211" y="131" type="qcurve"/>
			<point x="199" y="124"/>
			<point x="182" y="122" type="qcurve"/>
			<point x="165" y="121"/>
			<point x="142" y="105"/>
			<point x="124" y="87"/>
			<point x="106" y="72"/>
			<point x="93" y="72" type="qcurve"/>
			<point x="70" y="72"/>
			<point x="46" y="104"/>
			<point x="46" y="124" type="qcurve"/>
			<point x="46" y="149"/>
			<point x="86" y="193"/>
			<point x="109" y="204" type="qcurve"/>
			<point x="89" y="230"/>
			<point x="70" y="290"/>
			<point x="70" y="322" type="qcurve"/>
			<point x="70" y="360"/>
			<point x="95" y="437"/>
			<point x="118" y="469" type="qcurve"/>
			<point x="116" y="472"/>
			<point x="113" y="478"/>
			<point x="112" y="482" type="qcurve"/>
			<point x="109" y="500"/>
			<point x="80" y="526"/>
			<point x="48" y="549"/>
			<point x="22" y="575"/>
			<point x="22" y="594" type="qcurve"/>
			<point x="22" y="612"/>
			<point x="49" y="640"/>
			<point x="71" y="640" type="qcurve"/>
			<point x="85" y="640"/>
			<point x="121" y="621"/>
			<point x="157" y="591"/>
			<point x="188" y="555"/>
			<point x="197" y="538" type="qcurve"/>
			<point x="220" y="549"/>
			<point x="258" y="557"/>
			<point x="274" y="557" type="qcurve"/>
			<point x="300" y="557"/>
			<point x="349" y="548"/>
			<point x="378" y="534" type="qcurve"/>
			<point x="392" y="528"/>
		</contour>
		<contour>
			<point x="358" y="417" type="qcurve"/>
			<point x="339" y="428"/>
			<point x="333" y="444" type="qcurve"/>
			<point x="317" y="449"/>
			<point x="293" y="457"/>
			<point x="280" y="457" type="qcurve"/>
			<point x="254" y="457"/>
			<point x="215" y="433"/>
			<point x="187" y="397"/>
			<point x="173" y="353"/>
			<point x="173" y="334" type="qcurve"/>
			<point x="173" y="313"/>
			<point x="187" y="272"/>
			<point x="216" y="239"/>
			<point x="258" y="219"/>
			<point x="286" y="219" type="qcurve"/>
			<point x="311" y="219"/>
			<point x="350" y="243"/>
			<point x="375" y="280"/>
			<point x="388" y="325"/>
			<point x="388" y="347" type="qcurve"/>
			<point x="388" y="371"/>
			<point x="372" y="409"/>
		</contour>
	</outline>
</glyph>
<glyph name="yen" format="2">
	<unicode hex="00A5"/>
	<advance width="661"/>
	<outline>
		<contour>
			<point x="132" y="125" type="qcurve"/>
			<point x="109" y="130"/>
			<point x="88" y="159"/>
			<point x="88" y="175" type="qcurve"/>
			<point x="88" y="191"/>
			<point x="109" y="219"/>
			<point x="132" y="225" type="qcurve"/>
			<point x="154" y="227"/>
			<point x="198" y="239"/>
			<point x="241" y="254"/>
			<point x="284" y="269"/>
			<point x="307" y="274" type="qcurve"/>
			<point x="319" y="276"/>
			<point x="344" y="280"/>
			<point x="357" y="282" type="qcurve"/>
			<point x="377" y="342"/>
			<point x="425" y="449"/>
			<point x="445" y="502" type="qcurve"/>
			<point x="397" y="471"/>
			<point x="289" y="427"/>
			<point x="236" y="427" type="qcurve"/>
			<point x="191" y="427"/>
			<point x="112" y="468"/>
			<point x="82" y="519" type="qcurve"/>
			<point x="56" y="564"/>
			<point x="37" y="667"/>
			<point x="35" y="718" type="qcurve"/>
			<point x="35" y="747"/>
			<point x="65" y="776"/>
			<point x="84" y="776" type="qcurve"/>
			<point x="101" y="776"/>
			<point x="131" y="752"/>
			<point x="135" y="726" type="qcurve"/>
			<point x="136" y="702"/>
			<point x="142" y="633"/>
			<point x="162" y="570"/>
			<point x="203" y="525"/>
			<point x="238" y="525" type="qcurve"/>
			<point x="267" y="525"/>
			<point x="337" y="554"/>
			<point x="405" y="595"/>
			<point x="461" y="641"/>
			<point x="475" y="658" type="qcurve"/>
			<point x="486" y="672"/>
			<point x="497" y="703"/>
			<point x="500" y="723" type="qcurve"/>
			<point x="503" y="742"/>
			<point x="530" y="762"/>
			<point x="547" y="762" type="qcurve"/>
			<point x="564" y="762"/>
			<point x="595" y="737"/>
			<point x="595" y="711" type="qcurve"/>
			<point x="595" y="663"/>
			<point x="570" y="559"/>
			<point x="533" y="452"/>
			<point x="487" y="344"/>
			<point x="466" y="292" type="qcurve"/>
			<point x="490" y="293"/>
			<point x="537" y="294"/>
			<point x="561" y="294" type="qcurve"/>
			<point x="588" y="291"/>
			<point x="615" y="261"/>
			<point x="615" y="244" type="qcurve"/>
			<point x="615" y="227"/>
			<point x="588" y="196"/>
			<point x="561" y="194" type="qcurve"/>
			<point x="530" y="194"/>
			<point x="467" y="193"/>
			<point x="435" y="191" type="qcurve"/>
			<point x="430" y="171"/>
			<point x="420" y="129"/>
			<point x="413" y="108" type="qcurve"/>
			<point x="431" y="109"/>
			<point x="473" y="113"/>
			<point x="511" y="115"/>
			<point x="543" y="117"/>
			<point x="551" y="117" type="qcurve"/>
			<point x="582" y="117"/>
			<point x="608" y="84"/>
			<point x="608" y="67" type="qcurve"/>
			<point x="608" y="50"/>
			<point x="581" y="19"/>
			<point x="554" y="17" type="qcurve"/>
			<point x="504" y="14"/>
			<point x="369" y="2" type="qcurve"/>
			<point x="360" y="-25"/>
			<point x="357" y="-55" type="qcurve"/>
			<point x="354" y="-79"/>
			<point x="323" y="-105"/>
			<point x="306" y="-105" type="qcurve"/>
			<point x="287" y="-105"/>
			<point x="257" y="-76"/>
			<point x="257" y="-47" type="qcurve"/>
			<point x="257" y="-38"/>
			<point x="261" y="-20"/>
			<point x="263" y="-12" type="qcurve"/>
			<point x="227" y="-18"/>
			<point x="184" y="-35"/>
			<point x="174" y="-35" type="qcurve"/>
			<point x="148" y="-35"/>
			<point x="120" y="-6"/>
			<point x="120" y="13" type="qcurve"/>
			<point x="120" y="26"/>
			<point x="133" y="50"/>
			<point x="148" y="60" type="qcurve"/>
			<point x="183" y="72"/>
			<point x="261" y="90"/>
			<point x="303" y="96" type="qcurve"/>
			<point x="306" y="105"/>
			<point x="313" y="122"/>
			<point x="316" y="132" type="qcurve"/>
			<point x="329" y="177" type="line"/>
			<point x="304" y="171" type="line"/>
			<point x="260" y="159"/>
			<point x="178" y="129"/>
		</contour>
	</outline>
</glyph>
<glyph name="brokenbar" format="2">
	<unicode hex="00A6"/>
	<advance width="389"/>
	<outline>
		<contour>
			<point x="148" y="670" type="qcurve"/>
			<point x="149" y="699"/>
			<point x="178" y="728"/>
			<point x="197" y="728" type="qcurve"/>
			<point x="214" y="728"/>
			<point x="244" y="704"/>
			<point x="248" y="678" type="qcurve"/>
			<point x="248" y="597"/>
			<point x="246" y="434"/>
			<point x="246" y="353" type="qcurve"/>
			<point x="242" y="327"/>
			<point x="212" y="303"/>
			<point x="195" y="303" type="qcurve"/>
			<point x="176" y="303"/>
			<point x="146" y="332"/>
			<point x="146" y="361" type="qcurve"/>
			<point x="146" y="439"/>
			<point x="148" y="592"/>
		</contour>
		<contour>
			<point x="139" y="151" type="qcurve"/>
			<point x="139" y="180"/>
			<point x="169" y="209"/>
			<point x="188" y="209" type="qcurve"/>
			<point x="205" y="209"/>
			<point x="235" y="185"/>
			<point x="239" y="159" type="qcurve"/>
			<point x="239" y="75"/>
			<point x="234" y="-91"/>
			<point x="234" y="-175" type="qcurve"/>
			<point x="230" y="-201"/>
			<point x="200" y="-225"/>
			<point x="183" y="-225" type="qcurve"/>
			<point x="164" y="-225"/>
			<point x="134" y="-196"/>
			<point x="134" y="-167" type="qcurve"/>
			<point x="134" y="-87"/>
			<point x="139" y="71"/>
		</contour>
	</outline>
</glyph>
<glyph name="section" format="2">
	<unicode hex="00A7"/>
	<advance width="542"/>
	<outline>
		<contour>
			<point x="122" y="436" type="qcurve"/>
			<point x="126" y="454"/>
			<point x="151" y="485"/>
			<point x="163" y="485" type="qcurve"/>
			<point x="153" y="514"/>
			<point x="153" y="548" type="qcurve"/>
			<point x="153" y="560"/>
			<point x="157" y="589"/>
			<point x="169" y="620"/>
			<point x="192" y="651"/>
			<point x="212" y="666" type="qcurve"/>
			<point x="247" y="692"/>
			<point x="329" y="714"/>
			<point x="377" y="714" type="qcurve"/>
			<point x="396" y="714"/>
			<point x="432" y="707"/>
			<point x="459" y="692"/>
			<point x="475" y="669"/>
			<point x="475" y="653" type="qcurve"/>
			<point x="475" y="627"/>
			<point x="446" y="600"/>
			<point x="427" y="600" type="qcurve"/>
			<point x="411" y="600"/>
			<point x="398" y="610" type="qcurve"/>
			<point x="391" y="611"/>
			<point x="377" y="611"/>
			<point x="369" y="611" type="qcurve"/>
			<point x="347" y="611"/>
			<point x="305" y="604"/>
			<point x="272" y="589"/>
			<point x="252" y="563"/>
			<point x="252" y="544" type="qcurve"/>
			<point x="252" y="514"/>
			<point x="278" y="476"/>
			<point x="314" y="450"/>
			<point x="352" y="432"/>
			<point x="365" y="423" type="qcurve"/>
			<point x="374" y="417"/>
			<point x="406" y="390"/>
			<point x="438" y="345"/>
			<point x="462" y="281"/>
			<point x="462" y="237" type="qcurve"/>
			<point x="462" y="224"/>
			<point x="454" y="196"/>
			<point x="437" y="172"/>
			<point x="412" y="156"/>
			<point x="395" y="156" type="qcurve"/>
			<point x="370" y="156"/>
			<point x="342" y="185"/>
			<point x="342" y="204" type="qcurve"/>
			<point x="342" y="225"/>
			<point x="359" y="242" type="qcurve"/>
			<point x="357" y="268"/>
			<point x="346" y="311"/>
			<point x="321" y="332" type="qcurve"/>
			<point x="311" y="341"/>
			<point x="279" y="358"/>
			<point x="248" y="376"/>
			<point x="222" y="392"/>
			<point x="217" y="399" type="qcurve"/>
			<point x="212" y="384" type="line"/>
			<point x="207" y="370"/>
			<point x="185" y="331"/>
			<point x="185" y="312" type="qcurve"/>
			<point x="185" y="304"/>
			<point x="188" y="297" type="qcurve"/>
			<point x="203" y="265"/>
			<point x="246" y="219"/>
			<point x="293" y="178"/>
			<point x="338" y="136"/>
			<point x="356" y="108" type="qcurve"/>
			<point x="375" y="79"/>
			<point x="385" y="39"/>
			<point x="385" y="19" type="qcurve"/>
			<point x="385" y="-10"/>
			<point x="356" y="-67"/>
			<point x="309" y="-120"/>
			<point x="249" y="-165"/>
			<point x="186" y="-198"/>
			<point x="126" y="-217"/>
			<point x="102" y="-217" type="qcurve"/>
			<point x="75" y="-217"/>
			<point x="47" y="-188"/>
			<point x="47" y="-169" type="qcurve"/>
			<point x="47" y="-153"/>
			<point x="69" y="-124"/>
			<point x="93" y="-118" type="qcurve"/>
			<point x="112" y="-117"/>
			<point x="176" y="-90"/>
			<point x="237" y="-49"/>
			<point x="281" y="-1"/>
			<point x="281" y="22" type="qcurve"/>
			<point x="281" y="31"/>
			<point x="277" y="39" type="qcurve"/>
			<point x="263" y="68"/>
			<point x="216" y="118"/>
			<point x="164" y="168"/>
			<point x="114" y="222"/>
			<point x="97" y="255" type="qcurve"/>
			<point x="90" y="267"/>
			<point x="85" y="291"/>
			<point x="85" y="303" type="qcurve"/>
			<point x="85" y="321"/>
			<point x="93" y="353"/>
			<point x="105" y="384"/>
			<point x="118" y="417"/>
		</contour>
	</outline>
</glyph>
<glyph name="logicalnot" format="2">
	<unicode hex="00AC"/>
	<advance width="595"/>
	<outline>
		<contour>
			<point x="81" y="373" type="qcurve"/>
			<point x="58" y="378"/>
			<point x="37" y="407"/>
			<point x="37" y="423" type="qcurve"/>
			<point x="37" y="439"/>
			<point x="58" y="467"/>
			<point x="81" y="473" type="qcurve"/>
			<point x="132" y="472"/>
			<point x="230" y="464"/>
			<point x="280" y="461" type="qcurve"/>
			<point x="328" y="458"/>
			<point x="421" y="458"/>
			<point x="468" y="451" type="qcurve"/>
			<point x="486" y="443"/>
			<point x="506" y="412"/>
			<point x="515" y="373"/>
			<point x="517" y="332"/>
			<point x="517" y="314" type="qcurve"/>
			<point x="517" y="295"/>
			<point x="516" y="259"/>
			<point x="515" y="241" type="qcurve"/>
			<point x="511" y="215"/>
			<point x="481" y="191"/>
			<point x="464" y="191" type="qcurve"/>
			<point x="445" y="191"/>
			<point x="415" y="220"/>
			<point x="415" y="249" type="qcurve"/>
			<point x="415" y="267"/>
			<point x="417" y="304"/>
			<point x="417" y="322" type="qcurve"/>
			<point x="417" y="330"/>
			<point x="417" y="347"/>
			<point x="416" y="356" type="qcurve"/>
			<point x="382" y="358"/>
			<point x="314" y="359"/>
			<point x="280" y="361" type="qcurve"/>
			<point x="230" y="364"/>
			<point x="132" y="372"/>
		</contour>
	</outline>
</glyph>
<glyph name="registered" format="2">
	<unicode hex="00AE"/>
	<advance width="906"/>
	<outline>
		<contour>
			<point x="439" y="-66" type="qcurve"/>
			<point x="350" y="-66"/>
			<point x="210" y="-6"/>
			<point x="111" y="99"/>
			<point x="59" y="241"/>
			<point x="59" y="323" type="qcurve"/>
			<point x="59" y="409"/>
			<point x="115" y="545"/>
			<point x="215" y="640"/>
			<point x="351" y="691"/>
			<point x="432" y="691" type="qcurve"/>
			<point x="529" y="691"/>
			<point x="687" y="636"/>
			<point x="797" y="531"/>
			<point x="851" y="377"/>
			<point x="844" y="278" type="qcurve"/>
			<point x="838" y="192"/>
			<point x="764" y="64"/>
			<point x="652" y="-23"/>
			<point x="512" y="-66"/>
		</contour>
		<contour>
			<point x="438" y="26" type="qcurve"/>
			<point x="496" y="26"/>
			<point x="601" y="58"/>
			<point x="684" y="124"/>
			<point x="737" y="222"/>
			<point x="743" y="288" type="qcurve"/>
			<point x="749" y="367"/>
			<point x="710" y="483"/>
			<point x="628" y="560"/>
			<point x="507" y="597"/>
			<point x="432" y="597" type="qcurve"/>
			<point x="369" y="597"/>
			<point x="268" y="560"/>
			<point x="197" y="490"/>
			<point x="159" y="386"/>
			<point x="159" y="320" type="qcurve"/>
			<point x="159" y="270"/>
			<point x="191" y="165"/>
			<point x="259" y="80"/>
			<point x="365" y="26"/>
		</contour>
		<contour>
			<point x="521" y="119" type="qcurve"/>
			<point x="486" y="152"/>
			<point x="413" y="233"/>
			<point x="384" y="267" type="qcurve"/>
			<point x="383" y="239"/>
			<point x="380" y="186"/>
			<point x="377" y="161" type="qcurve"/>
			<point x="374" y="137"/>
			<point x="340" y="115"/>
			<point x="301" y="116"/>
			<point x="271" y="141"/>
			<point x="272" y="165" type="qcurve"/>
			<point x="274" y="204"/>
			<point x="275" y="273"/>
			<point x="275" y="338"/>
			<point x="272" y="404"/>
			<point x="271" y="440" type="qcurve"/>
			<point x="269" y="468"/>
			<point x="292" y="502"/>
			<point x="319" y="510" type="qcurve"/>
			<point x="349" y="518"/>
			<point x="421" y="528"/>
			<point x="453" y="528" type="qcurve"/>
			<point x="539" y="528"/>
			<point x="640" y="453"/>
			<point x="637" y="380" type="qcurve"/>
			<point x="635" y="333"/>
			<point x="572" y="267"/>
			<point x="504" y="265" type="qcurve"/>
			<point x="532" y="245"/>
			<point x="586" y="195"/>
			<point x="599" y="175" type="qcurve"/>
			<point x="609" y="158"/>
			<point x="602" y="122"/>
			<point x="577" y="101"/>
			<point x="540" y="101"/>
		</contour>
		<contour>
			<point x="380" y="433" type="qcurve"/>
			<point x="381" y="413"/>
			<point x="383" y="371"/>
			<point x="383" y="351" type="qcurve"/>
			<point x="398" y="349"/>
			<point x="439" y="345"/>
			<point x="457" y="345" type="qcurve"/>
			<point x="491" y="345"/>
			<point x="532" y="362"/>
			<point x="534" y="384" type="qcurve"/>
			<point x="536" y="409"/>
			<point x="494" y="438"/>
			<point x="446" y="438" type="qcurve"/>
			<point x="431" y="438"/>
			<point x="397" y="435"/>
		</contour>
	</outline>
</glyph>
<glyph name="degree" format="2">
	<unicode hex="00B0"/>
	<advance width="437"/>
	<outline>
		<contour>
			<point x="217" y="395" type="qcurve"/>
			<point x="178" y="395"/>
			<point x="116" y="423"/>
			<point x="74" y="468"/>
			<point x="52" y="526"/>
			<point x="52" y="557" type="qcurve"/>
			<point x="52" y="603"/>
			<point x="87" y="667"/>
			<point x="140" y="706"/>
			<point x="201" y="723"/>
			<point x="227" y="723" type="qcurve"/>
			<point x="263" y="723"/>
			<point x="319" y="699"/>
			<point x="359" y="657"/>
			<point x="380" y="601"/>
			<point x="380" y="568" type="qcurve"/>
			<point x="380" y="533"/>
			<point x="358" y="471"/>
			<point x="317" y="423"/>
			<point x="256" y="395"/>
		</contour>
		<contour>
			<point x="214" y="479" type="qcurve"/>
			<point x="243" y="479"/>
			<point x="277" y="532"/>
			<point x="277" y="568" type="qcurve"/>
			<point x="277" y="606"/>
			<point x="245" y="637"/>
			<point x="224" y="637" type="qcurve"/>
			<point x="188" y="637"/>
			<point x="151" y="587"/>
			<point x="151" y="556" type="qcurve"/>
			<point x="151" y="522"/>
			<point x="188" y="479"/>
		</contour>
	</outline>
</glyph>
<glyph name="plusminus" format="2">
	<unicode hex="00B1"/>
	<advance width="595"/>
	<outline>
		<contour>
			<point x="121" y="245" type="qcurve"/>
			<point x="98" y="250"/>
			<point x="77" y="279"/>
			<point x="77" y="295" type="qcurve"/>
			<point x="77" y="311"/>
			<point x="98" y="339"/>
			<point x="121" y="345" type="qcurve"/>
			<point x="152" y="346"/>
			<point x="214" y="350"/>
			<point x="245" y="353" type="qcurve"/>
			<point x="243" y="375"/>
			<point x="238" y="418"/>
			<point x="238" y="441" type="qcurve"/>
			<point x="238" y="470"/>
			<point x="268" y="499"/>
			<point x="287" y="499" type="qcurve"/>
			<point x="304" y="499"/>
			<point x="334" y="475"/>
			<point x="338" y="449" type="qcurve"/>
			<point x="339" y="427"/>
			<point x="342" y="385"/>
			<point x="345" y="363" type="qcurve"/>
			<point x="372" y="366"/>
			<point x="426" y="369"/>
			<point x="453" y="370" type="qcurve"/>
			<point x="480" y="367"/>
			<point x="507" y="337"/>
			<point x="507" y="320" type="qcurve"/>
			<point x="507" y="303"/>
			<point x="480" y="272"/>
			<point x="453" y="270" type="qcurve"/>
			<point x="404" y="268"/>
			<point x="358" y="264" type="qcurve"/>
			<point x="362" y="226"/>
			<point x="364" y="189" type="qcurve"/>
			<point x="360" y="164"/>
			<point x="332" y="139"/>
			<point x="315" y="139" type="qcurve"/>
			<point x="300" y="139"/>
			<point x="272" y="159"/>
			<point x="264" y="181" type="qcurve"/>
			<point x="263" y="199"/>
			<point x="261" y="236"/>
			<point x="259" y="254" type="qcurve"/>
			<point x="224" y="251"/>
			<point x="156" y="246"/>
		</contour>
		<contour>
			<point x="141" y="3" type="qcurve"/>
			<point x="118" y="8"/>
			<point x="97" y="37"/>
			<point x="97" y="53" type="qcurve"/>
			<point x="97" y="69"/>
			<point x="118" y="97"/>
			<point x="141" y="103" type="qcurve"/>
			<point x="213" y="103"/>
			<point x="355" y="108"/>
			<point x="427" y="108" type="qcurve"/>
			<point x="454" y="105"/>
			<point x="481" y="75"/>
			<point x="481" y="58" type="qcurve"/>
			<point x="481" y="41"/>
			<point x="454" y="10"/>
			<point x="427" y="8" type="qcurve"/>
			<point x="355" y="8"/>
			<point x="213" y="3"/>
		</contour>
	</outline>
</glyph>
<glyph name="threesuperior" format="2">
	<unicode hex="00B3"/>
	<advance width="373"/>
	<outline>
		<contour>
			<point x="125" y="678" type="qcurve"/>
			<point x="121" y="678"/>
			<point x="108" y="671"/>
			<point x="94" y="671" type="qcurve"/>
			<point x="72" y="671"/>
			<point x="45" y="698"/>
			<point x="45" y="717" type="qcurve"/>
			<point x="45" y="738"/>
			<point x="86" y="776"/>
			<point x="123" y="776" type="qcurve"/>
			<point x="148" y="776"/>
			<point x="199" y="755"/>
			<point x="240" y="720"/>
			<point x="265" y="673"/>
			<point x="265" y="646" type="qcurve"/>
			<point x="265" y="630"/>
			<point x="253" y="602"/>
			<point x="242" y="591" type="qcurve"/>
			<point x="247" y="589" type="line"/>
			<point x="273" y="574"/>
			<point x="315" y="526"/>
			<point x="315" y="493" type="qcurve"/>
			<point x="315" y="457"/>
			<point x="278" y="405"/>
			<point x="221" y="372"/>
			<point x="155" y="356"/>
			<point x="125" y="356" type="qcurve"/>
			<point x="102" y="361"/>
			<point x="81" y="390"/>
			<point x="81" y="406" type="qcurve"/>
			<point x="81" y="422"/>
			<point x="102" y="450"/>
			<point x="125" y="456" type="qcurve"/>
			<point x="154" y="456"/>
			<point x="195" y="466"/>
			<point x="211" y="491" type="qcurve"/>
			<point x="200" y="501"/>
			<point x="167" y="518"/>
			<point x="135" y="539"/>
			<point x="112" y="568"/>
			<point x="112" y="590" type="qcurve"/>
			<point x="112" y="607"/>
			<point x="131" y="639"/>
			<point x="145" y="648" type="qcurve"/>
			<point x="158" y="656" type="line"/>
			<point x="151" y="664"/>
			<point x="132" y="678"/>
		</contour>
	</outline>
</glyph>
<glyph name="mu" format="2">
	<unicode hex="00B5"/>
	<advance width="848"/>
	<outline>
		<contour>
			<point x="83" y="-253" type="qcurve"/>
			<point x="79" y="-277"/>
			<point x="48" y="-314"/>
			<point x="25" y="-314" type="qcurve"/>
			<point x="6" y="-314"/>
			<point x="-24" y="-287"/>
			<point x="-24" y="-266" type="qcurve"/>
			<point x="-24" y="-250"/>
			<point x="-12" y="-218"/>
			<point x="4" y="-187"/>
			<point x="20" y="-158"/>
			<point x="25" y="-143" type="qcurve"/>
			<point x="37" y="-103"/>
			<point x="71" y="-10"/>
			<point x="104" y="77"/>
			<point x="130" y="148"/>
			<point x="135" y="167" type="qcurve"/>
			<point x="160" y="269" type="line"/>
			<point x="171" y="314"/>
			<point x="200" y="402"/>
			<point x="200" y="448" type="qcurve"/>
			<point x="200" y="463" type="line"/>
			<point x="200" y="483"/>
			<point x="226" y="516"/>
			<point x="250" y="516" type="qcurve"/>
			<point x="265" y="516"/>
			<point x="293" y="496"/>
			<point x="296" y="480" type="qcurve"/>
			<point x="300" y="472"/>
			<point x="300" y="466" type="qcurve"/>
			<point x="300" y="410"/>
			<point x="309" y="299"/>
			<point x="328" y="210"/>
			<point x="358" y="154"/>
			<point x="380" y="154" type="qcurve"/>
			<point x="403" y="154"/>
			<point x="453" y="202"/>
			<point x="498" y="270"/>
			<point x="532" y="345"/>
			<point x="539" y="372" type="qcurve"/>
			<point x="544" y="391"/>
			<point x="549" y="427"/>
			<point x="555" y="446" type="qcurve"/>
			<point x="562" y="467"/>
			<point x="591" y="488"/>
			<point x="606" y="488" type="qcurve"/>
			<point x="631" y="488"/>
			<point x="658" y="442"/>
			<point x="658" y="398" type="qcurve"/>
			<point x="660" y="383"/>
			<point x="667" y="335"/>
			<point x="677" y="277"/>
			<point x="691" y="217"/>
			<point x="710" y="164"/>
			<point x="735" y="124"/>
			<point x="752" y="117" type="qcurve"/>
			<point x="760" y="113"/>
			<point x="777" y="111"/>
			<point x="785" y="109" type="qcurve"/>
			<point x="805" y="101"/>
			<point x="823" y="74"/>
			<point x="823" y="60" type="qcurve"/>
			<point x="823" y="42"/>
			<point x="796" y="12"/>
			<point x="769" y="12" type="qcurve"/>
			<point x="740" y="12"/>
			<point x="709" y="25" type="qcurve"/>
			<point x="685" y="35"/>
			<point x="646" y="76"/>
			<point x="616" y="129"/>
			<point x="594" y="192"/>
			<point x="586" y="225" type="qcurve"/>
			<point x="566" y="192"/>
			<point x="518" y="130"/>
			<point x="464" y="82"/>
			<point x="406" y="53"/>
			<point x="376" y="53" type="qcurve"/>
			<point x="350" y="53"/>
			<point x="308" y="73"/>
			<point x="274" y="106"/>
			<point x="248" y="149"/>
			<point x="239" y="172" type="qcurve"/>
			<point x="229" y="132"/>
			<point x="203" y="58"/>
			<point x="172" y="-23"/>
			<point x="138" y="-115"/>
			<point x="120" y="-173" type="qcurve"/>
			<point x="112" y="-197"/>
			<point x="96" y="-228"/>
		</contour>
	</outline>
</glyph>
<glyph name="paragraph" format="2">
	<unicode hex="00B6"/>
	<advance width="654"/>
	<outline>
		<contour>
			<point x="572" y="686" type="qcurve"/>
			<point x="599" y="683"/>
			<point x="626" y="653"/>
			<point x="626" y="636" type="qcurve"/>
			<point x="626" y="619"/>
			<point x="599" y="588"/>
			<point x="572" y="586" type="qcurve"/>
			<point x="512" y="588"/>
			<point x="392" y="599"/>
			<point x="332" y="599" type="qcurve"/>
			<point x="312" y="599"/>
			<point x="270" y="596"/>
			<point x="250" y="591" type="qcurve"/>
			<point x="226" y="585"/>
			<point x="184" y="551"/>
			<point x="153" y="504"/>
			<point x="135" y="451"/>
			<point x="135" y="426" type="qcurve"/>
			<point x="135" y="396"/>
			<point x="159" y="358"/>
			<point x="194" y="337"/>
			<point x="234" y="329"/>
			<point x="251" y="329" type="qcurve"/>
			<point x="265" y="329"/>
			<point x="293" y="331"/>
			<point x="307" y="331" type="qcurve"/>
			<point x="344" y="331"/>
			<point x="386" y="301"/>
			<point x="386" y="272" type="qcurve"/>
			<point x="386" y="263"/>
			<point x="382" y="245"/>
			<point x="380" y="236" type="qcurve"/>
			<point x="380" y="143"/>
			<point x="377" y="-40"/>
			<point x="377" y="-134" type="qcurve"/>
			<point x="373" y="-160"/>
			<point x="343" y="-184"/>
			<point x="326" y="-184" type="qcurve"/>
			<point x="307" y="-184"/>
			<point x="277" y="-155"/>
			<point x="277" y="-126" type="qcurve"/>
			<point x="277" y="-43"/>
			<point x="280" y="120"/>
			<point x="280" y="201" type="qcurve"/>
			<point x="280" y="206"/>
			<point x="280" y="218"/>
			<point x="279" y="224" type="qcurve"/>
			<point x="231" y="225"/>
			<point x="143" y="250"/>
			<point x="76" y="298"/>
			<point x="36" y="371"/>
			<point x="36" y="420" type="qcurve"/>
			<point x="36" y="457"/>
			<point x="55" y="534"/>
			<point x="92" y="601"/>
			<point x="146" y="656"/>
			<point x="180" y="671" type="qcurve"/>
			<point x="219" y="688"/>
			<point x="301" y="701"/>
			<point x="344" y="701" type="qcurve"/>
			<point x="402" y="701"/>
			<point x="517" y="688"/>
		</contour>
		<contour>
			<point x="349" y="480" type="qcurve"/>
			<point x="326" y="485"/>
			<point x="305" y="514"/>
			<point x="305" y="530" type="qcurve"/>
			<point x="305" y="546"/>
			<point x="326" y="574"/>
			<point x="349" y="580" type="qcurve"/>
			<point x="369" y="580"/>
			<point x="410" y="582"/>
			<point x="431" y="582" type="qcurve"/>
			<point x="450" y="582"/>
			<point x="484" y="579"/>
			<point x="511" y="567"/>
			<point x="529" y="546"/>
			<point x="532" y="528" type="qcurve"/>
			<point x="538" y="481"/>
			<point x="538" y="435" type="qcurve"/>
			<point x="538" y="401"/>
			<point x="534" y="335"/>
			<point x="533" y="302" type="qcurve"/>
			<point x="529" y="174"/>
			<point x="515" y="-77"/>
			<point x="511" y="-205" type="qcurve"/>
			<point x="507" y="-231"/>
			<point x="477" y="-255"/>
			<point x="460" y="-255" type="qcurve"/>
			<point x="441" y="-255"/>
			<point x="411" y="-226"/>
			<point x="411" y="-197" type="qcurve"/>
			<point x="417" y="-26"/>
			<point x="437" y="310"/>
			<point x="437" y="481" type="qcurve"/>
			<point x="415" y="481"/>
			<point x="371" y="480"/>
		</contour>
	</outline>
</glyph>
<glyph name="onequarter" format="2">
	<unicode hex="00BC"/>
	<advance width="852"/>
	<outline>
		<contour>
			<point x="572" y="699" type="qcurve"/>
			<point x="580" y="721"/>
			<point x="608" y="741"/>
			<point x="623" y="741" type="qcurve"/>
			<point x="641" y="741"/>
			<point x="670" y="714"/>
			<point x="670" y="688" type="qcurve"/>
			<point x="670" y="660"/>
			<point x="643" y="606"/>
			<point x="606" y="555"/>
			<point x="565" y="506"/>
			<point x="550" y="484" type="qcurve"/>
			<point x="509" y="421"/>
			<point x="432" y="297"/>
			<point x="394" y="233" type="qcurve"/>
			<point x="354" y="166"/>
			<point x="278" y="23"/>
			<point x="259" y="-46" type="qcurve"/>
			<point x="249" y="-63"/>
			<point x="223" y="-80"/>
			<point x="209" y="-80" type="qcurve"/>
			<point x="191" y="-80"/>
			<point x="162" y="-50"/>
			<point x="162" y="-22" type="qcurve"/>
			<point x="178" y="42"/>
			<point x="237" y="170"/>
			<point x="308" y="294"/>
			<point x="386" y="412"/>
			<point x="421" y="468" type="qcurve"/>
			<point x="438" y="496"/>
			<point x="479" y="558"/>
			<point x="498" y="586" type="qcurve"/>
			<point x="507" y="599"/>
			<point x="531" y="625"/>
			<point x="553" y="653"/>
			<point x="570" y="682"/>
		</contour>
		<contour>
			<point x="611" y="262" type="qcurve"/>
			<point x="611" y="291"/>
			<point x="641" y="320"/>
			<point x="660" y="320" type="qcurve"/>
			<point x="677" y="320"/>
			<point x="707" y="296"/>
			<point x="711" y="270" type="qcurve"/>
			<point x="711" y="236"/>
			<point x="713" y="169"/>
			<point x="713" y="136" type="qcurve"/>
			<point x="723" y="136"/>
			<point x="744" y="139"/>
			<point x="753" y="141" type="qcurve"/>
			<point x="757" y="142"/>
			<point x="765" y="142" type="qcurve"/>
			<point x="789" y="142"/>
			<point x="817" y="113"/>
			<point x="817" y="94" type="qcurve"/>
			<point x="817" y="80"/>
			<point x="799" y="53"/>
			<point x="779" y="45" type="qcurve"/>
			<point x="762" y="40"/>
			<point x="726" y="36"/>
			<point x="708" y="35" type="qcurve"/>
			<point x="708" y="15"/>
			<point x="695" y="-25"/>
			<point x="691" y="-44" type="qcurve"/>
			<point x="691" y="-51" type="line"/>
			<point x="687" y="-77"/>
			<point x="657" y="-101"/>
			<point x="640" y="-101" type="qcurve"/>
			<point x="621" y="-101"/>
			<point x="591" y="-72"/>
			<point x="591" y="-43" type="qcurve"/>
			<point x="591" y="-23"/>
			<point x="601" y="13"/>
			<point x="605" y="32" type="qcurve"/>
			<point x="574" y="32"/>
			<point x="517" y="37"/>
			<point x="474" y="58"/>
			<point x="448" y="100"/>
			<point x="448" y="138" type="qcurve"/>
			<point x="448" y="183"/>
			<point x="460" y="268"/>
			<point x="462" y="312" type="qcurve"/>
			<point x="470" y="333"/>
			<point x="498" y="354"/>
			<point x="513" y="354" type="qcurve"/>
			<point x="530" y="354"/>
			<point x="558" y="329"/>
			<point x="562" y="304" type="qcurve"/>
			<point x="560" y="262"/>
			<point x="551" y="179"/>
			<point x="549" y="137" type="qcurve"/>
			<point x="613" y="134" type="line"/>
			<point x="613" y="166"/>
			<point x="611" y="230"/>
		</contour>
		<contour>
			<point x="237" y="594" type="qcurve"/>
			<point x="228" y="588"/>
			<point x="192" y="559"/>
			<point x="148" y="531"/>
			<point x="104" y="509"/>
			<point x="88" y="509" type="qcurve"/>
			<point x="67" y="509"/>
			<point x="40" y="538"/>
			<point x="40" y="557" type="qcurve"/>
			<point x="40" y="570"/>
			<point x="53" y="594"/>
			<point x="68" y="604" type="qcurve"/>
			<point x="95" y="614"/>
			<point x="144" y="649"/>
			<point x="192" y="687"/>
			<point x="239" y="721"/>
			<point x="263" y="730" type="qcurve"/>
			<point x="278" y="735"/>
			<point x="287" y="735" type="qcurve"/>
			<point x="303" y="735"/>
			<point x="324" y="714"/>
			<point x="336" y="681"/>
			<point x="340" y="639"/>
			<point x="340" y="617" type="qcurve"/>
			<point x="340" y="588"/>
			<point x="335" y="536"/>
			<point x="335" y="524" type="qcurve"/>
			<point x="335" y="504"/>
			<point x="333" y="465"/>
			<point x="333" y="445" type="qcurve"/>
			<point x="329" y="419"/>
			<point x="299" y="395"/>
			<point x="282" y="395" type="qcurve"/>
			<point x="263" y="395"/>
			<point x="233" y="424"/>
			<point x="233" y="453" type="qcurve"/>
			<point x="233" y="488"/>
			<point x="236" y="559"/>
		</contour>
	</outline>
</glyph>
<glyph name="onehalf" format="2">
	<unicode hex="00BD"/>
	<advance width="781"/>
	<outline>
		<contour>
			<point x="545" y="667" type="line"/>
			<point x="558" y="688"/>
			<point x="579" y="710"/>
			<point x="600" y="710" type="qcurve"/>
			<point x="618" y="710"/>
			<point x="647" y="683"/>
			<point x="647" y="658" type="qcurve"/>
			<point x="647" y="644"/>
			<point x="630" y="607"/>
			<point x="606" y="569"/>
			<point x="581" y="534"/>
			<point x="574" y="522" type="qcurve"/>
			<point x="557" y="493"/>
			<point x="508" y="408"/>
			<point x="454" y="311"/>
			<point x="399" y="210"/>
			<point x="351" y="123"/>
			<point x="316" y="56"/>
			<point x="310" y="42" type="qcurve"/>
			<point x="304" y="28"/>
			<point x="293" y="-6"/>
			<point x="277" y="-36"/>
			<point x="253" y="-57"/>
			<point x="232" y="-57" type="qcurve"/>
			<point x="213" y="-57"/>
			<point x="186" y="-31"/>
			<point x="186" y="-14" type="qcurve"/>
			<point x="186" y="-6"/>
			<point x="191" y="11"/>
			<point x="194" y="19" type="qcurve"/>
			<point x="204" y="43"/>
			<point x="215" y="74"/>
			<point x="219" y="82" type="qcurve"/>
			<point x="282" y="209"/>
			<point x="418" y="455"/>
			<point x="490" y="577" type="qcurve"/>
		</contour>
		<contour>
			<point x="581" y="292" type="qcurve"/>
			<point x="573" y="292"/>
			<point x="558" y="275"/>
			<point x="554" y="258" type="qcurve"/>
			<point x="534" y="224"/>
			<point x="504" y="224" type="qcurve"/>
			<point x="486" y="224"/>
			<point x="457" y="254"/>
			<point x="457" y="282" type="qcurve"/>
			<point x="457" y="296"/>
			<point x="467" y="324"/>
			<point x="471" y="331" type="qcurve"/>
			<point x="487" y="360"/>
			<point x="549" y="390"/>
			<point x="583" y="390" type="qcurve"/>
			<point x="634" y="390"/>
			<point x="704" y="326"/>
			<point x="704" y="264" type="qcurve"/>
			<point x="704" y="213"/>
			<point x="648" y="127"/>
			<point x="607" y="91" type="qcurve"/>
			<point x="644" y="94" type="line"/>
			<point x="648" y="94"/>
			<point x="662" y="96"/>
			<point x="667" y="96" type="qcurve"/>
			<point x="692" y="96"/>
			<point x="718" y="67"/>
			<point x="718" y="49" type="qcurve"/>
			<point x="718" y="28"/>
			<point x="691" y="3"/>
			<point x="650" y="-11"/>
			<point x="602" y="-15"/>
			<point x="581" y="-15" type="qcurve"/>
			<point x="461" y="-15" type="line"/>
			<point x="432" y="-15"/>
			<point x="403" y="9"/>
			<point x="403" y="30" type="qcurve"/>
			<point x="403" y="51"/>
			<point x="432" y="85"/>
			<point x="476" y="118"/>
			<point x="528" y="152"/>
			<point x="573" y="192"/>
			<point x="604" y="241"/>
			<point x="605" y="273" type="qcurve"/>
			<point x="605" y="278"/>
			<point x="591" y="292"/>
		</contour>
		<contour>
			<point x="133" y="543" type="qcurve"/>
			<point x="113" y="524"/>
			<point x="91" y="524" type="qcurve"/>
			<point x="72" y="524"/>
			<point x="45" y="552"/>
			<point x="45" y="572" type="qcurve"/>
			<point x="46" y="581"/>
			<point x="52" y="601"/>
			<point x="60" y="611" type="qcurve"/>
			<point x="65" y="617"/>
			<point x="89" y="645"/>
			<point x="124" y="680"/>
			<point x="165" y="718"/>
			<point x="208" y="749"/>
			<point x="250" y="769"/>
			<point x="268" y="769" type="qcurve"/>
			<point x="287" y="769"/>
			<point x="311" y="740"/>
			<point x="324" y="692"/>
			<point x="328" y="630"/>
			<point x="328" y="597" type="qcurve"/>
			<point x="328" y="555"/>
			<point x="324" y="487"/>
			<point x="324" y="477" type="qcurve"/>
			<point x="320" y="451"/>
			<point x="290" y="427"/>
			<point x="273" y="427" type="qcurve"/>
			<point x="254" y="427"/>
			<point x="224" y="456"/>
			<point x="224" y="485" type="qcurve"/>
			<point x="224" y="640" type="line"/>
			<point x="210" y="628" type="line"/>
			<point x="190" y="608"/>
			<point x="151" y="566"/>
		</contour>
	</outline>
</glyph>
<glyph name="threequarters" format="2">
	<unicode hex="00BE"/>
	<advance width="843"/>
	<outline>
		<contour>
			<point x="575" y="278" type="qcurve"/>
			<point x="583" y="299"/>
			<point x="611" y="320"/>
			<point x="626" y="320" type="qcurve"/>
			<point x="643" y="320"/>
			<point x="671" y="295"/>
			<point x="675" y="270" type="qcurve"/>
			<point x="674" y="243"/>
			<point x="673" y="190"/>
			<point x="671" y="164" type="qcurve"/>
			<point x="698" y="169"/>
			<point x="752" y="178"/>
			<point x="780" y="181" type="qcurve"/>
			<point x="806" y="179"/>
			<point x="834" y="149"/>
			<point x="834" y="132" type="qcurve"/>
			<point x="834" y="118"/>
			<point x="816" y="90"/>
			<point x="796" y="82" type="qcurve"/>
			<point x="769" y="79"/>
			<point x="701" y="66"/>
			<point x="664" y="60" type="qcurve"/>
			<point x="661" y="9"/>
			<point x="661" y="-41" type="qcurve"/>
			<point x="657" y="-67"/>
			<point x="627" y="-91"/>
			<point x="610" y="-91" type="qcurve"/>
			<point x="591" y="-91"/>
			<point x="561" y="-62"/>
			<point x="561" y="-33" type="qcurve"/>
			<point x="561" y="7"/>
			<point x="564" y="48" type="qcurve"/>
			<point x="551" y="48" type="line"/>
			<point x="510" y="48"/>
			<point x="452" y="66"/>
			<point x="416" y="97"/>
			<point x="400" y="139"/>
			<point x="400" y="164" type="qcurve"/>
			<point x="400" y="194"/>
			<point x="419" y="261"/>
			<point x="448" y="324"/>
			<point x="480" y="380"/>
			<point x="493" y="400" type="qcurve"/>
			<point x="502" y="414"/>
			<point x="527" y="425"/>
			<point x="539" y="425" type="qcurve"/>
			<point x="557" y="425"/>
			<point x="585" y="399"/>
			<point x="585" y="378" type="qcurve"/>
			<point x="585" y="365"/>
			<point x="559" y="313"/>
			<point x="528" y="252"/>
			<point x="502" y="190"/>
			<point x="502" y="168" type="qcurve"/>
			<point x="502" y="156"/>
			<point x="516" y="148"/>
			<point x="532" y="148" type="qcurve"/>
			<point x="540" y="148"/>
			<point x="559" y="149"/>
			<point x="570" y="150" type="qcurve"/>
			<point x="572" y="182"/>
			<point x="575" y="240"/>
		</contour>
		<contour>
			<point x="552" y="735" type="qcurve"/>
			<point x="557" y="736"/>
			<point x="566" y="737"/>
			<point x="571" y="737" type="qcurve"/>
			<point x="594" y="737"/>
			<point x="621" y="711"/>
			<point x="621" y="692" type="qcurve"/>
			<point x="621" y="680"/>
			<point x="614" y="663"/>
			<point x="609" y="657" type="qcurve"/>
			<point x="596" y="643"/>
			<point x="588" y="628"/>
			<point x="581" y="617" type="qcurve"/>
			<point x="557" y="579"/>
			<point x="510" y="504"/>
			<point x="488" y="465" type="qcurve"/>
			<point x="449" y="393"/>
			<point x="374" y="250"/>
			<point x="332" y="179" type="qcurve"/>
			<point x="318" y="156"/>
			<point x="288" y="111"/>
			<point x="274" y="87" type="qcurve"/>
			<point x="263" y="69"/>
			<point x="247" y="16"/>
			<point x="227" y="-32"/>
			<point x="198" y="-66"/>
			<point x="175" y="-66" type="qcurve"/>
			<point x="156" y="-66"/>
			<point x="129" y="-39"/>
			<point x="129" y="-17" type="qcurve"/>
			<point x="129" y="-3"/>
			<point x="141" y="24"/>
			<point x="146" y="38" type="qcurve"/>
			<point x="156" y="65"/>
			<point x="174" y="107"/>
			<point x="192" y="143"/>
			<point x="213" y="176"/>
			<point x="225" y="195" type="qcurve"/>
			<point x="274" y="271"/>
			<point x="355" y="431"/>
			<point x="399" y="510" type="qcurve"/>
			<point x="407" y="524"/>
			<point x="443" y="591"/>
			<point x="487" y="664"/>
			<point x="534" y="726"/>
		</contour>
		<contour>
			<point x="98" y="630" type="qcurve"/>
			<point x="75" y="635"/>
			<point x="54" y="664"/>
			<point x="54" y="680" type="qcurve"/>
			<point x="54" y="696"/>
			<point x="74" y="724"/>
			<point x="98" y="730" type="qcurve"/>
			<point x="114" y="734"/>
			<point x="144" y="739"/>
			<point x="159" y="739" type="qcurve"/>
			<point x="182" y="739"/>
			<point x="223" y="725"/>
			<point x="254" y="698"/>
			<point x="272" y="661"/>
			<point x="272" y="639" type="qcurve"/>
			<point x="272" y="610"/>
			<point x="255" y="569"/>
			<point x="242" y="551" type="qcurve"/>
			<point x="274" y="543"/>
			<point x="303" y="493"/>
			<point x="303" y="464" type="qcurve"/>
			<point x="303" y="430"/>
			<point x="275" y="371"/>
			<point x="253" y="354" type="qcurve"/>
			<point x="223" y="331"/>
			<point x="150" y="320"/>
			<point x="114" y="319" type="qcurve"/>
			<point x="91" y="324"/>
			<point x="70" y="353"/>
			<point x="70" y="369" type="qcurve"/>
			<point x="70" y="385"/>
			<point x="91" y="413"/>
			<point x="114" y="419" type="qcurve"/>
			<point x="132" y="419"/>
			<point x="162" y="420"/>
			<point x="184" y="428"/>
			<point x="199" y="444"/>
			<point x="201" y="459" type="qcurve"/>
			<point x="188" y="462"/>
			<point x="161" y="471"/>
			<point x="138" y="486"/>
			<point x="124" y="507"/>
			<point x="124" y="522" type="qcurve"/>
			<point x="124" y="534"/>
			<point x="138" y="561"/>
			<point x="154" y="588"/>
			<point x="168" y="615"/>
			<point x="168" y="627" type="qcurve"/>
			<point x="168" y="632"/>
			<point x="166" y="638"/>
			<point x="159" y="639" type="qcurve"/>
			<point x="153" y="638"/>
			<point x="133" y="635"/>
			<point x="114" y="632"/>
			<point x="99" y="630"/>
		</contour>
	</outline>
</glyph>
<glyph name="questiondown" format="2">
	<unicode hex="00BF"/>
	<advance width="531"/>
	<outline>
		<contour>
			<point x="232" y="308" type="qcurve"/>
			<point x="240" y="329"/>
			<point x="268" y="350"/>
			<point x="283" y="350" type="qcurve"/>
			<point x="300" y="350"/>
			<point x="328" y="325"/>
			<point x="332" y="300" type="qcurve"/>
			<point x="331" y="280"/>
			<point x="328" y="236"/>
			<point x="328" y="215" type="qcurve"/>
			<point x="328" y="200"/>
			<point x="335" y="175"/>
			<point x="343" y="153"/>
			<point x="350" y="132"/>
			<point x="350" y="121" type="qcurve"/>
			<point x="350" y="96"/>
			<point x="323" y="71"/>
			<point x="286" y="58"/>
			<point x="246" y="52"/>
			<point x="234" y="46" type="qcurve"/>
			<point x="219" y="39"/>
			<point x="186" y="18"/>
			<point x="159" y="-8"/>
			<point x="141" y="-40"/>
			<point x="141" y="-59" type="qcurve"/>
			<point x="141" y="-80"/>
			<point x="169" y="-113"/>
			<point x="217" y="-136"/>
			<point x="280" y="-148"/>
			<point x="315" y="-148" type="qcurve"/>
			<point x="344" y="-148"/>
			<point x="391" y="-136"/>
			<point x="401" y="-123" type="qcurve"/>
			<point x="406" y="-118"/>
			<point x="409" y="-104"/>
			<point x="412" y="-97" type="qcurve"/>
			<point x="422" y="-84"/>
			<point x="445" y="-73"/>
			<point x="457" y="-73" type="qcurve"/>
			<point x="476" y="-73"/>
			<point x="504" y="-101"/>
			<point x="504" y="-125" type="qcurve"/>
			<point x="504" y="-159"/>
			<point x="470" y="-205"/>
			<point x="416" y="-234"/>
			<point x="351" y="-246"/>
			<point x="320" y="-246" type="qcurve"/>
			<point x="180" y="-246"/>
			<point x="42" y="-144"/>
			<point x="42" y="-60" type="qcurve"/>
			<point x="42" y="-21"/>
			<point x="74" y="49"/>
			<point x="128" y="104"/>
			<point x="197" y="141"/>
			<point x="234" y="146" type="qcurve"/>
			<point x="229" y="157"/>
			<point x="227" y="193"/>
			<point x="227" y="207" type="qcurve"/>
			<point x="227" y="233"/>
			<point x="231" y="282"/>
		</contour>
		<contour>
			<point x="311" y="542" type="qcurve"/>
			<point x="337" y="539"/>
			<point x="365" y="510"/>
			<point x="365" y="493" type="qcurve"/>
			<point x="365" y="484"/>
			<point x="360" y="472" type="qcurve"/>
			<point x="360" y="467" type="line"/>
			<point x="355" y="438"/>
			<point x="325" y="415"/>
			<point x="307" y="415" type="qcurve"/>
			<point x="294" y="415"/>
			<point x="268" y="426"/>
			<point x="247" y="444"/>
			<point x="234" y="467"/>
			<point x="234" y="480" type="qcurve"/>
			<point x="234" y="499"/>
			<point x="269" y="537"/>
		</contour>
	</outline>
</glyph>
<glyph name="Eacute" format="2">
	<unicode hex="00C9"/>
	<advance width="549"/>
	<outline>
		<contour>
			<point x="38" y="45" type="qcurve"/>
			<point x="37" y="56"/>
			<point x="37" y="79"/>
			<point x="37" y="90" type="qcurve"/>
			<point x="37" y="153"/>
			<point x="48" y="279"/>
			<point x="62" y="406"/>
			<point x="76" y="533"/>
			<point x="79" y="596" type="qcurve"/>
			<point x="76" y="603"/>
			<point x="76" y="611" type="qcurve"/>
			<point x="76" y="632"/>
			<point x="102" y="656"/>
			<point x="138" y="668"/>
			<point x="178" y="671"/>
			<point x="192" y="671" type="qcurve"/>
			<point x="469" y="672" type="line"/>
			<point x="496" y="669"/>
			<point x="523" y="639"/>
			<point x="523" y="622" type="qcurve"/>
			<point x="523" y="605"/>
			<point x="496" y="574"/>
			<point x="469" y="572" type="qcurve"/>
			<point x="228" y="571" type="line"/>
			<point x="215" y="571"/>
			<point x="191" y="569"/>
			<point x="178" y="569" type="qcurve"/>
			<point x="176" y="524"/>
			<point x="169" y="436"/>
			<point x="164" y="391" type="qcurve"/>
			<point x="333" y="391" type="line"/>
			<point x="360" y="388"/>
			<point x="387" y="358"/>
			<point x="387" y="341" type="qcurve"/>
			<point x="387" y="324"/>
			<point x="360" y="293"/>
			<point x="333" y="291" type="qcurve"/>
			<point x="154" y="291" type="line"/>
			<point x="149" y="243"/>
			<point x="141" y="147"/>
			<point x="138" y="99" type="qcurve"/>
			<point x="203" y="99"/>
			<point x="330" y="103"/>
			<point x="395" y="105" type="qcurve"/>
			<point x="422" y="102"/>
			<point x="449" y="72"/>
			<point x="449" y="55" type="qcurve"/>
			<point x="449" y="38"/>
			<point x="422" y="7"/>
			<point x="395" y="5" type="qcurve"/>
			<point x="344" y="4"/>
			<point x="237" y="-5"/>
			<point x="184" y="-5" type="qcurve"/>
			<point x="158" y="-5"/>
			<point x="108" y="-2"/>
			<point x="84" y="3" type="qcurve"/>
			<point x="64" y="8"/>
			<point x="45" y="26"/>
		</contour>
		<contour>
			<point x="353" y="735" type="qcurve"/>
			<point x="346" y="730"/>
			<point x="330" y="716"/>
			<point x="310" y="701"/>
			<point x="286" y="691"/>
			<point x="272" y="691" type="qcurve"/>
			<point x="252" y="691"/>
			<point x="225" y="720"/>
			<point x="225" y="739" type="qcurve"/>
			<point x="225" y="752"/>
			<point x="238" y="776"/>
			<point x="253" y="786" type="qcurve"/>
			<point x="260" y="788" type="line"/>
			<point x="298" y="820"/>
			<point x="383" y="861"/>
			<point x="430" y="880" type="qcurve"/>
			<point x="435" y="882"/>
			<point x="444" y="882"/>
			<point x="449" y="882" type="qcurve"/>
			<point x="472" y="882"/>
			<point x="500" y="854"/>
			<point x="500" y="835" type="qcurve"/>
			<point x="500" y="816"/>
			<point x="470" y="789"/>
			<point x="425" y="767"/>
			<point x="374" y="747"/>
		</contour>
	</outline>
</glyph>
<glyph name="Eth" format="2">
	<unicode hex="00D0"/>
	<advance width="758"/>
	<outline>
		<contour>
			<point x="58" y="321" type="qcurve"/>
			<point x="35" y="326"/>
			<point x="14" y="355"/>
			<point x="14" y="371" type="qcurve"/>
			<point x="14" y="395"/>
			<point x="45" y="416"/>
			<point x="91" y="424"/>
			<point x="146" y="423"/>
			<point x="169" y="424" type="qcurve"/>
			<point x="170" y="476"/>
			<point x="173" y="576"/>
			<point x="174" y="628" type="qcurve"/>
			<point x="174" y="637"/>
			<point x="191" y="660"/>
			<point x="199" y="665" type="qcurve"/>
			<point x="191" y="666"/>
			<point x="162" y="667"/>
			<point x="149" y="667" type="qcurve"/>
			<point x="133" y="667"/>
			<point x="103" y="661"/>
			<point x="87" y="661" type="qcurve"/>
			<point x="60" y="661"/>
			<point x="32" y="690"/>
			<point x="32" y="709" type="qcurve"/>
			<point x="32" y="725"/>
			<point x="50" y="747"/>
			<point x="82" y="761"/>
			<point x="123" y="767"/>
			<point x="147" y="767" type="qcurve"/>
			<point x="292" y="767"/>
			<point x="504" y="707"/>
			<point x="643" y="593"/>
			<point x="710" y="427"/>
			<point x="710" y="321" type="qcurve"/>
			<point x="710" y="235"/>
			<point x="648" y="115"/>
			<point x="585" y="75" type="qcurve"/>
			<point x="552" y="54"/>
			<point x="464" y="27"/>
			<point x="370" y="11"/>
			<point x="278" y="5"/>
			<point x="242" y="5" type="qcurve"/>
			<point x="219" y="5"/>
			<point x="161" y="11"/>
			<point x="108" y="27"/>
			<point x="72" y="57"/>
			<point x="72" y="80" type="qcurve"/>
			<point x="72" y="98"/>
			<point x="99" y="126"/>
			<point x="121" y="126" type="qcurve"/>
			<point x="132" y="126"/>
			<point x="156" y="116"/>
			<point x="170" y="112" type="qcurve"/>
			<point x="162" y="126"/>
			<point x="162" y="145" type="qcurve"/>
			<point x="162" y="190"/>
			<point x="164" y="279"/>
			<point x="166" y="324" type="qcurve"/>
			<point x="112" y="321"/>
		</contour>
		<contour>
			<point x="262" y="137" type="qcurve"/>
			<point x="259" y="117"/>
			<point x="247" y="103" type="qcurve"/>
			<point x="311" y="105"/>
			<point x="441" y="120"/>
			<point x="545" y="163"/>
			<point x="610" y="243"/>
			<point x="610" y="312" type="qcurve"/>
			<point x="610" y="469"/>
			<point x="434" y="654"/>
			<point x="251" y="664" type="qcurve"/>
			<point x="259" y="658"/>
			<point x="272" y="637"/>
			<point x="274" y="623" type="qcurve"/>
			<point x="273" y="574"/>
			<point x="272" y="477"/>
			<point x="270" y="428" type="qcurve"/>
			<point x="299" y="430"/>
			<point x="358" y="431"/>
			<point x="388" y="432" type="qcurve"/>
			<point x="415" y="429"/>
			<point x="442" y="399"/>
			<point x="442" y="382" type="qcurve"/>
			<point x="442" y="358"/>
			<point x="407" y="336"/>
			<point x="354" y="328"/>
			<point x="292" y="329"/>
			<point x="266" y="328" type="qcurve"/>
			<point x="264" y="280"/>
			<point x="262" y="185"/>
		</contour>
	</outline>
</glyph>
<glyph name="Thorn" format="2">
	<unicode hex="00DE"/>
	<advance width="599"/>
	<outline>
		<contour>
			<point x="81" y="679" type="qcurve"/>
			<point x="81" y="708"/>
			<point x="111" y="737"/>
			<point x="130" y="737" type="qcurve"/>
			<point x="147" y="737"/>
			<point x="177" y="713"/>
			<point x="181" y="687" type="qcurve"/>
			<point x="181" y="570" type="line"/>
			<point x="195" y="570"/>
			<point x="221" y="571"/>
			<point x="235" y="571" type="qcurve"/>
			<point x="275" y="571"/>
			<point x="377" y="556"/>
			<point x="468" y="515"/>
			<point x="530" y="444"/>
			<point x="530" y="388" type="qcurve"/>
			<point x="530" y="352"/>
			<point x="504" y="293"/>
			<point x="462" y="248"/>
			<point x="410" y="217"/>
			<point x="384" y="209" type="qcurve"/>
			<point x="345" y="197"/>
			<point x="264" y="190"/>
			<point x="222" y="190" type="qcurve"/>
			<point x="211" y="190"/>
			<point x="188" y="191"/>
			<point x="177" y="191" type="qcurve"/>
			<point x="177" y="104" type="line"/>
			<point x="177" y="72"/>
			<point x="173" y="59" type="qcurve"/>
			<point x="177" y="47"/>
			<point x="177" y="30" type="qcurve"/>
			<point x="177" y="-29"/>
			<point x="130" y="-29" type="qcurve"/>
			<point x="120" y="-29"/>
			<point x="93" y="-15"/>
			<point x="87" y="-4" type="qcurve"/>
			<point x="77" y="14"/>
			<point x="73" y="54"/>
			<point x="73" y="91" type="qcurve"/>
			<point x="73" y="115"/>
			<point x="75" y="168"/>
			<point x="76" y="215"/>
			<point x="78" y="250"/>
			<point x="78" y="258" type="qcurve"/>
			<point x="79" y="364"/>
			<point x="81" y="573"/>
		</contour>
		<contour>
			<point x="177" y="292" type="line"/>
			<point x="226" y="292" type="line"/>
			<point x="265" y="292"/>
			<point x="343" y="299"/>
			<point x="379" y="313" type="qcurve"/>
			<point x="400" y="321"/>
			<point x="426" y="363"/>
			<point x="426" y="390" type="qcurve"/>
			<point x="426" y="409"/>
			<point x="388" y="440"/>
			<point x="332" y="461"/>
			<point x="268" y="472"/>
			<point x="241" y="472" type="qcurve"/>
			<point x="226" y="472"/>
			<point x="194" y="471"/>
			<point x="180" y="470" type="qcurve"/>
		</contour>
	</outline>
</glyph>
<glyph name="ae" format="2">
	<unicode hex="00E6"/>
	<advance width="703"/>
	<outline>
		<contour>
			<point x="196" y="-22" type="qcurve"/>
			<point x="166" y="-22"/>
			<point x="111" y="-3"/>
			<point x="71" y="33"/>
			<point x="48" y="87"/>
			<point x="50" y="122" type="qcurve"/>
			<point x="54" y="209"/>
			<point x="155" y="253" type="qcurve"/>
			<point x="178" y="263"/>
			<point x="238" y="277"/>
			<point x="273" y="283" type="qcurve"/>
			<point x="260" y="343"/>
			<point x="220" y="418"/>
			<point x="190" y="418" type="qcurve"/>
			<point x="170" y="418"/>
			<point x="135" y="389"/>
			<point x="118" y="367" type="qcurve"/>
			<point x="107" y="354"/>
			<point x="80" y="350"/>
			<point x="58" y="365"/>
			<point x="47" y="395"/>
			<point x="54" y="416" type="qcurve"/>
			<point x="61" y="437"/>
			<point x="89" y="473"/>
			<point x="127" y="498"/>
			<point x="171" y="512"/>
			<point x="195" y="512" type="qcurve"/>
			<point x="243" y="512"/>
			<point x="315" y="459"/>
			<point x="338" y="392" type="qcurve"/>
			<point x="361" y="458"/>
			<point x="454" y="516"/>
			<point x="506" y="516" type="qcurve"/>
			<point x="539" y="516"/>
			<point x="593" y="493"/>
			<point x="630" y="455"/>
			<point x="648" y="404"/>
			<point x="646" y="376" type="qcurve"/>
			<point x="643" y="328"/>
			<point x="583" y="268"/>
			<point x="537" y="251" type="qcurve"/>
			<point x="503" y="238"/>
			<point x="428" y="222"/>
			<point x="393" y="216" type="qcurve"/>
			<point x="400" y="155"/>
			<point x="453" y="74"/>
			<point x="496" y="74" type="qcurve"/>
			<point x="523" y="74"/>
			<point x="574" y="92"/>
			<point x="602" y="106" type="qcurve"/>
			<point x="617" y="113"/>
			<point x="640" y="105"/>
			<point x="651" y="84"/>
			<point x="647" y="55"/>
			<point x="634" y="40" type="qcurve"/>
			<point x="611" y="13"/>
			<point x="537" y="-20"/>
			<point x="500" y="-20" type="qcurve"/>
			<point x="449" y="-20"/>
			<point x="368" y="25"/>
			<point x="343" y="70" type="qcurve"/>
			<point x="323" y="22"/>
			<point x="247" y="-22"/>
		</contour>
		<contour>
			<point x="211" y="72" type="qcurve"/>
			<point x="251" y="72"/>
			<point x="290" y="132"/>
			<point x="285" y="198" type="qcurve"/>
			<point x="261" y="193"/>
			<point x="221" y="182"/>
			<point x="203" y="173" type="qcurve"/>
			<point x="180" y="161"/>
			<point x="160" y="131"/>
			<point x="160" y="117" type="qcurve"/>
			<point x="160" y="96"/>
			<point x="188" y="72"/>
		</contour>
		<contour>
			<point x="497" y="421" type="qcurve"/>
			<point x="464" y="421"/>
			<point x="405" y="362"/>
			<point x="395" y="304" type="qcurve"/>
			<point x="450" y="314"/>
			<point x="492" y="331" type="qcurve"/>
			<point x="535" y="347"/>
			<point x="538" y="380" type="qcurve"/>
			<point x="541" y="421"/>
		</contour>
	</outline>
	<anchor name="mark0" x="344" y="500"/>
	<anchor name="mark1" x="359" y="0"/>
	<anchor name="mark2" x="0" y="0"/>
</glyph>
<glyph name="egrave" format="2">
	<unicode hex="00E8"/>
	<advance width="473"/>
	<outline>
		<contour>
			<point x="440" y="378" type="qcurve"/>
			<point x="437" y="331"/>
			<point x="389" y="262"/>
			<point x="312" y="219"/>
			<point x="212" y="203"/>
			<point x="156" y="209" type="qcurve"/>
			<point x="154" y="135"/>
			<point x="205" y="74"/>
			<point x="249" y="74" type="qcurve"/>
			<point x="280" y="74"/>
			<point x="340" y="90"/>
			<point x="364" y="105" type="qcurve"/>
			<point x="379" y="114"/>
			<point x="409" y="109"/>
			<point x="427" y="88"/>
			<point x="425" y="56"/>
			<point x="407" y="38" type="qcurve"/>
			<point x="378" y="9"/>
			<point x="288" y="-23"/>
			<point x="236" y="-23" type="qcurve"/>
			<point x="200" y="-23"/>
			<point x="129" y="4"/>
			<point x="75" y="66"/>
			<point x="46" y="164"/>
			<point x="52" y="235" type="qcurve"/>
			<point x="59" y="313"/>
			<point x="106" y="425"/>
			<point x="174" y="497"/>
			<point x="255" y="531"/>
			<point x="296" y="531" type="qcurve"/>
			<point x="327" y="531"/>
			<point x="382" y="512"/>
			<point x="422" y="473"/>
			<point x="443" y="416"/>
		</contour>
		<contour>
			<point x="195" y="690" type="qcurve"/>
			<point x="177" y="708"/>
			<point x="180" y="748"/>
			<point x="207" y="774"/>
			<point x="250" y="777"/>
			<point x="273" y="759" type="qcurve"/>
			<point x="286" y="748"/>
			<point x="315" y="719"/>
			<point x="342" y="686"/>
			<point x="365" y="653"/>
			<point x="373" y="638" type="qcurve"/>
			<point x="382" y="620"/>
			<point x="376" y="591"/>
			<point x="354" y="575"/>
			<point x="322" y="577"/>
			<point x="306" y="591" type="qcurve"/>
			<point x="280" y="613"/>
			<point x="219" y="665"/>
		</contour>
		<contour>
			<point x="280" y="436" type="qcurve"/>
			<point x="235" y="436"/>
			<point x="178" y="352"/>
			<point x="165" y="287" type="qcurve"/>
			<point x="205" y="283"/>
			<point x="267" y="296"/>
			<point x="309" y="321"/>
			<point x="331" y="357"/>
			<point x="333" y="377" type="qcurve"/>
			<point x="338" y="436"/>
		</contour>
	</outline>
</glyph>
<glyph name="eth" format="2">
	<unicode hex="00F0"/>
	<advance width="526"/>
	<outline>
		<contour>
			<point x="96" y="451" type="qcurve"/>
			<point x="70" y="451"/>
			<point x="42" y="480"/>
			<point x="42" y="499" type="qcurve"/>
			<point x="42" y="515"/>
			<point x="62" y="539"/>
			<point x="93" y="558"/>
			<point x="129" y="575"/>
			<point x="145" y="584" type="qcurve"/>
			<point x="160" y="593" type="line"/>
			<point x="141" y="615"/>
			<point x="101" y="664"/>
			<point x="101" y="686" type="qcurve"/>
			<point x="101" y="706"/>
			<point x="128" y="733"/>
			<point x="147" y="733" type="qcurve"/>
			<point x="161" y="733"/>
			<point x="187" y="714"/>
			<point x="213" y="687"/>
			<point x="237" y="654"/>
			<point x="248" y="641" type="qcurve"/>
			<point x="270" y="651"/>
			<point x="315" y="665"/>
			<point x="340" y="670" type="qcurve"/>
			<point x="366" y="668"/>
			<point x="394" y="638"/>
			<point x="394" y="621" type="qcurve"/>
			<point x="394" y="607"/>
			<point x="376" y="578"/>
			<point x="356" y="572" type="qcurve"/>
			<point x="345" y="569"/>
			<point x="326" y="564"/>
			<point x="316" y="560" type="qcurve"/>
			<point x="355" y="512"/>
			<point x="414" y="426"/>
			<point x="455" y="343"/>
			<point x="475" y="261"/>
			<point x="475" y="216" type="qcurve"/>
			<point x="475" y="175"/>
			<point x="449" y="94"/>
			<point x="400" y="29"/>
			<point x="331" y="-11"/>
			<point x="288" y="-11" type="qcurve"/>
			<point x="235" y="-11"/>
			<point x="158" y="31"/>
			<point x="108" y="97"/>
			<point x="84" y="178"/>
			<point x="84" y="217" type="qcurve"/>
			<point x="84" y="256"/>
			<point x="115" y="330"/>
			<point x="166" y="394"/>
			<point x="233" y="445"/>
			<point x="269" y="462" type="qcurve"/>
			<point x="259" y="476"/>
			<point x="238" y="501"/>
			<point x="227" y="515" type="qcurve"/>
			<point x="212" y="505"/>
			<point x="175" y="483"/>
			<point x="139" y="464"/>
			<point x="106" y="451"/>
		</contour>
		<contour>
			<point x="370" y="253" type="qcurve"/>
			<point x="364" y="286"/>
			<point x="341" y="347"/>
			<point x="325" y="376" type="qcurve"/>
			<point x="300" y="367"/>
			<point x="250" y="336"/>
			<point x="209" y="294"/>
			<point x="183" y="243"/>
			<point x="183" y="214" type="qcurve"/>
			<point x="183" y="193"/>
			<point x="198" y="149"/>
			<point x="224" y="113"/>
			<point x="260" y="91"/>
			<point x="281" y="91" type="qcurve"/>
			<point x="306" y="91"/>
			<point x="342" y="114"/>
			<point x="363" y="150"/>
			<point x="373" y="195"/>
			<point x="373" y="218" type="qcurve"/>
			<point x="373" y="236"/>
		</contour>
	</outline>
</glyph>
<glyph name="divide" format="2">
	<unicode hex="00F7"/>
	<advance width="595"/>
	<outline>
		<contour>
			<point x="125" y="250" type="qcurve"/>
			<point x="95" y="246"/>
			<point x="66" y="276"/>
			<point x="66" y="298" type="qcurve"/>
			<point x="66" y="314"/>
			<point x="88" y="340"/>
			<point x="113" y="345" type="qcurve"/>
			<point x="140" y="351"/>
			<point x="220" y="359"/>
			<point x="314" y="365"/>
			<point x="415" y="368"/>
			<point x="463" y="368" type="qcurve"/>
			<point x="502" y="368"/>
			<point x="533" y="341"/>
			<point x="533" y="321" type="qcurve"/>
			<point x="533" y="279"/>
			<point x="477" y="276" type="qcurve"/>
			<point x="391" y="272"/>
			<point x="206" y="260"/>
		</contour>
		<contour>
			<point x="288" y="67" type="qcurve"/>
			<point x="258" y="67"/>
			<point x="224" y="113"/>
			<point x="224" y="142" type="qcurve"/>
			<point x="224" y="167"/>
			<point x="258" y="207"/>
			<point x="297" y="207" type="qcurve"/>
			<point x="327" y="207"/>
			<point x="376" y="178"/>
			<point x="376" y="143" type="qcurve"/>
			<point x="376" y="128"/>
			<point x="359" y="100"/>
			<point x="334" y="79"/>
			<point x="303" y="67"/>
		</contour>
		<contour>
			<point x="291" y="428" type="qcurve"/>
			<point x="276" y="428"/>
			<point x="245" y="439"/>
			<point x="220" y="459"/>
			<point x="204" y="486"/>
			<point x="204" y="502" type="qcurve"/>
			<point x="204" y="519"/>
			<point x="219" y="542"/>
			<point x="241" y="555"/>
			<point x="268" y="561"/>
			<point x="280" y="561" type="qcurve"/>
			<point x="291" y="561"/>
			<point x="318" y="552"/>
			<point x="341" y="535"/>
			<point x="356" y="509"/>
			<point x="356" y="492" type="qcurve"/>
			<point x="356" y="458"/>
			<point x="316" y="428"/>
		</contour>
	</outline>
</glyph>
<glyph name="Hbar" format="2">
	<unicode hex="0126"/>
	<advance width="604"/>
	<outline>
		<contour>
			<point x="434" y="691" type="qcurve"/>
			<point x="435" y="712"/>
			<point x="465" y="737"/>
			<point x="485" y="737" type="qcurve"/>
			<point x="504" y="737"/>
			<point x="534" y="711"/>
			<point x="534" y="687" type="qcurve"/>
			<point x="534" y="670"/>
			<point x="534" y="637"/>
			<point x="533" y="620" type="qcurve"/>
			<point x="536" y="620" type="line"/>
			<point x="563" y="617"/>
			<point x="590" y="587"/>
			<point x="590" y="570" type="qcurve"/>
			<point x="590" y="553"/>
			<point x="563" y="522"/>
			<point x="536" y="520" type="qcurve"/>
			<point x="531" y="520" type="line"/>
			<point x="526" y="392"/>
			<point x="513" y="139"/>
			<point x="513" y="17" type="qcurve"/>
			<point x="513" y="-9"/>
			<point x="483" y="-35"/>
			<point x="462" y="-35" type="qcurve"/>
			<point x="442" y="-35"/>
			<point x="413" y="-6"/>
			<point x="413" y="23" type="qcurve"/>
			<point x="413" y="99"/>
			<point x="419" y="251"/>
			<point x="422" y="328" type="qcurve"/>
			<point x="359" y="327"/>
			<point x="235" y="320"/>
			<point x="172" y="319" type="qcurve"/>
			<point x="170" y="245"/>
			<point x="167" y="101"/>
			<point x="167" y="27" type="qcurve"/>
			<point x="167" y="4"/>
			<point x="138" y="-25"/>
			<point x="117" y="-25" type="qcurve"/>
			<point x="96" y="-25"/>
			<point x="67" y="4"/>
			<point x="67" y="27" type="qcurve"/>
			<point x="67" y="151"/>
			<point x="75" y="392"/>
			<point x="77" y="515" type="qcurve"/>
			<point x="48" y="515" type="line"/>
			<point x="25" y="520"/>
			<point x="4" y="549"/>
			<point x="4" y="565" type="qcurve"/>
			<point x="4" y="581"/>
			<point x="25" y="609"/>
			<point x="48" y="615" type="qcurve"/>
			<point x="79" y="615" type="line"/>
			<point x="79" y="676" type="line"/>
			<point x="79" y="699"/>
			<point x="108" y="728"/>
			<point x="129" y="728" type="qcurve"/>
			<point x="150" y="728"/>
			<point x="179" y="699"/>
			<point x="179" y="676" type="qcurve"/>
			<point x="179" y="615" type="line"/>
			<point x="433" y="619" type="line"/>
			<point x="434" y="637"/>
			<point x="434" y="673"/>
		</contour>
		<contour>
			<point x="177" y="515" type="line"/>
			<point x="177" y="491"/>
			<point x="176" y="443"/>
			<point x="175" y="419" type="qcurve"/>
			<point x="238" y="421"/>
			<point x="364" y="427"/>
			<point x="427" y="428" type="qcurve"/>
			<point x="430" y="519" type="line"/>
		</contour>
	</outline>
</glyph>
<glyph name="hbar" format="2">
	<unicode hex="0127"/>
	<advance width="602"/>
	<outline>
		<contour>
			<point x="112" y="743" type="qcurve"/>
			<point x="112" y="763"/>
			<point x="140" y="790"/>
			<point x="163" y="790" type="qcurve"/>
			<point x="183" y="790"/>
			<point x="212" y="761"/>
			<point x="212" y="740" type="qcurve"/>
			<point x="212" y="713"/>
			<point x="209" y="688" type="qcurve"/>
			<point x="218" y="688" type="line"/>
			<point x="256" y="688"/>
			<point x="330" y="684"/>
			<point x="362" y="684" type="qcurve"/>
			<point x="389" y="681"/>
			<point x="416" y="651"/>
			<point x="416" y="634" type="qcurve"/>
			<point x="416" y="617"/>
			<point x="389" y="586"/>
			<point x="362" y="584" type="qcurve"/>
			<point x="340" y="584"/>
			<point x="263" y="588"/>
			<point x="221" y="588" type="qcurve"/>
			<point x="195" y="588" type="line"/>
			<point x="193" y="576"/>
			<point x="192" y="563" type="qcurve"/>
			<point x="188" y="534"/>
			<point x="187" y="504" type="qcurve"/>
			<point x="186" y="476"/>
			<point x="183" y="422"/>
			<point x="181" y="394" type="qcurve"/>
			<point x="230" y="459"/>
			<point x="313" y="521"/>
			<point x="356" y="521" type="qcurve"/>
			<point x="400" y="521"/>
			<point x="453" y="476"/>
			<point x="482" y="407"/>
			<point x="491" y="327"/>
			<point x="491" y="293" type="qcurve"/>
			<point x="491" y="273"/>
			<point x="490" y="235"/>
			<point x="490" y="217" type="qcurve"/>
			<point x="490" y="179"/>
			<point x="496" y="114"/>
			<point x="507" y="88" type="qcurve"/>
			<point x="512" y="84"/>
			<point x="522" y="81"/>
			<point x="527" y="79" type="qcurve"/>
			<point x="543" y="94"/>
			<point x="563" y="94" type="qcurve"/>
			<point x="582" y="94"/>
			<point x="611" y="66"/>
			<point x="611" y="42" type="qcurve"/>
			<point x="611" y="25"/>
			<point x="595" y="1"/>
			<point x="569" y="-15"/>
			<point x="539" y="-22"/>
			<point x="526" y="-22" type="qcurve"/>
			<point x="481" y="-22"/>
			<point x="428" y="14"/>
			<point x="401" y="76"/>
			<point x="394" y="158"/>
			<point x="394" y="203" type="qcurve"/>
			<point x="394" y="217"/>
			<point x="395" y="254"/>
			<point x="395" y="275" type="qcurve"/>
			<point x="395" y="301"/>
			<point x="392" y="354"/>
			<point x="381" y="396"/>
			<point x="363" y="423"/>
			<point x="348" y="423" type="qcurve"/>
			<point x="335" y="423"/>
			<point x="299" y="389"/>
			<point x="260" y="336"/>
			<point x="224" y="274"/>
			<point x="212" y="247" type="qcurve"/>
			<point x="189" y="197"/>
			<point x="164" y="91"/>
			<point x="153" y="28" type="qcurve"/>
			<point x="153" y="11"/>
			<point x="127" y="-20"/>
			<point x="100" y="-20" type="qcurve"/>
			<point x="78" y="-20"/>
			<point x="54" y="10"/>
			<point x="54" y="33" type="qcurve"/>
			<point x="54" y="53" type="line"/>
			<point x="62" y="98"/>
			<point x="68" y="181"/>
			<point x="72" y="224" type="qcurve"/>
			<point x="77" y="296"/>
			<point x="85" y="440"/>
			<point x="87" y="512" type="qcurve"/>
			<point x="88" y="542"/>
			<point x="92" y="570" type="qcurve"/>
			<point x="89" y="570"/>
			<point x="87" y="570" type="qcurve"/>
			<point x="80" y="569"/>
			<point x="74" y="569" type="qcurve"/>
			<point x="52" y="569"/>
			<point x="25" y="596"/>
			<point x="25" y="615" type="qcurve"/>
			<point x="25" y="639"/>
			<point x="63" y="668"/>
			<point x="92" y="675" type="qcurve"/>
			<point x="108" y="679" type="line"/>
			<point x="108" y="682"/>
			<point x="108" y="685" type="qcurve"/>
			<point x="112" y="713"/>
		</contour>
	</outline>
</glyph>
<glyph name="dotlessi" format="2">
	<unicode hex="0131"/>
	<advance width="290"/>
	<outline>
		<contour>
			<point x="98" y="453" type="qcurve"/>
			<point x="99" y="476"/>
			<point x="125" y="506"/>
			<point x="149" y="506" type="qcurve"/>
			<point x="173" y="506"/>
			<point x="200" y="476"/>
			<point x="200" y="450" type="qcurve"/>
			<point x="199" y="396"/>
			<point x="194" y="285"/>
			<point x="187" y="176"/>
			<point x="179" y="74"/>
			<point x="175" y="31" type="qcurve"/>
			<point x="172" y="2"/>
			<point x="141" y="-25"/>
			<point x="124" y="-25" type="qcurve"/>
			<point x="105" y="-25"/>
			<point x="74" y="5"/>
			<point x="76" y="38" type="qcurve"/>
			<point x="79" y="96"/>
			<point x="85" y="198"/>
			<point x="91" y="296"/>
			<point x="96" y="397"/>
		</contour>
	</outline>
	<anchor name="mark0" x="152" y="500"/>
	<anchor name="mark1" x="130" y="0"/>
	<anchor name="mark2" x="0" y="0"/>
</glyph>
<glyph name="kgreenlandic" format="2">
	<unicode hex="0138"/>
	<advance width="590"/>
	<outline>
		<contour>
			<point x="208" y="193" type="line"/>
			<point x="171" y="184" type="line"/>
			<point x="168" y="107"/>
			<point x="168" y="30" type="qcurve"/>
			<point x="164" y="4"/>
			<point x="134" y="-20"/>
			<point x="117" y="-20" type="qcurve"/>
			<point x="98" y="-20"/>
			<point x="68" y="9"/>
			<point x="68" y="38" type="qcurve"/>
			<point x="70" y="153"/>
			<point x="79" y="381"/>
			<point x="80" y="496" type="qcurve"/>
			<point x="88" y="517"/>
			<point x="116" y="538"/>
			<point x="131" y="538" type="qcurve"/>
			<point x="148" y="538"/>
			<point x="176" y="513"/>
			<point x="180" y="488" type="qcurve"/>
			<point x="179" y="437"/>
			<point x="177" y="336"/>
			<point x="175" y="285" type="qcurve"/>
			<point x="180" y="286"/>
			<point x="188" y="287"/>
			<point x="193" y="289" type="qcurve"/>
			<point x="240" y="304"/>
			<point x="306" y="370"/>
			<point x="366" y="443"/>
			<point x="429" y="509"/>
			<point x="474" y="525" type="qcurve"/>
			<point x="479" y="527"/>
			<point x="488" y="527"/>
			<point x="493" y="527" type="qcurve"/>
			<point x="516" y="527"/>
			<point x="544" y="499"/>
			<point x="544" y="480" type="qcurve"/>
			<point x="544" y="466"/>
			<point x="526" y="438"/>
			<point x="506" y="430" type="qcurve"/>
			<point x="488" y="423"/>
			<point x="460" y="399"/>
			<point x="435" y="369"/>
			<point x="411" y="337"/>
			<point x="399" y="324" type="qcurve"/>
			<point x="375" y="298"/>
			<point x="333" y="257"/>
			<point x="312" y="241" type="qcurve"/>
			<point x="339" y="220"/>
			<point x="389" y="171"/>
			<point x="441" y="127"/>
			<point x="498" y="91"/>
			<point x="532" y="82" type="qcurve"/>
			<point x="552" y="74"/>
			<point x="570" y="46"/>
			<point x="570" y="32" type="qcurve"/>
			<point x="570" y="14"/>
			<point x="542" y="-15"/>
			<point x="519" y="-15" type="qcurve"/>
			<point x="510" y="-15"/>
			<point x="500" y="-12" type="qcurve"/>
			<point x="468" y="-3"/>
			<point x="410" y="28"/>
			<point x="356" y="68"/>
			<point x="306" y="112"/>
			<point x="281" y="133" type="qcurve"/>
			<point x="268" y="144"/>
			<point x="233" y="178"/>
			<point x="216" y="187" type="qcurve"/>
		</contour>
	</outline>
</glyph>
<glyph name="Lslash" format="2">
	<unicode hex="0141"/>
	<advance width="525"/>
	<outline>
		<contour>
			<point x="6" y="198" type="line"/>
			<point x="-2" y="194"/>
			<point x="-16" y="192"/>
			<point x="-22" y="192" type="qcurve"/>
			<point x="-44" y="192"/>
			<point x="-71" y="219"/>
			<point x="-71" y="238" type="qcurve"/>
			<point x="-71" y="255"/>
			<point x="-46" y="282"/>
			<point x="-8" y="305"/>
			<point x="36" y="325"/>
			<point x="55" y="336" type="qcurve"/>
			<point x="65" y="424"/>
			<point x="83" y="599"/>
			<point x="88" y="688" type="qcurve"/>
			<point x="96" y="709"/>
			<point x="124" y="730"/>
			<point x="139" y="730" type="qcurve"/>
			<point x="156" y="730"/>
			<point x="184" y="705"/>
			<point x="188" y="680" type="qcurve"/>
			<point x="183" y="609"/>
			<point x="171" y="470"/>
			<point x="163" y="400" type="qcurve"/>
			<point x="176" y="408"/>
			<point x="205" y="429"/>
			<point x="233" y="448"/>
			<point x="260" y="461"/>
			<point x="272" y="461" type="qcurve"/>
			<point x="292" y="461"/>
			<point x="319" y="435"/>
			<point x="319" y="416" type="qcurve"/>
			<point x="319" y="398"/>
			<point x="283" y="359"/>
			<point x="230" y="322"/>
			<point x="171" y="288"/>
			<point x="149" y="275" type="qcurve"/>
			<point x="145" y="231" type="line"/>
			<point x="142" y="197"/>
			<point x="134" y="131"/>
			<point x="134" y="97" type="qcurve"/>
			<point x="161" y="102"/>
			<point x="208" y="108"/>
			<point x="238" y="108" type="qcurve"/>
			<point x="290" y="108"/>
			<point x="393" y="100"/>
			<point x="445" y="98" type="qcurve"/>
			<point x="472" y="95"/>
			<point x="499" y="65"/>
			<point x="499" y="48" type="qcurve"/>
			<point x="499" y="31"/>
			<point x="472" y="0"/>
			<point x="445" y="-2" type="qcurve"/>
			<point x="391" y="0"/>
			<point x="285" y="8"/>
			<point x="231" y="8" type="qcurve"/>
			<point x="200" y="8"/>
			<point x="137" y="-6"/>
			<point x="105" y="-6" type="qcurve"/>
			<point x="61" y="-6"/>
			<point x="34" y="40"/>
			<point x="34" y="80" type="qcurve"/>
			<point x="34" y="115"/>
			<point x="39" y="182"/>
			<point x="43" y="216" type="qcurve"/>
		</contour>
	</outline>
</glyph>
<glyph name="lslash" format="2">
	<unicode hex="0142"/>
	<advance width="438"/>
	<outline>
		<contour>
			<point x="77" y="258" type="qcurve"/>
			<point x="52" y="258"/>
			<point x="23" y="287"/>
			<point x="23" y="306" type="qcurve"/>
			<point x="23" y="327"/>
			<point x="42" y="346" type="qcurve"/>
			<point x="52" y="356"/>
			<point x="105" y="383"/>
			<point x="134" y="397" type="qcurve"/>
			<point x="140" y="400" type="line"/>
			<point x="148" y="485"/>
			<point x="172" y="654"/>
			<point x="178" y="739" type="qcurve"/>
			<point x="186" y="760"/>
			<point x="214" y="781"/>
			<point x="229" y="781" type="qcurve"/>
			<point x="246" y="781"/>
			<point x="274" y="756"/>
			<point x="278" y="731" type="qcurve"/>
			<point x="273" y="659"/>
			<point x="254" y="519"/>
			<point x="246" y="447" type="qcurve"/>
			<point x="262" y="454"/>
			<point x="298" y="475"/>
			<point x="331" y="494"/>
			<point x="360" y="507"/>
			<point x="371" y="507" type="qcurve"/>
			<point x="391" y="507"/>
			<point x="418" y="481"/>
			<point x="418" y="462" type="qcurve"/>
			<point x="418" y="440"/>
			<point x="380" y="403"/>
			<point x="325" y="371"/>
			<point x="262" y="345"/>
			<point x="238" y="335" type="qcurve"/>
			<point x="237" y="320"/>
			<point x="236" y="292"/>
			<point x="236" y="269" type="qcurve"/>
			<point x="236" y="246"/>
			<point x="239" y="192"/>
			<point x="249" y="141"/>
			<point x="268" y="99"/>
			<point x="283" y="88" type="qcurve"/>
			<point x="295" y="79"/>
			<point x="323" y="76"/>
			<point x="337" y="71" type="qcurve"/>
			<point x="357" y="63"/>
			<point x="375" y="35"/>
			<point x="375" y="21" type="qcurve"/>
			<point x="375" y="0"/>
			<point x="347" y="-26"/>
			<point x="324" y="-26" type="qcurve"/>
			<point x="304" y="-26"/>
			<point x="268" y="-16"/>
			<point x="247" y="-6" type="qcurve"/>
			<point x="206" y="13"/>
			<point x="160" y="83"/>
			<point x="139" y="166"/>
			<point x="135" y="250"/>
			<point x="135" y="283" type="qcurve"/>
			<point x="123" y="275"/>
			<point x="90" y="258"/>
		</contour>
	</outline>
</glyph>
<glyph name="Eng" format="2">
	<unicode hex="014A"/>
	<advance width="678"/>
	<outline>
		<contour>
			<point x="126" y="-26" type="qcurve"/>
			<point x="107" y="-26"/>
			<point x="76" y="1"/>
			<point x="76" y="32" type="qcurve"/>
			<point x="76" y="187"/>
			<point x="89" y="501"/>
			<point x="97" y="660" type="qcurve"/>
			<point x="99" y="701"/>
			<point x="127" y="728"/>
			<point x="147" y="728" type="qcurve"/>
			<point x="164" y="728"/>
			<point x="191" y="710"/>
			<point x="200" y="685" type="qcurve"/>
			<point x="258" y="520"/>
			<point x="418" y="241"/>
			<point x="504" y="118" type="qcurve"/>
			<point x="507" y="245"/>
			<point x="496" y="528"/>
			<point x="486" y="668" type="qcurve"/>
			<point x="485" y="681"/>
			<point x="494" y="700"/>
			<point x="508" y="713"/>
			<point x="527" y="720"/>
			<point x="536" y="720" type="qcurve"/>
			<point x="555" y="720"/>
			<point x="584" y="695"/>
			<point x="586" y="668" type="qcurve"/>
			<point x="592" y="606"/>
			<point x="602" y="452"/>
			<point x="608" y="287"/>
			<point x="606" y="123"/>
			<point x="599" y="53" type="qcurve"/>
			<point x="593" y="-6"/>
			<point x="553" y="-100"/>
			<point x="499" y="-168"/>
			<point x="436" y="-211"/>
			<point x="406" y="-218" type="qcurve"/>
			<point x="376" y="-226"/>
			<point x="339" y="-214"/>
			<point x="325" y="-189"/>
			<point x="336" y="-160"/>
			<point x="353" y="-150" type="qcurve"/>
			<point x="377" y="-136"/>
			<point x="416" y="-109"/>
			<point x="447" y="-77"/>
			<point x="471" y="-37"/>
			<point x="480" y="-10" type="qcurve"/>
			<point x="471" y="1" type="line"/>
			<point x="397" y="95"/>
			<point x="246" y="333"/>
			<point x="183" y="485" type="qcurve"/>
			<point x="182" y="430"/>
			<point x="181" y="322"/>
			<point x="180" y="211"/>
			<point x="179" y="93"/>
			<point x="178" y="28" type="qcurve"/>
			<point x="177" y="1"/>
			<point x="146" y="-26"/>
		</contour>
	</outline>
	<anchor name="mark0" x="325" y="725"/>
	<anchor name="mark1" x="353" y="-196"/>
	<anchor name="mark2" x="0" y="0"/>
</glyph>
<glyph name="eng" format="2">
	<unicode hex="014B"/>
	<advance width="590"/>
	<outline>
		<contour>
			<point x="74" y="474" type="qcurve"/>
			<point x="74" y="503"/>
			<point x="104" y="532"/>
			<point x="123" y="532" type="qcurve"/>
			<point x="140" y="532"/>
			<point x="170" y="508"/>
			<point x="174" y="482" type="qcurve"/>
			<point x="174" y="442"/>
			<point x="171" y="406" type="qcurve"/>
			<point x="175" y="412"/>
			<point x="192" y="430"/>
			<point x="211" y="448"/>
			<point x="233" y="464"/>
			<point x="243" y="469" type="qcurve"/>
			<point x="271" y="481"/>
			<point x="350" y="505"/>
			<point x="388" y="505" type="qcurve"/>
			<point x="437" y="505"/>
			<point x="493" y="451"/>
			<point x="522" y="369"/>
			<point x="531" y="272"/>
			<point x="534" y="228" type="qcurve"/>
			<point x="536" y="204"/>
			<point x="541" y="120"/>
			<point x="541" y="69" type="qcurve"/>
			<point x="541" y="25"/>
			<point x="535" y="-66"/>
			<point x="518" y="-147"/>
			<point x="488" y="-210"/>
			<point x="465" y="-225" type="qcurve"/>
			<point x="426" y="-251"/>
			<point x="340" y="-260"/>
			<point x="295" y="-260" type="qcurve"/>
			<point x="272" y="-255"/>
			<point x="251" y="-226"/>
			<point x="251" y="-210" type="qcurve"/>
			<point x="251" y="-194"/>
			<point x="272" y="-166"/>
			<point x="295" y="-160" type="qcurve"/>
			<point x="324" y="-160" type="line"/>
			<point x="348" y="-160"/>
			<point x="384" y="-156"/>
			<point x="410" y="-138"/>
			<point x="426" y="-101"/>
			<point x="431" y="-68" type="qcurve"/>
			<point x="434" y="-49"/>
			<point x="437" y="-10"/>
			<point x="439" y="37"/>
			<point x="440" y="94"/>
			<point x="440" y="130" type="qcurve"/>
			<point x="440" y="194"/>
			<point x="428" y="337"/>
			<point x="401" y="403" type="qcurve"/>
			<point x="336" y="403"/>
			<point x="263" y="362"/>
			<point x="221" y="293"/>
			<point x="197" y="203"/>
			<point x="180" y="154" type="qcurve"/>
			<point x="169" y="121"/>
			<point x="149" y="63"/>
			<point x="140" y="25" type="qcurve"/>
			<point x="135" y="2"/>
			<point x="103" y="-15"/>
			<point x="89" y="-15" type="qcurve"/>
			<point x="69" y="-15"/>
			<point x="42" y="15"/>
			<point x="42" y="43" type="qcurve"/>
			<point x="42" y="88"/>
			<point x="43" y="174"/>
			<point x="48" y="219" type="qcurve"/>
			<point x="54" y="284"/>
			<point x="74" y="408"/>
		</contour>
	</outline>
	<anchor name="mark0" x="314" y="483"/>
	<anchor name="mark1" x="300" y="-235"/>
	<anchor name="mark2" x="0" y="0"/>
</glyph>
<glyph name="oe" format="2">
	<unicode hex="0153"/>
	<advance width="774"/>
	<outline>
		<contour>
			<point x="331" y="502" type="qcurve"/>
			<point x="349" y="502"/>
			<point x="379" y="477"/>
			<point x="383" y="463" type="qcurve"/>
			<point x="396" y="461"/>
			<point x="404" y="453" type="qcurve"/>
			<point x="416" y="465"/>
			<point x="442" y="483"/>
			<point x="476" y="493"/>
			<point x="520" y="498"/>
			<point x="550" y="498" type="qcurve"/>
			<point x="570" y="498"/>
			<point x="640" y="493"/>
			<point x="708" y="473"/>
			<point x="758" y="436"/>
			<point x="758" y="404" type="qcurve"/>
			<point x="758" y="384"/>
			<point x="749" y="355"/>
			<point x="734" y="334"/>
			<point x="714" y="319"/>
			<point x="703" y="313" type="qcurve"/>
			<point x="646" y="279"/>
			<point x="518" y="217"/>
			<point x="450" y="206" type="qcurve"/>
			<point x="454" y="181"/>
			<point x="466" y="137"/>
			<point x="489" y="103"/>
			<point x="527" y="83"/>
			<point x="556" y="83" type="qcurve"/>
			<point x="578" y="83"/>
			<point x="612" y="95"/>
			<point x="640" y="109"/>
			<point x="664" y="121"/>
			<point x="677" y="121" type="qcurve"/>
			<point x="705" y="121"/>
			<point x="731" y="89"/>
			<point x="731" y="72" type="qcurve"/>
			<point x="731" y="57"/>
			<point x="712" y="31"/>
			<point x="685" y="11"/>
			<point x="655" y="-2"/>
			<point x="644" y="-5" type="qcurve"/>
			<point x="626" y="-10"/>
			<point x="588" y="-13"/>
			<point x="568" y="-13" type="qcurve"/>
			<point x="495" y="-13"/>
			<point x="405" y="38"/>
			<point x="380" y="100" type="qcurve"/>
			<point x="362" y="77"/>
			<point x="318" y="35"/>
			<point x="271" y="3"/>
			<point x="220" y="-15"/>
			<point x="194" y="-15" type="qcurve"/>
			<point x="155" y="-15"/>
			<point x="92" y="29"/>
			<point x="47" y="98"/>
			<point x="23" y="183"/>
			<point x="23" y="224" type="qcurve"/>
			<point x="23" y="262"/>
			<point x="39" y="341"/>
			<point x="70" y="410"/>
			<point x="114" y="464"/>
			<point x="142" y="477" type="qcurve"/>
			<point x="177" y="494"/>
			<point x="262" y="502"/>
		</contour>
		<contour>
			<point x="347" y="325" type="qcurve"/>
			<point x="342" y="345"/>
			<point x="327" y="383"/>
			<point x="325" y="402" type="qcurve"/>
			<point x="312" y="402"/>
			<point x="284" y="403"/>
			<point x="270" y="403" type="qcurve"/>
			<point x="248" y="403"/>
			<point x="205" y="397"/>
			<point x="187" y="387" type="qcurve"/>
			<point x="169" y="376"/>
			<point x="144" y="336"/>
			<point x="129" y="289"/>
			<point x="123" y="239"/>
			<point x="123" y="220" type="qcurve"/>
			<point x="123" y="197"/>
			<point x="136" y="150"/>
			<point x="156" y="110"/>
			<point x="181" y="85"/>
			<point x="193" y="85" type="qcurve"/>
			<point x="205" y="85"/>
			<point x="232" y="98"/>
			<point x="258" y="116"/>
			<point x="280" y="136"/>
			<point x="287" y="143" type="qcurve"/>
			<point x="308" y="164"/>
			<point x="338" y="218"/>
			<point x="346" y="246" type="qcurve"/>
			<point x="345" y="254"/>
			<point x="345" y="269"/>
			<point x="345" y="277" type="qcurve"/>
			<point x="345" y="289"/>
			<point x="346" y="313"/>
		</contour>
		<contour>
			<point x="450" y="306" type="line"/>
			<point x="499" y="316"/>
			<point x="591" y="365"/>
			<point x="633" y="388" type="qcurve"/>
			<point x="620" y="391"/>
			<point x="568" y="398"/>
			<point x="542" y="398" type="qcurve"/>
			<point x="516" y="398"/>
			<point x="482" y="388"/>
			<point x="462" y="368"/>
			<point x="451" y="337"/>
			<point x="448" y="317" type="qcurve"/>
		</contour>
	</outline>
	<anchor name="mark0" x="410" y="500"/>
	<anchor name="mark1" x="368" y="0"/>
	<anchor name="mark2" x="0" y="0"/>
</glyph>
<glyph name="Tcommaaccent" format="2">
	<unicode hex="0162"/>
	<advance width="599"/>
	<outline>
		<contour>
			<point x="39" y="602" type="qcurve"/>
			<point x="13" y="602"/>
			<point x="-10" y="635"/>
			<point x="-10" y="651" type="qcurve"/>
			<point x="-10" y="668"/>
			<point x="13" y="699"/>
			<point x="42" y="701" type="qcurve"/>
			<point x="88" y="705"/>
			<point x="187" y="723"/>
			<point x="239" y="725" type="qcurve"/>
			<point x="253" y="726"/>
			<point x="279" y="726"/>
			<point x="293" y="726" type="qcurve"/>
			<point x="353" y="726"/>
			<point x="472" y="720"/>
			<point x="527" y="718" type="qcurve"/>
			<point x="559" y="717"/>
			<point x="587" y="688"/>
			<point x="587" y="668" type="qcurve"/>
			<point x="587" y="651"/>
			<point x="560" y="618"/>
			<point x="533" y="618" type="qcurve"/>
			<point x="484" y="618"/>
			<point x="380" y="623"/>
			<point x="328" y="625" type="qcurve"/>
			<point x="328" y="547"/>
			<point x="326" y="393"/>
			<point x="326" y="315" type="qcurve"/>
			<point x="326" y="271"/>
			<point x="329" y="186"/>
			<point x="329" y="142" type="qcurve"/>
			<point x="329" y="113" type="line"/>
			<point x="328" y="75"/>
			<point x="312" y="1"/>
			<point x="312" y="-37" type="qcurve"/>
			<point x="373" y="-85"/>
			<point x="373" y="-171" type="qcurve"/>
			<point x="373" y="-176"/>
			<point x="372" y="-187"/>
			<point x="371" y="-192" type="qcurve"/>
			<point x="368" y="-208"/>
			<point x="341" y="-236"/>
			<point x="305" y="-256"/>
			<point x="266" y="-268"/>
			<point x="250" y="-268" type="qcurve"/>
			<point x="235" y="-268"/>
			<point x="200" y="-252"/>
			<point x="170" y="-227"/>
			<point x="151" y="-195"/>
			<point x="151" y="-180" type="qcurve"/>
			<point x="151" y="-162"/>
			<point x="178" y="-136"/>
			<point x="197" y="-136" type="qcurve"/>
			<point x="210" y="-136"/>
			<point x="239" y="-152"/>
			<point x="251" y="-166" type="qcurve"/>
			<point x="272" y="-157" type="line"/>
			<point x="271" y="-150"/>
			<point x="269" y="-137"/>
			<point x="266" y="-132" type="qcurve"/>
			<point x="259" y="-118"/>
			<point x="240" y="-105"/>
			<point x="224" y="-90"/>
			<point x="212" y="-65"/>
			<point x="212" y="-38" type="qcurve"/>
			<point x="212" y="7"/>
			<point x="230" y="91"/>
			<point x="230" y="142" type="qcurve"/>
			<point x="230" y="174"/>
			<point x="226" y="237"/>
			<point x="226" y="269" type="qcurve"/>
			<point x="226" y="358"/>
			<point x="228" y="534"/>
			<point x="228" y="623" type="qcurve"/>
			<point x="199" y="621"/>
			<point x="151" y="614"/>
			<point x="107" y="607"/>
			<point x="63" y="602"/>
		</contour>
	</outline>
</glyph>
<glyph name="tcommaaccent" format="2">
	<unicode hex="0163"/>
	<advance width="429"/>
	<outline>
		<contour>
			<point x="26" y="394" type="qcurve"/>
			<point x="4" y="394"/>
			<point x="-25" y="423"/>
			<point x="-25" y="442" type="qcurve"/>
			<point x="-25" y="458"/>
			<point x="-3" y="488"/>
			<point x="23" y="490" type="qcurve"/>
			<point x="56" y="492"/>
			<point x="128" y="499"/>
			<point x="165" y="504" type="qcurve"/>
			<point x="172" y="564"/>
			<point x="194" y="677"/>
			<point x="197" y="742" type="qcurve"/>
			<point x="198" y="762"/>
			<point x="230" y="787"/>
			<point x="248" y="787" type="qcurve"/>
			<point x="267" y="787"/>
			<point x="296" y="760"/>
			<point x="296" y="737" type="qcurve"/>
			<point x="296" y="689"/>
			<point x="276" y="574"/>
			<point x="268" y="517" type="qcurve"/>
			<point x="310" y="522"/>
			<point x="385" y="529"/>
			<point x="416" y="529" type="qcurve"/>
			<point x="442" y="529"/>
			<point x="470" y="499"/>
			<point x="470" y="480" type="qcurve"/>
			<point x="470" y="463"/>
			<point x="443" y="431"/>
			<point x="416" y="430" type="qcurve"/>
			<point x="378" y="428"/>
			<point x="299" y="421"/>
			<point x="259" y="416" type="qcurve"/>
			<point x="257" y="357"/>
			<point x="255" y="242"/>
			<point x="248" y="183" type="qcurve"/>
			<point x="243" y="140"/>
			<point x="240" y="39"/>
			<point x="227" y="-26" type="qcurve"/>
			<point x="244" y="-28"/>
			<point x="277" y="-35"/>
			<point x="293" y="-45" type="qcurve"/>
			<point x="316" y="-59"/>
			<point x="341" y="-106"/>
			<point x="341" y="-135" type="qcurve"/>
			<point x="341" y="-149"/>
			<point x="334" y="-180"/>
			<point x="326" y="-192" type="qcurve"/>
			<point x="312" y="-216"/>
			<point x="276" y="-244"/>
			<point x="235" y="-260"/>
			<point x="190" y="-265"/>
			<point x="169" y="-265" type="qcurve"/>
			<point x="141" y="-265"/>
			<point x="114" y="-233"/>
			<point x="114" y="-217" type="qcurve"/>
			<point x="114" y="-200"/>
			<point x="136" y="-170"/>
			<point x="170" y="-168" type="qcurve"/>
			<point x="202" y="-166"/>
			<point x="236" y="-156"/>
			<point x="242" y="-135" type="qcurve"/>
			<point x="239" y="-130" type="line"/>
			<point x="226" y="-125"/>
			<point x="207" y="-125" type="qcurve"/>
			<point x="197" y="-125"/>
			<point x="177" y="-126"/>
			<point x="169" y="-126" type="qcurve"/>
			<point x="148" y="-121"/>
			<point x="121" y="-92"/>
			<point x="121" y="-66" type="qcurve"/>
			<point x="121" y="-44"/>
			<point x="132" y="1"/>
			<point x="135" y="21" type="qcurve"/>
			<point x="140" y="63"/>
			<point x="142" y="148"/>
			<point x="148" y="191" type="qcurve"/>
			<point x="155" y="245"/>
			<point x="157" y="350"/>
			<point x="159" y="404" type="qcurve"/>
			<point x="122" y="399"/>
			<point x="55" y="394"/>
		</contour>
	</outline>
</glyph>
<glyph name="tbar" format="2">
	<unicode hex="0167"/>
	<advance width="429"/>
	<outline>
		<contour>
			<point x="31" y="396" type="qcurve"/>
			<point x="8" y="401"/>
			<point x="-13" y="430"/>
			<point x="-13" y="446" type="qcurve"/>
			<point x="-13" y="462"/>
			<point x="8" y="490"/>
			<point x="31" y="496" type="qcurve"/>
			<point x="59" y="497"/>
			<point x="112" y="510"/>
			<point x="139" y="514" type="qcurve"/>
			<point x="147" y="515"/>
			<point x="161" y="516"/>
			<point x="169" y="518" type="qcurve"/>
			<point x="169" y="533" type="line"/>
			<point x="169" y="582"/>
			<point x="180" y="676"/>
			<point x="180" y="726" type="qcurve"/>
			<point x="180" y="755"/>
			<point x="210" y="784"/>
			<point x="229" y="784" type="qcurve"/>
			<point x="246" y="784"/>
			<point x="276" y="760"/>
			<point x="280" y="734" type="qcurve"/>
			<point x="280" y="690"/>
			<point x="275" y="603"/>
			<point x="273" y="560" type="qcurve"/>
			<point x="270" y="529" type="line"/>
			<point x="306" y="532"/>
			<point x="377" y="535"/>
			<point x="413" y="536" type="qcurve"/>
			<point x="440" y="533"/>
			<point x="467" y="503"/>
			<point x="467" y="486" type="qcurve"/>
			<point x="467" y="469"/>
			<point x="440" y="438"/>
			<point x="413" y="436" type="qcurve"/>
			<point x="375" y="435"/>
			<point x="302" y="432"/>
			<point x="265" y="428" type="qcurve"/>
			<point x="265" y="408"/>
			<point x="267" y="367"/>
			<point x="267" y="346" type="qcurve"/>
			<point x="267" y="335" type="line"/>
			<point x="285" y="334" type="line"/>
			<point x="322" y="332"/>
			<point x="354" y="332" type="qcurve"/>
			<point x="381" y="329"/>
			<point x="408" y="299"/>
			<point x="408" y="282" type="qcurve"/>
			<point x="408" y="265"/>
			<point x="381" y="234"/>
			<point x="354" y="232" type="qcurve"/>
			<point x="332" y="232"/>
			<point x="293" y="234" type="qcurve"/>
			<point x="279" y="234"/>
			<point x="265" y="235" type="qcurve"/>
			<point x="264" y="212"/>
			<point x="262" y="190" type="qcurve"/>
			<point x="258" y="112"/>
			<point x="258" y="33" type="qcurve"/>
			<point x="254" y="7"/>
			<point x="224" y="-17"/>
			<point x="207" y="-17" type="qcurve"/>
			<point x="188" y="-17"/>
			<point x="158" y="12"/>
			<point x="158" y="41" type="qcurve"/>
			<point x="158" y="136"/>
			<point x="163" y="229" type="qcurve"/>
			<point x="163" y="232"/>
			<point x="163" y="235" type="qcurve"/>
			<point x="154" y="234"/>
			<point x="144" y="233" type="qcurve"/>
			<point x="112" y="231"/>
			<point x="94" y="223" type="qcurve"/>
			<point x="86" y="219"/>
			<point x="72" y="217"/>
			<point x="66" y="217" type="qcurve"/>
			<point x="44" y="217"/>
			<point x="17" y="244"/>
			<point x="17" y="263" type="qcurve"/>
			<point x="17" y="287"/>
			<point x="55" y="316"/>
			<point x="113" y="331"/>
			<point x="147" y="333" type="qcurve"/>
			<point x="157" y="334"/>
			<point x="167" y="335" type="qcurve"/>
			<point x="168" y="376"/>
			<point x="168" y="417" type="qcurve"/>
			<point x="160" y="415"/>
			<point x="156" y="415" type="qcurve"/>
			<point x="124" y="410"/>
			<point x="63" y="397"/>
		</contour>
	</outline>
</glyph>
<glyph name="Zcaron" format="2">
	<unicode hex="017D"/>
	<advance width="687"/>
	<outline>
		<contour>
			<point x="147" y="832" type="qcurve"/>
			<point x="147" y="855"/>
			<point x="176" y="883"/>
			<point x="194" y="883" type="qcurve"/>
			<point x="203" y="883"/>
			<point x="218" y="877"/>
			<point x="226" y="872" type="qcurve"/>
			<point x="237" y="865" type="line"/>
			<point x="254" y="850"/>
			<point x="278" y="814"/>
			<point x="294" y="797" type="qcurve"/>
			<point x="309" y="784" type="line"/>
			<point x="312" y="784"/>
			<point x="313" y="785" type="qcurve"/>
			<point x="326" y="795"/>
			<point x="357" y="819"/>
			<point x="390" y="841"/>
			<point x="423" y="859"/>
			<point x="440" y="863" type="qcurve"/>
			<point x="450" y="869"/>
			<point x="464" y="869" type="qcurve"/>
			<point x="481" y="869"/>
			<point x="514" y="845"/>
			<point x="514" y="819" type="qcurve"/>
			<point x="514" y="802"/>
			<point x="493" y="774"/>
			<point x="469" y="768" type="qcurve"/>
			<point x="450" y="758"/>
			<point x="414" y="732"/>
			<point x="395" y="718" type="qcurve"/>
			<point x="415" y="718"/>
			<point x="454" y="717"/>
			<point x="474" y="717" type="qcurve"/>
			<point x="478" y="717"/>
			<point x="486" y="718"/>
			<point x="490" y="718" type="qcurve"/>
			<point x="510" y="718"/>
			<point x="546" y="692"/>
			<point x="546" y="664" type="qcurve"/>
			<point x="546" y="645"/>
			<point x="521" y="612"/>
			<point x="511" y="596" type="qcurve"/>
			<point x="410" y="424" type="line"/>
			<point x="351" y="321" type="line"/>
			<point x="338" y="297"/>
			<point x="308" y="245"/>
			<point x="294" y="219" type="qcurve"/>
			<point x="277" y="187"/>
			<point x="240" y="128"/>
			<point x="220" y="96" type="qcurve"/>
			<point x="211" y="83" type="line"/>
			<point x="274" y="85"/>
			<point x="401" y="90"/>
			<point x="512" y="95"/>
			<point x="599" y="98"/>
			<point x="623" y="98" type="qcurve"/>
			<point x="650" y="98"/>
			<point x="677" y="65"/>
			<point x="677" y="48" type="qcurve"/>
			<point x="677" y="31"/>
			<point x="648" y="-2"/>
			<point x="623" y="-2" type="qcurve"/>
			<point x="606" y="-2"/>
			<point x="560" y="-3"/>
			<point x="508" y="-5"/>
			<point x="453" y="-7"/>
			<point x="429" y="-8" type="qcurve"/>
			<point x="364" y="-10"/>
			<point x="241" y="-17"/>
			<point x="185" y="-17" type="qcurve"/>
			<point x="164" y="-17"/>
			<point x="121" y="-14"/>
			<point x="87" y="-4"/>
			<point x="66" y="18"/>
			<point x="66" y="38" type="qcurve"/>
			<point x="66" y="58"/>
			<point x="84" y="80"/>
			<point x="95" y="92" type="qcurve"/>
			<point x="112" y="111"/>
			<point x="139" y="155"/>
			<point x="153" y="176" type="qcurve"/>
			<point x="175" y="210"/>
			<point x="216" y="281"/>
			<point x="236" y="316" type="qcurve"/>
			<point x="291" y="418" type="line"/>
			<point x="407" y="615" type="line"/>
			<point x="357" y="617"/>
			<point x="276" y="620"/>
			<point x="201" y="621"/>
			<point x="128" y="621"/>
			<point x="87" y="621" type="qcurve"/>
			<point x="64" y="621"/>
			<point x="37" y="653"/>
			<point x="37" y="671" type="qcurve"/>
			<point x="37" y="689"/>
			<point x="66" y="721"/>
			<point x="87" y="721" type="qcurve"/>
			<point x="123" y="721"/>
			<point x="195" y="721"/>
			<point x="231" y="720" type="qcurve"/>
			<point x="229" y="722"/>
			<point x="224" y="727"/>
			<point x="222" y="729" type="qcurve"/>
			<point x="220" y="731"/>
			<point x="210" y="744"/>
			<point x="197" y="761"/>
			<point x="184" y="778"/>
			<point x="180" y="783" type="qcurve"/>
			<point x="173" y="787"/>
			<point x="147" y="810"/>
		</contour>
	</outline>
</glyph>
<glyph name="uni0237" format="2">
	<unicode hex="0237"/>
	<advance width="316"/>
	<outline>
		<contour>
			<point x="107" y="462" type="qcurve"/>
			<point x="109" y="486"/>
			<point x="138" y="513"/>
			<point x="159" y="513" type="qcurve"/>
			<point x="181" y="513"/>
			<point x="213" y="483"/>
			<point x="211" y="450" type="qcurve"/>
			<point x="210" y="414"/>
			<point x="206" y="355"/>
			<point x="204" y="297"/>
			<point x="205" y="236"/>
			<point x="209" y="198" type="qcurve"/>
			<point x="213" y="162"/>
			<point x="226" y="89"/>
			<point x="236" y="11"/>
			<point x="240" y="-70"/>
			<point x="235" y="-113" type="qcurve"/>
			<point x="230" y="-154"/>
			<point x="194" y="-236"/>
			<point x="131" y="-301"/>
			<point x="44" y="-341"/>
			<point x="-12" y="-341" type="qcurve"/>
			<point x="-74" y="-341"/>
			<point x="-151" y="-298"/>
			<point x="-171" y="-274" type="qcurve"/>
			<point x="-185" y="-256"/>
			<point x="-186" y="-220"/>
			<point x="-168" y="-197"/>
			<point x="-135" y="-195"/>
			<point x="-115" y="-212" type="qcurve"/>
			<point x="-94" y="-230"/>
			<point x="-54" y="-247"/>
			<point x="-28" y="-247" type="qcurve"/>
			<point x="42" y="-247"/>
			<point x="127" y="-164"/>
			<point x="131" y="-93" type="qcurve"/>
			<point x="132" y="-65"/>
			<point x="129" y="-10"/>
			<point x="123" y="49"/>
			<point x="114" y="116"/>
			<point x="109" y="157" type="qcurve"/>
			<point x="98" y="248"/>
			<point x="102" y="401"/>
		</contour>
	</outline>
	<anchor name="mark0" x="161" y="499"/>
	<anchor name="mark1" x="-13" y="-353"/>
	<anchor name="mark2" x="0" y="0"/>
</glyph>
<glyph name="uni0283" format="2">
	<unicode hex="0283"/>
	<advance width="298"/>
	<outline>
		<contour>
			<point x="288" y="749" type="qcurve"/>
			<point x="305" y="749"/>
			<point x="343" y="741"/>
			<point x="374" y="723"/>
			<point x="394" y="695"/>
			<point x="394" y="675" type="qcurve"/>
			<point x="394" y="650"/>
			<point x="365" y="623"/>
			<point x="347" y="623" type="qcurve"/>
			<point x="322" y="623"/>
			<point x="307" y="644" type="qcurve"/>
			<point x="298" y="648"/>
			<point x="285" y="648" type="qcurve"/>
			<point x="275" y="648"/>
			<point x="257" y="637"/>
			<point x="241" y="622"/>
			<point x="227" y="604"/>
			<point x="223" y="598" type="qcurve"/>
			<point x="202" y="568"/>
			<point x="176" y="498"/>
			<point x="163" y="423"/>
			<point x="159" y="350"/>
			<point x="159" y="317" type="qcurve"/>
			<point x="159" y="275"/>
			<point x="164" y="193"/>
			<point x="168" y="151" type="qcurve"/>
			<point x="171" y="122"/>
			<point x="179" y="41"/>
			<point x="179" y="-1" type="qcurve"/>
			<point x="179" y="-59"/>
			<point x="152" y="-164"/>
			<point x="114" y="-196" type="qcurve"/>
			<point x="105" y="-204"/>
			<point x="77" y="-219"/>
			<point x="44" y="-231"/>
			<point x="8" y="-238"/>
			<point x="-9" y="-238" type="qcurve"/>
			<point x="-36" y="-238"/>
			<point x="-64" y="-210"/>
			<point x="-64" y="-190" type="qcurve"/>
			<point x="-64" y="-173"/>
			<point x="-42" y="-144"/>
			<point x="-18" y="-139" type="qcurve"/>
			<point x="-7" y="-137"/>
			<point x="16" y="-136"/>
			<point x="27" y="-132" type="qcurve"/>
			<point x="44" y="-127"/>
			<point x="65" y="-100"/>
			<point x="76" y="-65"/>
			<point x="80" y="-25"/>
			<point x="80" y="-7" type="qcurve"/>
			<point x="80" y="26"/>
			<point x="73" y="110"/>
			<point x="66" y="200"/>
			<point x="59" y="292"/>
			<point x="59" y="335" type="qcurve"/>
			<point x="59" y="382"/>
			<point x="68" y="473"/>
			<point x="80" y="518" type="qcurve"/>
			<point x="90" y="555"/>
			<point x="123" y="637"/>
			<point x="174" y="705"/>
			<point x="243" y="749"/>
		</contour>
	</outline>
	<anchor name="mark0" x="279" y="725"/>
	<anchor name="mark1" x="18" y="-209"/>
	<anchor name="mark2" x="0" y="0"/>
</glyph>
<glyph name="circumflex" format="2">
	<unicode hex="02C6"/>
	<advance width="500"/>
	<outline>
		<contour>
			<point x="232" y="555" type="qcurve"/>
			<point x="223" y="547"/>
			<point x="201" y="531"/>
			<point x="188" y="531" type="qcurve"/>
			<point x="170" y="531"/>
			<point x="141" y="554"/>
			<point x="141" y="577" type="qcurve"/>
			<point x="141" y="594"/>
			<point x="167" y="628"/>
			<point x="185" y="645" type="qcurve"/>
			<point x="248" y="701"/>
			<point x="301" y="701" type="qcurve"/>
			<point x="336" y="701"/>
			<point x="402" y="653"/>
			<point x="433" y="608" type="qcurve"/>
			<point x="438" y="600"/>
			<point x="442" y="584"/>
			<point x="442" y="576" type="qcurve"/>
			<point x="442" y="555"/>
			<point x="415" y="528"/>
			<point x="396" y="528" type="qcurve"/>
			<point x="385" y="528"/>
			<point x="360" y="540"/>
			<point x="350" y="554" type="qcurve"/>
			<point x="330" y="580"/>
			<point x="308" y="601"/>
			<point x="299" y="601" type="qcurve"/>
			<point x="287" y="601"/>
			<point x="249" y="569"/>
		</contour>
	</outline>
</glyph>
<glyph name="uni02C9" format="2">
	<unicode hex="02C9"/>
	<advance width="478"/>
	<outline>
		<contour>
			<point x="122" y="624" type="qcurve"/>
			<point x="114" y="620"/>
			<point x="100" y="618"/>
			<point x="94" y="618" type="qcurve"/>
			<point x="72" y="618"/>
			<point x="45" y="645"/>
			<point x="45" y="664" type="qcurve"/>
			<point x="45" y="688"/>
			<point x="83" y="717"/>
			<point x="141" y="732"/>
			<point x="209" y="737"/>
			<point x="238" y="737" type="qcurve"/>
			<point x="276" y="737"/>
			<point x="350" y="733"/>
			<point x="382" y="733" type="qcurve"/>
			<point x="409" y="730"/>
			<point x="436" y="700"/>
			<point x="436" y="683" type="qcurve"/>
			<point x="436" y="666"/>
			<point x="409" y="635"/>
			<point x="382" y="633" type="qcurve"/>
			<point x="360" y="633"/>
			<point x="283" y="637"/>
			<point x="241" y="637" type="qcurve"/>
			<point x="205" y="637"/>
			<point x="140" y="632"/>
		</contour>
	</outline>
</glyph>
<glyph name="gravecomb" format="2">
	<unicode hex="0300"/>
	<advance width="1"/>
	<outline>
		<contour>
			<point x="-346" y="687" type="qcurve"/>
			<point x="-360" y="701"/>
			<point x="-364" y="731"/>
			<point x="-352" y="757"/>
			<point x="-327" y="773"/>
			<point x="-311" y="773" type="qcurve"/>
			<point x="-289" y="773"/>
			<point x="-268" y="756" type="qcurve"/>
			<point x="-254" y="745"/>
			<point x="-224" y="713"/>
			<point x="-196" y="680"/>
			<point x="-175" y="648"/>
			<point x="-168" y="635" type="qcurve"/>
			<point x="-154" y="608"/>
			<point x="-178" y="573"/>
			<point x="-198" y="573" type="qcurve"/>
			<point x="-217" y="573"/>
			<point x="-235" y="588" type="qcurve"/>
			<point x="-261" y="610"/>
			<point x="-322" y="662"/>
		</contour>
	</outline>
	<anchor name="_mark0" x="-221" y="500"/>
</glyph>
<glyph name="tildecomb" format="2">
	<unicode hex="0303"/>
	<advance width="1"/>
	<outline>
		<contour>
			<point x="-200" y="592" type="qcurve"/>
			<point x="-225" y="592"/>
			<point x="-266" y="602"/>
			<point x="-305" y="622"/>
			<point x="-333" y="635"/>
			<point x="-344" y="635" type="qcurve"/>
			<point x="-355" y="635"/>
			<point x="-373" y="627"/>
			<point x="-381" y="619" type="qcurve"/>
			<point x="-402" y="598"/>
			<point x="-425" y="598" type="qcurve"/>
			<point x="-438" y="598"/>
			<point x="-458" y="611"/>
			<point x="-468" y="632"/>
			<point x="-466" y="658"/>
			<point x="-457" y="672" type="qcurve"/>
			<point x="-447" y="687"/>
			<point x="-420" y="709"/>
			<point x="-390" y="722"/>
			<point x="-360" y="729"/>
			<point x="-346" y="729" type="qcurve"/>
			<point x="-328" y="729"/>
			<point x="-290" y="720"/>
			<point x="-231" y="697"/>
			<point x="-206" y="691"/>
			<point x="-195" y="691" type="qcurve"/>
			<point x="-177" y="691"/>
			<point x="-148" y="708"/>
			<point x="-124" y="732" type="qcurve"/>
			<point x="-105" y="751"/>
			<point x="-86" y="751" type="qcurve"/>
			<point x="-75" y="751"/>
			<point x="-58" y="738"/>
			<point x="-52" y="713"/>
			<point x="-60" y="678"/>
			<point x="-74" y="657" type="qcurve"/>
			<point x="-94" y="627"/>
			<point x="-164" y="592"/>
		</contour>
	</outline>
	<anchor name="_mark0" x="-266" y="500"/>
</glyph>
<glyph name="uni0307" format="2">
	<unicode hex="0307"/>
	<advance width="1"/>
	<outline>
		<contour>
			<point x="-100" y="607" type="qcurve"/>
			<point x="-119" y="607"/>
			<point x="-147" y="619"/>
			<point x="-166" y="639"/>
			<point x="-175" y="662"/>
			<point x="-175" y="672" type="qcurve"/>
			<point x="-175" y="702"/>
			<point x="-130" y="748"/>
			<point x="-98" y="748" type="qcurve"/>
			<point x="-69" y="748"/>
			<point x="-33" y="709"/>
			<point x="-33" y="678" type="qcurve"/>
			<point x="-33" y="650"/>
			<point x="-69" y="607"/>
		</contour>
	</outline>
	<anchor name="_mark0" x="-104" y="520"/>
</glyph>
<glyph name="uni030A" format="2">
	<unicode hex="030A"/>
	<advance width="1"/>
	<outline>
		<contour>
			<point x="-204" y="556" type="qcurve"/>
			<point x="-270" y="556"/>
			<point x="-346" y="630"/>
			<point x="-343" y="688" type="qcurve"/>
			<point x="-339" y="747"/>
			<point x="-253" y="822"/>
			<point x="-192" y="822" type="qcurve"/>
			<point x="-122" y="822"/>
			<point x="-47" y="741"/>
			<point x="-53" y="678" type="qcurve"/>
			<point x="-59" y="623"/>
			<point x="-143" y="556"/>
		</contour>
		<contour>
			<point x="-204" y="642" type="qcurve"/>
			<point x="-178" y="642"/>
			<point x="-145" y="669"/>
			<point x="-144" y="691" type="qcurve"/>
			<point x="-143" y="713"/>
			<point x="-171" y="736"/>
			<point x="-194" y="736" type="qcurve"/>
			<point x="-220" y="736"/>
			<point x="-250" y="707"/>
			<point x="-251" y="686" type="qcurve"/>
			<point x="-253" y="642"/>
		</contour>
	</outline>
	<anchor name="_mark0" x="-209" y="480"/>
</glyph>
<glyph name="uni030C" format="2">
	<unicode hex="030C"/>
	<advance width="1"/>
	<outline>
		<contour>
			<point x="-446" y="655" type="qcurve"/>
			<point x="-461" y="664"/>
			<point x="-474" y="689"/>
			<point x="-474" y="701" type="qcurve"/>
			<point x="-474" y="720"/>
			<point x="-446" y="749"/>
			<point x="-422" y="749" type="qcurve"/>
			<point x="-409" y="749"/>
			<point x="-376" y="726"/>
			<point x="-341" y="695"/>
			<point x="-307" y="663"/>
			<point x="-292" y="654" type="qcurve"/>
			<point x="-258" y="686"/>
			<point x="-193" y="739"/>
			<point x="-157" y="775" type="qcurve"/>
			<point x="-142" y="790"/>
			<point x="-119" y="790" type="qcurve"/>
			<point x="-99" y="790"/>
			<point x="-71" y="763"/>
			<point x="-71" y="742" type="qcurve"/>
			<point x="-71" y="727"/>
			<point x="-80" y="711" type="qcurve"/>
			<point x="-106" y="685"/>
			<point x="-162" y="638"/>
			<point x="-191" y="615" type="qcurve"/>
			<point x="-220" y="586"/>
			<point x="-267" y="550"/>
			<point x="-293" y="550" type="qcurve"/>
			<point x="-311" y="550"/>
			<point x="-353" y="571"/>
			<point x="-379" y="594" type="qcurve"/>
			<point x="-395" y="608"/>
			<point x="-426" y="647"/>
		</contour>
	</outline>
	<anchor name="_mark0" x="-297" y="470"/>
</glyph>
<glyph name="uni0394" format="2">
	<unicode hex="0394"/>
	<advance width="666"/>
	<outline>
		<contour>
			<point x="263" y="704" type="qcurve"/>
			<point x="273" y="733"/>
			<point x="296" y="743" type="qcurve"/>
			<point x="308" y="766"/>
			<point x="336" y="766" type="qcurve"/>
			<point x="350" y="766"/>
			<point x="376" y="750"/>
			<point x="386" y="733" type="qcurve"/>
			<point x="422" y="647"/>
			<point x="486" y="476"/>
			<point x="513" y="387" type="qcurve"/>
			<point x="524" y="352"/>
			<point x="539" y="279"/>
			<point x="550" y="244" type="qcurve"/>
			<point x="559" y="214"/>
			<point x="587" y="161"/>
			<point x="601" y="132" type="qcurve"/>
			<point x="613" y="107"/>
			<point x="622" y="60"/>
			<point x="622" y="39" type="qcurve"/>
			<point x="622" y="19"/>
			<point x="604" y="-6"/>
			<point x="584" y="-10" type="qcurve"/>
			<point x="543" y="-17"/>
			<point x="460" y="-21"/>
			<point x="418" y="-21" type="qcurve"/>
			<point x="380" y="-21"/>
			<point x="306" y="-19"/>
			<point x="269" y="-18" type="qcurve"/>
			<point x="155" y="-15" type="line"/>
			<point x="137" y="-14"/>
			<point x="103" y="-12"/>
			<point x="84" y="-10" type="qcurve"/>
			<point x="66" y="-8"/>
			<point x="41" y="21"/>
			<point x="41" y="47" type="qcurve"/>
			<point x="41" y="58"/>
			<point x="50" y="83"/>
			<point x="52" y="89" type="qcurve"/>
			<point x="60" y="123" type="line"/>
			<point x="80" y="191"/>
			<point x="133" y="318"/>
			<point x="152" y="383" type="qcurve"/>
			<point x="163" y="421"/>
			<point x="184" y="499"/>
			<point x="198" y="536" type="qcurve"/>
			<point x="206" y="557"/>
			<point x="227" y="598"/>
			<point x="247" y="638"/>
			<point x="261" y="681"/>
		</contour>
		<contour>
			<point x="416" y="363" type="qcurve"/>
			<point x="399" y="422"/>
			<point x="357" y="538"/>
			<point x="334" y="595" type="qcurve"/>
			<point x="323" y="571"/>
			<point x="299" y="522"/>
			<point x="289" y="496" type="qcurve"/>
			<point x="267" y="436"/>
			<point x="235" y="316"/>
			<point x="212" y="256" type="qcurve"/>
			<point x="197" y="218"/>
			<point x="168" y="140"/>
			<point x="157" y="99" type="qcurve"/>
			<point x="155" y="92"/>
			<point x="153" y="82" type="qcurve"/>
			<point x="164" y="82"/>
			<point x="187" y="81"/>
			<point x="198" y="81" type="qcurve"/>
			<point x="221" y="81"/>
			<point x="258" y="82"/>
			<point x="269" y="82" type="qcurve"/>
			<point x="303" y="82"/>
			<point x="370" y="79"/>
			<point x="404" y="79" type="qcurve"/>
			<point x="431" y="79"/>
			<point x="485" y="81"/>
			<point x="511" y="83" type="qcurve"/>
			<point x="499" y="118"/>
			<point x="464" y="184"/>
			<point x="453" y="220" type="qcurve"/>
			<point x="442" y="255"/>
			<point x="427" y="328"/>
		</contour>
	</outline>
</glyph>
<glyph name="Theta" format="2">
	<unicode hex="0398"/>
	<advance width="730"/>
	<outline>
		<contour>
			<point x="250" y="306" type="qcurve"/>
			<point x="227" y="311"/>
			<point x="206" y="340"/>
			<point x="206" y="356" type="qcurve"/>
			<point x="206" y="372"/>
			<point x="227" y="400"/>
			<point x="250" y="406" type="qcurve"/>
			<point x="304" y="405"/>
			<point x="409" y="400"/>
			<point x="463" y="399" type="qcurve"/>
			<point x="490" y="396"/>
			<point x="517" y="366"/>
			<point x="517" y="349" type="qcurve"/>
			<point x="517" y="332"/>
			<point x="490" y="301"/>
			<point x="463" y="299" type="qcurve"/>
			<point x="409" y="300"/>
			<point x="304" y="305"/>
		</contour>
		<contour>
			<point x="493" y="682" type="qcurve"/>
			<point x="508" y="672"/>
			<point x="526" y="655"/>
			<point x="529" y="644" type="qcurve"/>
			<point x="534" y="642"/>
			<point x="545" y="638"/>
			<point x="547" y="636" type="qcurve"/>
			<point x="571" y="619"/>
			<point x="625" y="571"/>
			<point x="651" y="527" type="qcurve"/>
			<point x="672" y="491"/>
			<point x="697" y="403"/>
			<point x="697" y="349" type="qcurve"/>
			<point x="697" y="306"/>
			<point x="657" y="187"/>
			<point x="605" y="118" type="qcurve"/>
			<point x="560" y="58"/>
			<point x="425" y="-7"/>
			<point x="329" y="-7" type="qcurve"/>
			<point x="288" y="-7"/>
			<point x="232" y="-1"/>
			<point x="187" y="18"/>
			<point x="148" y="52"/>
			<point x="124" y="80" type="qcurve"/>
			<point x="73" y="140"/>
			<point x="35" y="283"/>
			<point x="35" y="352" type="qcurve"/>
			<point x="35" y="388"/>
			<point x="51" y="468"/>
			<point x="86" y="546"/>
			<point x="140" y="618"/>
			<point x="179" y="647" type="qcurve"/>
			<point x="193" y="657"/>
			<point x="234" y="682"/>
			<point x="285" y="703"/>
			<point x="344" y="717"/>
			<point x="374" y="717" type="qcurve"/>
			<point x="411" y="717"/>
			<point x="473" y="695"/>
		</contour>
		<contour>
			<point x="480" y="559" type="qcurve"/>
			<point x="472" y="564"/>
			<point x="464" y="582"/>
			<point x="463" y="587" type="qcurve"/>
			<point x="453" y="588"/>
			<point x="432" y="594"/>
			<point x="422" y="599" type="qcurve"/>
			<point x="403" y="608"/>
			<point x="379" y="614"/>
			<point x="361" y="614" type="qcurve"/>
			<point x="345" y="614"/>
			<point x="275" y="594"/>
			<point x="234" y="562" type="qcurve"/>
			<point x="191" y="528"/>
			<point x="138" y="420"/>
			<point x="138" y="350" type="qcurve"/>
			<point x="138" y="315"/>
			<point x="150" y="243"/>
			<point x="177" y="177"/>
			<point x="218" y="120"/>
			<point x="247" y="102" type="qcurve"/>
			<point x="251" y="99"/>
			<point x="273" y="95"/>
			<point x="299" y="93"/>
			<point x="325" y="92"/>
			<point x="333" y="92" type="qcurve"/>
			<point x="389" y="92"/>
			<point x="495" y="137"/>
			<point x="533" y="190" type="qcurve"/>
			<point x="558" y="225"/>
			<point x="594" y="314"/>
			<point x="594" y="359" type="qcurve"/>
			<point x="594" y="391"/>
			<point x="569" y="467"/>
			<point x="546" y="502" type="qcurve"/>
			<point x="541" y="510"/>
			<point x="529" y="522"/>
			<point x="513" y="534"/>
			<point x="493" y="548"/>
		</contour>
	</outline>
</glyph>
<glyph name="Lambda" format="2">
	<unicode hex="039B"/>
	<advance width="612"/>
	<outline>
		<contour>
			<point x="100" y="-1" type="qcurve"/>
			<point x="80" y="-20"/>
			<point x="58" y="-20" type="qcurve"/>
			<point x="39" y="-20"/>
			<point x="12" y="7"/>
			<point x="12" y="29" type="qcurve"/>
			<point x="12" y="39"/>
			<point x="17" y="54" type="qcurve"/>
			<point x="47" y="105"/>
			<point x="75" y="217"/>
			<point x="89" y="274" type="qcurve"/>
			<point x="96" y="301"/>
			<point x="119" y="380"/>
			<point x="149" y="468"/>
			<point x="182" y="559"/>
			<point x="214" y="638"/>
			<point x="242" y="698"/>
			<point x="253" y="711" type="qcurve"/>
			<point x="274" y="737"/>
			<point x="297" y="737" type="qcurve"/>
			<point x="320" y="737"/>
			<point x="353" y="694"/>
			<point x="377" y="634"/>
			<point x="396" y="569"/>
			<point x="404" y="546" type="qcurve"/>
			<point x="449" y="420"/>
			<point x="529" y="181"/>
			<point x="577" y="61" type="qcurve"/>
			<point x="580" y="54"/>
			<point x="585" y="38"/>
			<point x="585" y="32" type="qcurve"/>
			<point x="585" y="8"/>
			<point x="557" y="-20"/>
			<point x="538" y="-20" type="qcurve"/>
			<point x="526" y="-20"/>
			<point x="503" y="-9"/>
			<point x="493" y="4" type="qcurve"/>
			<point x="436" y="143"/>
			<point x="341" y="424"/>
			<point x="291" y="565" type="qcurve"/>
			<point x="262" y="489"/>
			<point x="207" y="330"/>
			<point x="186" y="250" type="qcurve"/>
			<point x="169" y="184"/>
			<point x="135" y="59"/>
		</contour>
	</outline>
</glyph>
<glyph name="Sigma" format="2">
	<unicode hex="03A3"/>
	<advance width="590"/>
	<outline>
		<contour>
			<point x="469" y="727" type="qcurve"/>
			<point x="495" y="725"/>
			<point x="523" y="697"/>
			<point x="523" y="680" type="qcurve"/>
			<point x="523" y="666"/>
			<point x="505" y="638"/>
			<point x="485" y="630" type="qcurve"/>
			<point x="468" y="628"/>
			<point x="435" y="626"/>
			<point x="418" y="626" type="qcurve"/>
			<point x="394" y="626"/>
			<point x="347" y="628"/>
			<point x="322" y="628" type="qcurve"/>
			<point x="280" y="628"/>
			<point x="198" y="620"/>
			<point x="156" y="618" type="qcurve"/>
			<point x="164" y="594"/>
			<point x="192" y="543"/>
			<point x="223" y="494"/>
			<point x="253" y="451"/>
			<point x="265" y="434" type="qcurve"/>
			<point x="272" y="424"/>
			<point x="290" y="402"/>
			<point x="306" y="379"/>
			<point x="317" y="355"/>
			<point x="317" y="344" type="qcurve"/>
			<point x="317" y="323"/>
			<point x="290" y="282"/>
			<point x="280" y="265" type="qcurve"/>
			<point x="251" y="219"/>
			<point x="193" y="129"/>
			<point x="164" y="82" type="qcurve"/>
			<point x="176" y="83"/>
			<point x="199" y="86"/>
			<point x="210" y="86" type="qcurve"/>
			<point x="280" y="88"/>
			<point x="420" y="92"/>
			<point x="490" y="93" type="qcurve"/>
			<point x="517" y="90"/>
			<point x="544" y="60"/>
			<point x="544" y="43" type="qcurve"/>
			<point x="544" y="26"/>
			<point x="519" y="-6"/>
			<point x="490" y="-7" type="qcurve"/>
			<point x="400" y="-9"/>
			<point x="219" y="-18"/>
			<point x="127" y="-18" type="qcurve"/>
			<point x="35" y="-18"/>
			<point x="35" y="37" type="qcurve"/>
			<point x="35" y="61"/>
			<point x="53" y="91" type="qcurve"/>
			<point x="71" y="120"/>
			<point x="112" y="182"/>
			<point x="154" y="244"/>
			<point x="193" y="307"/>
			<point x="209" y="338" type="qcurve"/>
			<point x="184" y="372"/>
			<point x="127" y="453"/>
			<point x="79" y="540"/>
			<point x="47" y="628"/>
			<point x="47" y="668" type="qcurve"/>
			<point x="47" y="689"/>
			<point x="76" y="713"/>
			<point x="93" y="716" type="qcurve"/>
			<point x="141" y="725"/>
			<point x="254" y="728"/>
			<point x="308" y="728" type="qcurve"/>
			<point x="347" y="728"/>
			<point x="427" y="727"/>
		</contour>
	</outline>
</glyph>
<glyph name="Psi" format="2">
	<unicode hex="03A8"/>
	<advance width="664"/>
	<outline>
		<contour>
			<point x="17" y="613" type="qcurve"/>
			<point x="1" y="620"/>
			<point x="-12" y="645"/>
			<point x="-12" y="657" type="qcurve"/>
			<point x="-12" y="676"/>
			<point x="16" y="705"/>
			<point x="40" y="705" type="qcurve"/>
			<point x="89" y="705"/>
			<point x="171" y="636"/>
			<point x="186" y="571" type="qcurve"/>
			<point x="190" y="552"/>
			<point x="200" y="497"/>
			<point x="216" y="441"/>
			<point x="240" y="394"/>
			<point x="260" y="383" type="qcurve"/>
			<point x="267" y="379"/>
			<point x="280" y="372"/>
			<point x="287" y="370" type="qcurve"/>
			<point x="289" y="445"/>
			<point x="292" y="592"/>
			<point x="292" y="663" type="qcurve"/>
			<point x="292" y="679"/>
			<point x="302" y="700"/>
			<point x="318" y="713"/>
			<point x="335" y="718"/>
			<point x="343" y="718" type="qcurve"/>
			<point x="360" y="718"/>
			<point x="392" y="691"/>
			<point x="392" y="659" type="qcurve"/>
			<point x="392" y="590"/>
			<point x="389" y="449"/>
			<point x="387" y="377" type="qcurve"/>
			<point x="413" y="392"/>
			<point x="453" y="443"/>
			<point x="468" y="478" type="qcurve"/>
			<point x="479" y="503"/>
			<point x="493" y="541"/>
			<point x="505" y="577"/>
			<point x="519" y="617"/>
			<point x="531" y="643" type="qcurve"/>
			<point x="541" y="666"/>
			<point x="564" y="690"/>
			<point x="589" y="690" type="qcurve"/>
			<point x="609" y="690"/>
			<point x="635" y="663"/>
			<point x="635" y="644" type="qcurve"/>
			<point x="635" y="633"/>
			<point x="630" y="620"/>
			<point x="623" y="604" type="qcurve"/>
			<point x="598" y="541"/>
			<point x="560" y="434"/>
			<point x="512" y="349"/>
			<point x="442" y="288"/>
			<point x="384" y="272" type="qcurve"/>
			<point x="382" y="211"/>
			<point x="380" y="90"/>
			<point x="380" y="30" type="qcurve"/>
			<point x="380" y="0"/>
			<point x="346" y="-27"/>
			<point x="329" y="-27" type="qcurve"/>
			<point x="310" y="-27"/>
			<point x="280" y="2"/>
			<point x="280" y="31" type="qcurve"/>
			<point x="280" y="93"/>
			<point x="282" y="211"/>
			<point x="284" y="269" type="qcurve"/>
			<point x="241" y="272"/>
			<point x="180" y="315"/>
			<point x="138" y="377"/>
			<point x="112" y="451"/>
			<point x="103" y="487" type="qcurve"/>
			<point x="100" y="497"/>
			<point x="95" y="531"/>
			<point x="86" y="565"/>
			<point x="71" y="594"/>
			<point x="59" y="600" type="qcurve"/>
			<point x="49" y="605"/>
			<point x="27" y="608"/>
		</contour>
	</outline>
</glyph>
<glyph name="uni03A9" format="2">
	<unicode hex="03A9"/>
	<advance width="776"/>
	<outline>
		<contour>
			<point x="74" y="1" type="qcurve"/>
			<point x="51" y="6"/>
			<point x="30" y="35"/>
			<point x="30" y="51" type="qcurve"/>
			<point x="30" y="67"/>
			<point x="51" y="95"/>
			<point x="74" y="101" type="qcurve"/>
			<point x="94" y="101"/>
			<point x="136" y="98"/>
			<point x="156" y="97" type="qcurve"/>
			<point x="129" y="152"/>
			<point x="93" y="243"/>
			<point x="72" y="320"/>
			<point x="64" y="389"/>
			<point x="64" y="424" type="qcurve"/>
			<point x="64" y="469"/>
			<point x="83" y="551"/>
			<point x="112" y="588" type="qcurve"/>
			<point x="124" y="603"/>
			<point x="139" y="625"/>
			<point x="154" y="643"/>
			<point x="169" y="659"/>
			<point x="181" y="669" type="qcurve"/>
			<point x="222" y="703"/>
			<point x="322" y="738"/>
			<point x="375" y="738" type="qcurve"/>
			<point x="417" y="738"/>
			<point x="503" y="713"/>
			<point x="540" y="687" type="qcurve"/>
			<point x="567" y="667"/>
			<point x="614" y="602"/>
			<point x="652" y="527"/>
			<point x="678" y="451"/>
			<point x="686" y="420" type="qcurve"/>
			<point x="692" y="394"/>
			<point x="701" y="339"/>
			<point x="701" y="311" type="qcurve"/>
			<point x="701" y="274"/>
			<point x="682" y="213"/>
			<point x="651" y="161"/>
			<point x="609" y="116"/>
			<point x="585" y="96" type="qcurve"/>
			<point x="606" y="96" type="line"/>
			<point x="612" y="96"/>
			<point x="624" y="99"/>
			<point x="629" y="99" type="qcurve"/>
			<point x="652" y="99"/>
			<point x="680" y="71"/>
			<point x="680" y="52" type="qcurve"/>
			<point x="680" y="31"/>
			<point x="643" y="-3"/>
			<point x="597" y="-3" type="qcurve"/>
			<point x="562" y="-3"/>
			<point x="498" y="7"/>
			<point x="450" y="25"/>
			<point x="421" y="53"/>
			<point x="421" y="71" type="qcurve"/>
			<point x="421" y="82"/>
			<point x="435" y="114"/>
			<point x="451" y="119" type="qcurve"/>
			<point x="468" y="135"/>
			<point x="515" y="168"/>
			<point x="559" y="205"/>
			<point x="592" y="246"/>
			<point x="597" y="270" type="qcurve"/>
			<point x="600" y="286"/>
			<point x="600" y="305" type="qcurve"/>
			<point x="600" y="342"/>
			<point x="581" y="431"/>
			<point x="549" y="515"/>
			<point x="506" y="586"/>
			<point x="481" y="606" type="qcurve"/>
			<point x="458" y="623"/>
			<point x="390" y="639"/>
			<point x="367" y="639" type="qcurve"/>
			<point x="325" y="639"/>
			<point x="250" y="601"/>
			<point x="194" y="539"/>
			<point x="161" y="458"/>
			<point x="161" y="416" type="qcurve"/>
			<point x="161" y="373"/>
			<point x="183" y="290"/>
			<point x="216" y="208"/>
			<point x="256" y="129"/>
			<point x="274" y="91" type="qcurve"/>
			<point x="279" y="83"/>
			<point x="289" y="64"/>
			<point x="289" y="54" type="qcurve"/>
			<point x="289" y="32"/>
			<point x="268" y="7"/>
			<point x="251" y="-1" type="qcurve"/>
			<point x="240" y="-2"/>
			<point x="216" y="-3"/>
			<point x="205" y="-3" type="qcurve"/>
			<point x="172" y="-3"/>
			<point x="106" y="1"/>
		</contour>
	</outline>
</glyph>
<glyph name="gamma" format="2">
	<unicode hex="03B3"/>
	<advance width="501"/>
	<outline>
		<contour>
			<point x="41" y="421" type="qcurve"/>
			<point x="41" y="450"/>
			<point x="72" y="479"/>
			<point x="91" y="479" type="qcurve"/>
			<point x="108" y="479"/>
			<point x="137" y="450"/>
			<point x="151" y="418" type="qcurve"/>
			<point x="163" y="392"/>
			<point x="194" y="302"/>
			<point x="215" y="231" type="qcurve"/>
			<point x="217" y="223"/>
			<point x="221" y="209"/>
			<point x="223" y="201" type="qcurve"/>
			<point x="272" y="273"/>
			<point x="368" y="415"/>
			<point x="412" y="490" type="qcurve"/>
			<point x="423" y="504"/>
			<point x="447" y="516"/>
			<point x="458" y="516" type="qcurve"/>
			<point x="477" y="516"/>
			<point x="504" y="489"/>
			<point x="504" y="468" type="qcurve"/>
			<point x="504" y="453"/>
			<point x="495" y="435" type="qcurve"/>
			<point x="441" y="343"/>
			<point x="319" y="168"/>
			<point x="260" y="78" type="qcurve"/>
			<point x="271" y="36"/>
			<point x="289" y="-52"/>
			<point x="294" y="-98" type="qcurve"/>
			<point x="296" y="-114"/>
			<point x="298" y="-148"/>
			<point x="298" y="-166" type="qcurve"/>
			<point x="298" y="-212"/>
			<point x="278" y="-305"/>
			<point x="231" y="-379"/>
			<point x="153" y="-425"/>
			<point x="96" y="-425" type="qcurve"/>
			<point x="67" y="-425"/>
			<point x="26" y="-400"/>
			<point x="0" y="-358"/>
			<point x="-13" y="-305"/>
			<point x="-13" y="-278" type="qcurve"/>
			<point x="-13" y="-236"/>
			<point x="10" y="-153"/>
			<point x="46" y="-74"/>
			<point x="91" y="1"/>
			<point x="112" y="34" type="qcurve"/>
			<point x="151" y="94" type="line"/>
			<point x="140" y="132"/>
			<point x="117" y="209"/>
			<point x="106" y="247" type="qcurve"/>
			<point x="100" y="270"/>
			<point x="78" y="320"/>
			<point x="57" y="368"/>
			<point x="41" y="408"/>
		</contour>
		<contour>
			<point x="129" y="-133" type="qcurve"/>
			<point x="119" y="-160"/>
			<point x="101" y="-215"/>
			<point x="94" y="-244" type="qcurve"/>
			<point x="89" y="-267"/>
			<point x="89" y="-287" type="qcurve"/>
			<point x="89" y="-304"/>
			<point x="97" y="-326"/>
			<point x="105" y="-326" type="qcurve"/>
			<point x="132" y="-326"/>
			<point x="167" y="-293"/>
			<point x="188" y="-244"/>
			<point x="197" y="-185"/>
			<point x="197" y="-158" type="qcurve"/>
			<point x="197" y="-127"/>
			<point x="194" y="-106" type="qcurve"/>
			<point x="189" y="-70"/>
			<point x="182" y="-34" type="qcurve"/>
			<point x="166" y="-58"/>
			<point x="138" y="-108"/>
		</contour>
	</outline>
</glyph>
